<svg width="119" height="64" viewBox="0 0 119 64" fill="none" xmlns="http://www.w3.org/2000/svg">
<g clip-path="url(#clip0_1126_19337)">
<rect width="64" height="64" rx="32" fill="#06FC99"/>
<rect width="64" height="64" rx="32" fill="#0B0B0B"/>
<path fill-rule="evenodd" clip-rule="evenodd" d="M44.1602 50.0482L14.0802 50.0482L14.0802 19.9809L19.9688 19.9809L19.9688 13.8242L49.9202 13.8242L49.9202 43.7762L44.1602 43.7762L44.1602 50.0482ZM44.1602 19.8367L44.1602 43.7727L37.8882 43.7727L37.8882 38.0482L32.0446 38.0482L32.0446 31.7261L26.2401 31.7261L26.2401 43.7474L19.9712 43.7474L19.9712 19.9905L26.2401 19.9905L26.2401 25.3926L32.1158 25.3926L32.1158 31.7147L37.8882 31.7147L37.8882 19.8367L44.1602 19.8367Z" fill="#F9D949"/>
</g>
<g clip-path="url(#clip1_1126_19337)">
<path d="M86.1538 64C103.827 64 118.154 49.6731 118.154 32C118.154 14.3269 103.827 0 86.1538 0C68.4807 0 54.1538 14.3269 54.1538 32C54.1538 49.6731 68.4807 64 86.1538 64Z" fill="#2775CA"/>
<path d="M80.1499 54.2523C80.1499 55.0105 79.5619 55.4438 78.8347 55.2117C69.1635 52.1169 62.1538 43.0492 62.1538 32.3413C62.1538 21.6333 69.1635 12.5656 78.8501 9.47087C79.5774 9.23876 80.1654 9.67203 80.1654 10.4302V12.2871C80.1654 12.7978 79.7786 13.3703 79.2989 13.5405C71.6393 16.3567 66.1461 23.7223 66.1461 32.3413C66.1461 40.9602 71.6238 48.3258 79.2834 51.1266C79.7631 51.2968 80.1499 51.8848 80.1499 52.3954V54.2523V54.2523Z" fill="white"/>
<path d="M88.1655 47.334C88.1655 47.8911 87.7167 48.3398 87.1597 48.3398H85.1635C84.6065 48.3398 84.1577 47.8911 84.1577 47.334V44.1774C79.7941 43.5894 77.6587 41.1445 77.0707 37.8176C76.9778 37.2451 77.4266 36.7344 77.9991 36.7344H80.2738C80.7535 36.7344 81.1558 37.0749 81.2486 37.5391C81.6664 39.5197 82.827 41.0516 86.3086 41.0516C88.8927 41.0516 90.7187 39.6126 90.7187 37.4617C90.7187 35.2954 89.6355 34.4907 85.8444 33.8718C80.2583 33.1135 77.6123 31.4114 77.6123 27.0323C77.6123 23.6435 80.1809 21.013 84.1423 20.4404V17.3456C84.1423 16.7886 84.591 16.3398 85.1481 16.3398H87.1442C87.7012 16.3398 88.15 16.7886 88.15 17.3456V20.5333C91.3686 21.1058 93.4266 22.9317 94.092 25.9801C94.2158 26.5526 93.767 27.0942 93.179 27.0942H91.0746C90.6258 27.0942 90.239 26.7847 90.1152 26.3515C89.5426 24.4172 88.1655 23.5816 85.767 23.5816C83.121 23.5816 81.7438 24.8505 81.7438 26.6609C81.7438 28.5642 82.533 29.5081 86.5871 30.0961C92.0804 30.8544 94.9276 32.4172 94.9276 37.0903C94.9276 40.6493 92.297 43.5275 88.15 44.1774L88.1655 47.334V47.334Z" fill="white"/>
<path d="M93.473 55.2117C92.7457 55.4438 92.1577 55.0105 92.1577 54.2523V52.38C92.1577 51.8229 92.4981 51.3123 93.0243 51.1111C100.684 48.3103 106.162 40.9448 106.162 32.3258C106.162 23.7068 100.684 16.3413 93.0243 13.5405C92.5446 13.3703 92.1577 12.7823 92.1577 12.2871V10.4302C92.1577 9.67203 92.7457 9.23876 93.473 9.47087C103.16 12.5656 110.169 21.6333 110.169 32.3413C110.154 43.0492 103.144 52.1169 93.473 55.2117Z" fill="white"/>
</g>
<defs>
<clipPath id="clip0_1126_19337">
<rect width="64" height="64" rx="32" fill="white"/>
</clipPath>
<clipPath id="clip1_1126_19337">
<rect width="64" height="64" fill="white" transform="translate(54.1538)"/>
</clipPath>
</defs>
</svg>
