<svg width="26" height="26" viewBox="0 0 26 26" fill="none" xmlns="http://www.w3.org/2000/svg">
<g clip-path="url(#clip0_1005_16694)">
<rect width="26" height="26" rx="13" fill="#06FC99"/>
<rect width="26" height="26" rx="13" fill="#111111"/>
<path fill-rule="evenodd" clip-rule="evenodd" d="M17.9403 20.3332L5.72027 20.3332L5.72027 8.11883L8.11252 8.11883L8.11252 5.61719L20.2803 5.61719L20.2803 17.7852L17.9403 17.7852L17.9403 20.3332ZM17.9403 8.06117L17.9403 17.7852L15.3923 17.7852L15.3923 15.4586L13.0183 15.4586L13.0183 12.8914L10.6602 12.8914L10.6602 17.7735L8.1135 17.7735L8.1135 8.12227L10.6602 8.12227L10.6602 10.3184L13.0472 10.3184L13.0472 12.8856L15.3923 12.8856L15.3923 8.06117L17.9403 8.06117Z" fill="#FFD700"/>
</g>
<defs>
<clipPath id="clip0_1005_16694">
<rect width="26" height="26" rx="13" fill="white"/>
</clipPath>
</defs>
</svg>
