<svg width="467" height="68" viewBox="0 0 467 68" fill="none" xmlns="http://www.w3.org/2000/svg">
<g clip-path="url(#clip0_970_20819)">
<path d="M0 67.0197V0H16.8944V25.1968H17.4095C18.1546 23.8453 19.2225 22.4712 20.627 21.0743C22.052 19.6577 23.9028 18.479 26.1795 17.5412C28.4801 16.5778 31.3336 16.099 34.7469 16.099C39.0929 16.0777 43.3566 17.0771 47.04 18.9805C50.7966 20.8788 53.7977 23.7462 56.0469 27.5853C58.2926 31.4047 59.4189 36.193 59.4189 41.9503C59.4189 47.5603 58.3201 52.292 56.1224 56.1538C53.9591 59.993 50.9957 62.9057 47.2391 64.8918C43.5134 66.8553 39.3344 67.8385 34.7057 67.8385C31.4264 67.8385 28.6381 67.388 26.3374 66.4955C24.0642 65.6002 22.1997 64.4753 20.7437 63.1238C19.3937 61.8798 18.2715 60.4795 17.4129 58.9673H16.6575V67.0168L0 67.0197ZM16.5407 41.888C16.5407 44.8743 17.0421 47.481 18.0482 49.708C19.0509 51.9322 20.5068 53.6662 22.4091 54.91C24.3149 56.1312 26.6293 56.7432 29.3523 56.7432C32.0994 56.7432 34.4275 56.1198 36.3333 54.8788C38.2356 53.6123 39.6778 51.867 40.6565 49.6428C41.6591 47.396 42.1639 44.8092 42.1639 41.8852C42.1639 38.9838 41.6729 36.431 40.6942 34.2295C39.7156 32.0252 38.2768 30.3025 36.3711 29.0587C34.4687 27.8148 32.1269 27.1943 29.3523 27.1943C26.6018 27.1943 24.2737 27.7922 22.3714 28.9935C20.4931 30.192 19.0509 31.8948 18.0447 34.0992C17.0421 36.3007 16.5407 38.8988 16.5407 41.8852V41.888ZM76.4197 0V67.0197H59.5253V0H76.4197Z" fill="black"/>
<path d="M96.1574 67.966C92.2703 67.966 88.809 67.4107 85.7666 66.2972C82.8286 65.2339 80.3231 63.496 78.5487 61.2907C76.8009 59.0665 75.9287 56.2955 75.9287 52.9805C75.9287 50.1868 76.5502 47.8408 77.7933 45.9453C78.9901 44.0888 80.7373 42.5126 82.8719 41.3638C85.1161 40.1706 87.5806 39.2864 90.1688 38.7458C92.9158 38.1565 95.8002 37.74 98.8151 37.4992C101.677 37.2623 104.534 36.9789 107.383 36.6492C109.553 36.3658 111.125 35.9522 112.104 35.4082C113.083 34.8613 113.57 34.0538 113.57 32.9857V32.7873C113.57 30.719 112.781 29.1125 111.191 27.9792C109.632 26.8458 107.41 26.2792 104.529 26.2792C101.487 26.2792 99.0692 26.8345 97.2699 27.9452C95.4706 29.036 94.2825 30.4102 93.6988 32.0705L78.0714 31.0222C78.8612 27.9678 80.4236 25.3272 82.7517 23.103C85.0799 20.8562 88.081 19.1335 91.7552 17.9322C95.4569 16.711 99.7423 16.099 104.608 16.099C107.99 16.099 111.232 16.4277 114.326 17.0822C117.288 17.6782 120.095 18.7089 122.615 20.1252C125.026 21.4797 127.001 23.2994 128.367 25.4263C129.768 27.5655 130.468 30.1297 130.468 33.116V67.0197H114.442V60.0497H113.969C112.985 61.6244 111.653 63.0333 110.04 64.2033C108.3 65.4293 106.295 66.3733 104.131 66.9857C101.83 67.6402 99.1723 67.966 96.1574 67.966ZM100.999 58.3468C103.482 58.3468 105.676 57.9417 107.582 57.137C109.484 56.3068 110.981 55.1933 112.063 53.7993C113.155 52.3823 113.721 50.7326 113.69 49.0535V43.7183C113.162 44.0017 112.434 44.2652 111.507 44.5032C110.61 44.7213 109.59 44.9282 108.454 45.1265C107.317 45.3022 106.181 45.4665 105.044 45.6167L101.95 45.9765C100.165 46.1716 98.4173 46.5564 96.7514 47.1212C95.2749 47.6453 94.1211 48.3537 93.3039 49.249C92.4797 50.1217 92.0711 51.2125 92.0711 52.5215C92.0711 54.4198 92.9055 55.8705 94.5709 56.8735C96.2638 57.8567 98.41 58.3468 100.999 58.3468ZM149.303 37.961V67.0197H132.408V16.7563H148.513V25.6247H149.224C150.51 22.7633 152.892 20.3261 156.009 18.683C159.182 16.9632 163.028 16.099 167.547 16.099C171.78 16.099 175.468 16.864 178.617 18.3912C181.763 19.9183 184.207 22.1 185.955 24.9362C187.7 27.7497 188.572 31.11 188.572 35.0143V67.0197H171.677V37.502C171.701 34.425 170.75 32.0252 168.817 30.3025C166.887 28.5572 164.233 27.6845 160.847 27.6845C158.571 27.6845 156.562 28.0868 154.817 28.8943C153.1 29.7018 151.751 30.8777 150.772 32.4303C149.821 33.9575 149.33 35.802 149.303 37.961ZM206.029 52.5555L206.071 35.8332H208.529L228.044 16.7535H247.438L221.221 42.0183H217.213L206.029 52.5555ZM190.718 67.0197V0H207.616V67.0197H190.718ZM228.799 67.0197L210.868 45.1265L222.131 35.275L248.588 67.0197H228.799ZM277.357 67.0197V16.7563H293.736V25.5255H294.375C295.484 22.406 297.349 20.0487 299.965 18.4563C302.585 16.8413 305.597 16.0338 309.01 16.0338C309.854 16.0338 310.768 16.0792 311.747 16.1642C312.725 16.252 313.584 16.3738 314.322 16.5268V28.8943C313.243 28.6521 312.143 28.4778 311.032 28.373C309.758 28.2275 308.473 28.1509 307.186 28.1435C304.7 28.1435 302.479 28.5912 300.521 29.4837C298.613 30.3388 297.022 31.6061 295.92 33.15C294.811 34.7197 294.255 36.5302 294.255 38.5815V67.0197H277.357Z" fill="black"/>
<path d="M327.518 67.9647C323.631 67.9647 320.17 67.4093 317.127 66.2958C314.188 65.233 311.681 63.4951 309.906 61.2893C308.162 59.0652 307.29 56.2942 307.29 52.9792C307.29 50.1855 307.911 47.8395 309.154 45.944C310.351 44.0874 312.098 42.5112 314.233 41.3625C316.477 40.1691 318.941 39.2849 321.53 38.7445C324.367 38.1417 327.259 37.7248 330.176 37.4978C333.038 37.261 335.895 36.9776 338.743 36.6478C340.914 36.3645 342.486 35.9508 343.465 35.4068C344.444 34.86 344.931 34.0525 344.931 32.9843V32.786C344.931 30.7177 344.138 29.1112 342.551 27.9778C340.993 26.8445 338.771 26.2778 335.89 26.2778C332.848 26.2778 330.43 26.8332 328.631 27.9438C326.831 29.0347 325.643 30.4088 325.06 32.0692L309.432 31.0208C310.222 27.9665 311.784 25.3258 314.113 23.1017C316.441 20.8548 319.442 19.1322 323.116 17.9308C326.818 16.7097 331.103 16.0977 335.969 16.0977C339.351 16.0977 342.593 16.4263 345.687 17.0808C348.648 17.6773 351.456 18.708 353.976 20.1238C356.386 21.4795 358.36 23.2989 359.727 25.425C361.128 27.5642 361.829 30.1283 361.829 33.1147V67.0183H345.803V60.0483H345.329C344.346 61.623 343.013 63.0318 341.401 64.202C339.661 65.4281 337.656 66.372 335.492 66.9843C333.191 67.6388 330.533 67.9647 327.518 67.9647ZM332.36 58.3455C334.843 58.3455 337.037 57.9403 338.943 57.1357C340.845 56.3055 342.342 55.192 343.424 53.798C344.516 52.3811 345.082 50.7313 345.051 49.0522V43.717C344.523 44.0003 343.795 44.2638 342.867 44.5018C341.971 44.72 340.951 44.9268 339.815 45.1252C338.678 45.3008 337.542 45.4652 336.405 45.6153L333.311 45.9752C331.526 46.1704 329.778 46.5551 328.112 47.1198C326.636 47.644 325.482 48.3523 324.665 49.2477C323.841 50.1203 323.432 51.2112 323.432 52.5202C323.432 54.4185 324.266 55.8692 325.932 56.8722C327.625 57.8553 329.771 58.3455 332.36 58.3455Z" fill="black"/>
<path d="M414.459 31.086L398.99 31.8708C398.729 30.7862 398.142 29.7729 397.283 28.9242C396.357 27.997 395.173 27.268 393.832 26.7992C392.431 26.2552 390.752 25.9803 388.795 25.9803C386.178 25.9803 383.97 26.4393 382.171 27.3545C380.375 28.2498 379.475 29.4512 379.475 30.9528C379.475 32.1542 380.055 33.1685 381.219 33.9987C382.384 34.8288 384.379 35.4918 387.208 35.9933L398.238 37.8265C404.161 38.8295 408.577 40.4445 411.485 42.6715C414.394 44.8957 415.846 47.8197 415.846 51.4407C415.846 54.7358 414.672 57.6258 412.316 60.1107C409.988 62.5983 406.791 64.542 402.719 65.936C398.674 67.313 394.004 67.9987 388.716 67.9987C380.653 67.9987 374.225 66.6132 369.438 63.8422C364.679 61.0513 361.891 57.2547 361.07 52.455L377.69 51.7353C378.191 53.764 379.41 55.3138 381.34 56.382C383.269 57.4303 385.742 57.9517 388.757 57.9517C391.717 57.9517 394.096 57.4842 395.896 56.5463C397.719 55.583 398.646 54.3533 398.674 52.8488C398.646 51.5823 397.997 50.5453 396.73 49.7378C395.46 48.9105 393.502 48.2787 390.858 47.8395L380.306 46.1055C374.359 45.1252 369.929 43.4223 367.021 41.0027C364.136 38.5802 362.697 35.4918 362.697 31.7405C362.697 28.5105 363.755 25.731 365.87 23.3963C368.013 21.0617 371.014 19.2597 374.874 17.996C378.761 16.7323 383.307 16.0977 388.52 16.0977C396.212 16.0977 402.269 17.4407 406.685 20.1238C411.128 22.807 413.717 26.4592 414.459 31.086Z" fill="black"/>
<path d="M432.689 67.9647C428.802 67.9647 425.341 67.4093 422.298 66.2958C419.36 65.233 416.854 63.495 415.08 61.2893C413.333 59.0652 412.46 56.2942 412.46 52.9792C412.46 50.1855 413.082 47.8395 414.325 45.944C415.522 44.0874 417.269 42.5112 419.404 41.3625C421.648 40.1693 424.112 39.2851 426.701 38.7445C429.538 38.1417 432.429 37.7248 435.347 37.4978C438.209 37.2611 441.066 36.9777 443.914 36.6478C446.084 36.3645 447.657 35.9508 448.636 35.4068C449.614 34.86 450.102 34.0525 450.102 32.9843V32.786C450.102 30.7177 449.309 29.1112 447.722 27.9778C446.163 26.8445 443.942 26.2778 441.061 26.2778C438.018 26.2778 435.598 26.8332 433.802 27.9438C432.002 29.0347 430.814 30.4088 430.23 32.0692L414.603 31.0208C415.396 27.9665 416.955 25.3258 419.283 23.1017C421.612 20.8548 424.613 19.1322 428.287 17.9308C431.989 16.7097 436.274 16.0977 441.14 16.0977C444.522 16.0977 447.764 16.4263 450.857 17.0808C453.819 17.6773 456.627 18.708 459.147 20.1238C461.558 21.4787 463.532 23.2983 464.898 25.425C466.299 27.5642 467 30.1283 467 33.1147V67.0183H450.974V60.0483H450.5C449.517 61.6233 448.185 63.0322 446.572 64.202C444.832 65.4283 442.827 66.3723 440.662 66.9843C438.362 67.6388 435.704 67.9647 432.689 67.9647ZM437.531 58.3455C440.013 58.3455 442.211 57.9403 444.113 57.1357C446.016 56.3055 447.513 55.192 448.595 53.798C449.687 52.3811 450.253 50.7313 450.222 49.0522V43.717C449.541 44.0571 448.807 44.321 448.042 44.5018C447.142 44.72 446.122 44.9268 444.986 45.1252C443.849 45.3008 442.712 45.4652 441.576 45.6153L438.482 45.9752C436.698 46.1703 434.951 46.555 433.287 47.1198C431.803 47.644 430.653 48.3523 429.836 49.2477C429.015 50.1203 428.606 51.2112 428.606 52.5202C428.606 54.4185 429.437 55.8692 431.103 56.8722C432.796 57.8553 434.938 58.3455 437.531 58.3455Z" fill="black"/>
</g>
<defs>
<clipPath id="clip0_970_20819">
<rect width="467" height="68" fill="white"/>
</clipPath>
</defs>
</svg>
