<svg width="645" height="112" viewBox="0 0 645 112" fill="none" xmlns="http://www.w3.org/2000/svg">
<path d="M51.36 80.64C47.6907 80.64 44.2987 80.0853 41.184 78.976C38.0693 77.8667 35.3387 76.288 32.992 74.24C30.6453 72.1493 28.832 69.696 27.552 66.88C26.272 64.0213 25.632 60.864 25.632 57.408C25.632 54.0373 26.2933 50.944 27.616 48.128C28.9813 45.312 30.816 42.8587 33.12 40.768C35.4667 38.6773 38.1973 37.0773 41.312 35.968C44.4693 34.8587 47.8613 34.304 51.488 34.304C54.0053 34.304 56.4587 34.6027 58.848 35.2C61.2373 35.7973 63.4347 36.6293 65.44 37.696C67.488 38.7627 69.216 39.9787 70.624 41.344L64.224 49.536C63.1573 48.5547 61.9627 47.68 60.64 46.912C59.36 46.1013 57.9307 45.4827 56.352 45.056C54.7733 44.5867 53.0027 44.352 51.04 44.352C49.2053 44.352 47.4347 44.6507 45.728 45.248C44.064 45.8453 42.5493 46.6987 41.184 47.808C39.8613 48.9173 38.7947 50.304 37.984 51.968C37.216 53.5893 36.832 55.4453 36.832 57.536C36.832 59.584 37.2373 61.44 38.048 63.104C38.8587 64.7253 39.968 66.112 41.376 67.264C42.8267 68.3733 44.4693 69.2267 46.304 69.824C48.1813 70.3787 50.1653 70.656 52.256 70.656C54.2613 70.656 56.0533 70.4 57.632 69.888C59.2107 69.3333 60.64 68.6507 61.92 67.84C63.2 66.9867 64.3307 66.176 65.312 65.408L70.496 73.792C69.3013 74.9013 67.7013 75.9893 65.696 77.056C63.7333 78.08 61.5147 78.9333 59.04 79.616C56.608 80.2987 54.048 80.64 51.36 80.64ZM104.434 80.64C100.594 80.64 97.074 80.064 93.874 78.912C90.7167 77.7173 87.9647 76.0747 85.618 73.984C83.314 71.8933 81.522 69.44 80.242 66.624C78.962 63.7653 78.322 60.6933 78.322 57.408C78.322 54.08 78.962 51.008 80.242 48.192C81.522 45.376 83.3353 42.9227 85.682 40.832C88.0287 38.7413 90.7807 37.12 93.938 35.968C97.0953 34.7733 100.573 34.176 104.37 34.176C108.21 34.176 111.709 34.752 114.866 35.904C118.066 37.056 120.818 38.6987 123.122 40.832C125.469 42.9227 127.261 45.376 128.498 48.192C129.778 51.008 130.418 54.08 130.418 57.408C130.418 60.736 129.778 63.808 128.498 66.624C127.261 69.44 125.469 71.9147 123.122 74.048C120.818 76.1387 118.066 77.76 114.866 78.912C111.709 80.064 108.231 80.64 104.434 80.64ZM104.434 70.4C106.61 70.4 108.615 70.08 110.45 69.44C112.285 68.7573 113.863 67.84 115.186 66.688C116.509 65.4933 117.533 64.1067 118.258 62.528C118.983 60.9493 119.346 59.2427 119.346 57.408C119.346 55.5733 118.983 53.8667 118.258 52.288C117.533 50.7093 116.509 49.344 115.186 48.192C113.863 46.9973 112.263 46.08 110.386 45.44C108.551 44.7573 106.567 44.416 104.434 44.416C102.258 44.416 100.253 44.7573 98.418 45.44C96.5833 46.08 94.9833 46.976 93.618 48.128C92.2527 49.28 91.2073 50.6667 90.482 52.288C89.7993 53.8667 89.458 55.5733 89.458 57.408C89.458 59.2427 89.7993 60.9707 90.482 62.592C91.2073 64.1707 92.2527 65.536 93.618 66.688C94.9833 67.84 96.5833 68.7573 98.418 69.44C100.253 70.08 102.258 70.4 104.434 70.4ZM142.207 80V35.2H151.935L170.559 61.056L164.031 60.992L182.719 35.2H192.319V80H181.759V65.664C181.759 61.9947 181.845 58.624 182.015 55.552C182.186 52.4373 182.528 49.3013 183.04 46.144L184.127 49.664L169.279 69.12H165.055L150.271 49.6L151.487 46.144C151.999 49.216 152.341 52.288 152.511 55.36C152.682 58.432 152.767 61.8667 152.767 65.664V80H142.207ZM207.343 80V70.592H217.391V44.608H207.343V35.2H238.383V44.608H228.271V70.592H238.383V80H207.343ZM253.462 80V35.2H263.574L292.054 67.2L290.326 66.88C290.07 65.344 289.878 63.8933 289.75 62.528C289.622 61.12 289.494 59.7547 289.366 58.432C289.281 57.1093 289.196 55.808 289.11 54.528C289.068 53.248 289.046 51.9253 289.046 50.56C289.046 49.1947 289.046 47.7653 289.046 46.272V35.2H299.606V80H289.366L259.862 46.976L262.742 47.424C262.913 48.6613 263.062 49.8347 263.19 50.944C263.318 52.0107 263.425 53.0773 263.51 54.144C263.638 55.2107 263.745 56.2987 263.83 57.408C263.916 58.4747 263.958 59.648 263.958 60.928C264.001 62.1653 264.022 63.5307 264.022 65.024V80H253.462ZM336.868 80.64C333.156 80.64 329.721 80.128 326.564 79.104C323.449 78.0373 320.761 76.5227 318.5 74.56C316.239 72.5547 314.468 70.1013 313.188 67.2C311.951 64.2987 311.332 61.0347 311.332 57.408C311.332 54.08 311.993 51.0293 313.316 48.256C314.639 45.44 316.495 42.9867 318.884 40.896C321.273 38.8053 324.089 37.184 327.332 36.032C330.617 34.88 334.18 34.304 338.02 34.304C341.049 34.304 343.823 34.6453 346.34 35.328C348.9 36.0107 351.161 36.9067 353.124 38.016C355.129 39.1253 356.772 40.3627 358.052 41.728L351.46 48.896C350.265 47.9147 348.985 47.0613 347.62 46.336C346.255 45.6107 344.761 45.0347 343.14 44.608C341.561 44.1387 339.833 43.904 337.956 43.904C335.78 43.904 333.753 44.2453 331.876 44.928C330.041 45.6107 328.42 46.5707 327.012 47.808C325.647 49.0027 324.58 50.432 323.812 52.096C323.087 53.7173 322.724 55.488 322.724 57.408C322.724 59.6693 323.129 61.6533 323.94 63.36C324.751 65.0667 325.86 66.496 327.268 67.648C328.676 68.7573 330.297 69.6107 332.132 70.208C333.967 70.7627 335.929 71.04 338.02 71.04C339.855 71.04 341.561 70.8267 343.14 70.4C344.761 69.9733 346.148 69.3973 347.3 68.672C348.452 67.904 349.348 67.008 349.988 65.984C350.671 64.96 351.012 63.8293 351.012 62.592V61.184L352.484 63.616H337.06V55.232H361.316C361.401 55.7867 361.465 56.448 361.508 57.216C361.551 57.984 361.572 58.7093 361.572 59.392C361.615 60.032 361.636 60.48 361.636 60.736C361.636 63.8507 361.039 66.6453 359.844 69.12C358.649 71.5947 356.943 73.6853 354.724 75.392C352.548 77.056 349.945 78.3573 346.916 79.296C343.887 80.192 340.537 80.64 336.868 80.64ZM416.263 80.64C412.935 80.64 409.885 80.2987 407.111 79.616C404.381 78.9333 401.927 77.9947 399.751 76.8C397.575 75.6053 395.613 74.176 393.863 72.512L399.559 64.32C402.418 67.008 405.298 68.8853 408.199 69.952C411.143 70.976 414.045 71.488 416.903 71.488C418.226 71.488 419.506 71.3387 420.743 71.04C422.023 70.7413 423.069 70.272 423.879 69.632C424.733 68.992 425.159 68.1387 425.159 67.072C425.159 66.3893 424.946 65.8133 424.519 65.344C424.093 64.832 423.517 64.4053 422.791 64.064C422.066 63.68 421.213 63.3813 420.231 63.168C419.293 62.9547 418.269 62.7627 417.159 62.592C416.05 62.4213 414.898 62.2507 413.703 62.08C410.973 61.696 408.519 61.1413 406.343 60.416C404.21 59.648 402.375 58.7093 400.839 57.6C399.346 56.448 398.215 55.104 397.447 53.568C396.679 52.032 396.295 50.2613 396.295 48.256C396.295 46.08 396.807 44.1173 397.831 42.368C398.855 40.6187 400.285 39.1467 402.119 37.952C403.954 36.7147 406.045 35.776 408.391 35.136C410.781 34.496 413.341 34.176 416.071 34.176C419.143 34.176 421.853 34.4747 424.199 35.072C426.589 35.6693 428.679 36.5013 430.471 37.568C432.263 38.6347 433.757 39.8293 434.951 41.152L429.063 48.256C427.954 47.232 426.674 46.3573 425.223 45.632C423.815 44.9067 422.322 44.352 420.743 43.968C419.165 43.584 417.586 43.392 416.007 43.392C414.343 43.392 412.893 43.5627 411.655 43.904C410.418 44.2027 409.437 44.6507 408.711 45.248C407.986 45.8453 407.623 46.6133 407.623 47.552C407.623 48.32 407.922 48.9813 408.519 49.536C409.159 50.0907 409.97 50.56 410.951 50.944C411.933 51.2853 413.021 51.5627 414.215 51.776C415.453 51.9893 416.669 52.1813 417.863 52.352C420.338 52.6933 422.685 53.1627 424.903 53.76C427.165 54.3147 429.149 55.0827 430.855 56.064C432.605 57.0453 433.949 58.3253 434.887 59.904C435.869 61.44 436.359 63.424 436.359 65.856C436.359 68.9707 435.485 71.6373 433.735 73.856C432.029 76.032 429.661 77.7173 426.631 78.912C423.645 80.064 420.189 80.64 416.263 80.64ZM470.701 80.64C466.861 80.64 463.341 80.064 460.141 78.912C456.984 77.7173 454.232 76.0747 451.885 73.984C449.581 71.8933 447.789 69.44 446.509 66.624C445.229 63.7653 444.589 60.6933 444.589 57.408C444.589 54.08 445.229 51.008 446.509 48.192C447.789 45.376 449.603 42.9227 451.949 40.832C454.296 38.7413 457.048 37.12 460.205 35.968C463.363 34.7733 466.84 34.176 470.637 34.176C474.477 34.176 477.976 34.752 481.133 35.904C484.333 37.056 487.085 38.6987 489.389 40.832C491.736 42.9227 493.528 45.376 494.765 48.192C496.045 51.008 496.685 54.08 496.685 57.408C496.685 60.736 496.045 63.808 494.765 66.624C493.528 69.44 491.736 71.9147 489.389 74.048C487.085 76.1387 484.333 77.76 481.133 78.912C477.976 80.064 474.499 80.64 470.701 80.64ZM470.701 70.4C472.877 70.4 474.883 70.08 476.717 69.44C478.552 68.7573 480.131 67.84 481.453 66.688C482.776 65.4933 483.8 64.1067 484.525 62.528C485.251 60.9493 485.613 59.2427 485.613 57.408C485.613 55.5733 485.251 53.8667 484.525 52.288C483.8 50.7093 482.776 49.344 481.453 48.192C480.131 46.9973 478.531 46.08 476.653 45.44C474.819 44.7573 472.835 44.416 470.701 44.416C468.525 44.416 466.52 44.7573 464.685 45.44C462.851 46.08 461.251 46.976 459.885 48.128C458.52 49.28 457.475 50.6667 456.749 52.288C456.067 53.8667 455.725 55.5733 455.725 57.408C455.725 59.2427 456.067 60.9707 456.749 62.592C457.475 64.1707 458.52 65.536 459.885 66.688C461.251 67.84 462.851 68.7573 464.685 69.44C466.52 70.08 468.525 70.4 470.701 70.4ZM531.579 80.64C527.739 80.64 524.219 80.064 521.019 78.912C517.862 77.7173 515.11 76.0747 512.763 73.984C510.459 71.8933 508.667 69.44 507.387 66.624C506.107 63.7653 505.467 60.6933 505.467 57.408C505.467 54.08 506.107 51.008 507.387 48.192C508.667 45.376 510.48 42.9227 512.827 40.832C515.174 38.7413 517.926 37.12 521.083 35.968C524.24 34.7733 527.718 34.176 531.515 34.176C535.355 34.176 538.854 34.752 542.011 35.904C545.211 37.056 547.963 38.6987 550.267 40.832C552.614 42.9227 554.406 45.376 555.643 48.192C556.923 51.008 557.563 54.08 557.563 57.408C557.563 60.736 556.923 63.808 555.643 66.624C554.406 69.44 552.614 71.9147 550.267 74.048C547.963 76.1387 545.211 77.76 542.011 78.912C538.854 80.064 535.376 80.64 531.579 80.64ZM531.579 70.4C533.755 70.4 535.76 70.08 537.595 69.44C539.43 68.7573 541.008 67.84 542.331 66.688C543.654 65.4933 544.678 64.1067 545.403 62.528C546.128 60.9493 546.491 59.2427 546.491 57.408C546.491 55.5733 546.128 53.8667 545.403 52.288C544.678 50.7093 543.654 49.344 542.331 48.192C541.008 46.9973 539.408 46.08 537.531 45.44C535.696 44.7573 533.712 44.416 531.579 44.416C529.403 44.416 527.398 44.7573 525.563 45.44C523.728 46.08 522.128 46.976 520.763 48.128C519.398 49.28 518.352 50.6667 517.627 52.288C516.944 53.8667 516.603 55.5733 516.603 57.408C516.603 59.2427 516.944 60.9707 517.627 62.592C518.352 64.1707 519.398 65.536 520.763 66.688C522.128 67.84 523.728 68.7573 525.563 69.44C527.398 70.08 529.403 70.4 531.579 70.4ZM569.353 80V35.2H579.465L607.945 67.2L606.217 66.88C605.961 65.344 605.769 63.8933 605.641 62.528C605.513 61.12 605.385 59.7547 605.257 58.432C605.171 57.1093 605.086 55.808 605.001 54.528C604.958 53.248 604.937 51.9253 604.937 50.56C604.937 49.1947 604.937 47.7653 604.937 46.272V35.2H615.497V80H605.257L575.753 46.976L578.633 47.424C578.803 48.6613 578.953 49.8347 579.081 50.944C579.209 52.0107 579.315 53.0773 579.401 54.144C579.529 55.2107 579.635 56.2987 579.721 57.408C579.806 58.4747 579.849 59.648 579.849 60.928C579.891 62.1653 579.913 63.5307 579.913 65.024V80H569.353Z" fill="#0F0F0F"/>
</svg>
