<svg width="90" height="90" viewBox="0 0 90 90" fill="none" xmlns="http://www.w3.org/2000/svg">
<path id="Vector" d="M88.4891 0.020732C88.4891 0.020732 46.1195 13.5701 39.8582 15.831C17.1713 24.01 18.0634 47.313 18.0702 47.4909L18.0703 47.4919C17.8969 52.6136 22.4033 50.2959 22.4033 50.2959L62.0721 37.3382C62.0721 37.3382 75.9306 32.8081 82.1484 24.8747C88.3664 16.9412 90.1428 7.26541 89.9912 2.90564C89.8756 -0.433072 88.4891 0.020732 88.4891 0.020732ZM1.51091 89.9793C1.51091 89.9793 43.8805 76.43 50.1418 74.1689C72.9191 65.9599 71.9369 42.5162 71.9369 42.5162C72.1104 37.3945 67.6038 39.7122 67.6038 39.7122L27.9352 52.6619C27.9352 52.6619 14.0695 57.1917 7.85156 65.1254C1.63368 73.0587 -0.142861 82.7345 0.00879925 87.0943C0.124348 90.4329 1.51091 89.9793 1.51091 89.9793Z" fill="black"/>
</svg>
