<svg width="290" height="74" viewBox="0 0 290 74" fill="none" xmlns="http://www.w3.org/2000/svg">
<path d="M40.824 61.64C37.4533 61.64 34.3173 61.1067 31.416 60.04C28.5147 58.9307 25.976 57.352 23.8 55.304C21.624 53.256 19.9387 50.824 18.744 48.008C17.5493 45.1493 16.952 42.0133 16.952 38.6C16.952 35.3573 17.592 32.3493 18.872 29.576C20.152 26.8027 21.9013 24.392 24.12 22.344C26.3387 20.2533 28.8987 18.6533 31.8 17.544C34.7013 16.392 37.7947 15.816 41.08 15.816C43.64 15.816 46.1147 16.1787 48.504 16.904C50.936 17.5867 53.112 18.504 55.032 19.656C56.9947 20.808 58.5733 22.0667 59.768 23.432L55.416 28.808C54.008 27.528 52.536 26.44 51 25.544C49.464 24.6053 47.8427 23.9013 46.136 23.432C44.4293 22.92 42.616 22.664 40.696 22.664C38.52 22.664 36.4293 23.048 34.424 23.816C32.4187 24.584 30.6267 25.672 29.048 27.08C27.512 28.4453 26.2747 30.1093 25.336 32.072C24.44 34.0347 23.992 36.2107 23.992 38.6C23.992 41.16 24.44 43.4427 25.336 45.448C26.2747 47.4533 27.5547 49.16 29.176 50.568C30.84 51.9333 32.7173 52.9787 34.808 53.704C36.9413 54.4293 39.2027 54.792 41.592 54.792C43.6827 54.792 45.5813 54.536 47.288 54.024C48.9947 53.4693 50.552 52.7653 51.96 51.912C53.368 51.016 54.648 50.0987 55.8 49.16L59.192 54.856C58.0827 55.9227 56.568 56.9893 54.648 58.056C52.7707 59.08 50.6373 59.9333 48.248 60.616C45.9013 61.2987 43.4267 61.64 40.824 61.64ZM66.722 61L86.562 16.2H94.178L113.954 61H106.466L93.538 31.816C93.2393 31.2613 92.898 30.5147 92.514 29.576C92.1727 28.6373 91.7887 27.656 91.362 26.632C90.978 25.5653 90.594 24.5413 90.21 23.56C89.8687 22.536 89.57 21.6613 89.314 20.936L91.106 20.872C90.7647 21.768 90.402 22.7067 90.018 23.688C89.6767 24.6693 89.314 25.672 88.93 26.696C88.546 27.6773 88.162 28.6373 87.778 29.576C87.394 30.472 87.0313 31.304 86.69 32.072L73.89 61H66.722ZM75.426 50.248L78.05 43.592H101.922L103.842 50.248H75.426ZM124.722 61V16.2H131.314L163.698 52.872L163.058 53.448C162.845 52.2533 162.674 50.9733 162.547 49.608C162.419 48.2427 162.29 46.8133 162.162 45.32C162.077 43.784 161.992 42.2267 161.906 40.648C161.864 39.0267 161.821 37.4053 161.778 35.784C161.778 34.1627 161.778 32.5413 161.778 30.92V16.2H168.69V61H161.971L130.034 25.672L130.354 24.776C130.482 26.3547 130.61 27.848 130.738 29.256C130.866 30.6213 130.973 31.944 131.058 33.224C131.186 34.4613 131.293 35.6133 131.378 36.68C131.464 37.7467 131.528 38.7707 131.57 39.752C131.613 40.6907 131.634 41.5653 131.634 42.376V61H124.722ZM195.031 61V22.856H179.927V16.2H217.367V22.856H201.943V61H195.031ZM248.105 61.64C244.521 61.64 241.214 61.064 238.185 59.912C235.198 58.7173 232.574 57.0747 230.313 54.984C228.094 52.8933 226.366 50.4613 225.129 47.688C223.934 44.872 223.337 41.8427 223.337 38.6C223.337 35.3573 223.934 32.3493 225.129 29.576C226.366 26.76 228.094 24.3067 230.313 22.216C232.574 20.1253 235.198 18.504 238.185 17.352C241.214 16.1573 244.521 15.56 248.105 15.56C251.732 15.56 255.038 16.136 258.025 17.288C261.054 18.44 263.678 20.0827 265.897 22.216C268.158 24.3067 269.886 26.76 271.081 29.576C272.318 32.3493 272.937 35.3573 272.937 38.6C272.937 41.8427 272.318 44.872 271.081 47.688C269.886 50.4613 268.158 52.9147 265.897 55.048C263.678 57.1387 261.054 58.76 258.025 59.912C255.038 61.064 251.732 61.64 248.105 61.64ZM248.169 54.92C250.772 54.92 253.14 54.5147 255.273 53.704C257.449 52.8507 259.326 51.6987 260.905 50.248C262.484 48.7547 263.7 47.0267 264.553 45.064C265.449 43.0587 265.897 40.904 265.897 38.6C265.897 36.296 265.449 34.1627 264.553 32.2C263.7 30.1947 262.484 28.4667 260.905 27.016C259.326 25.5227 257.449 24.3707 255.273 23.56C253.097 22.7067 250.729 22.28 248.169 22.28C245.566 22.28 243.177 22.7067 241.001 23.56C238.825 24.3707 236.926 25.5013 235.305 26.952C233.726 28.4027 232.51 30.1307 231.657 32.136C230.804 34.0987 230.377 36.2533 230.377 38.6C230.377 40.904 230.804 43.0587 231.657 45.064C232.51 47.0693 233.726 48.7973 235.305 50.248C236.926 51.6987 238.825 52.8507 241.001 53.704C243.177 54.5147 245.566 54.92 248.169 54.92Z" fill="#111111"/>
<path d="M31.416 60.04L30.7017 61.9081L30.7138 61.9127L30.7259 61.9172L31.416 60.04ZM23.8 55.304L22.4293 56.7604L22.4293 56.7604L23.8 55.304ZM18.744 48.008L16.8986 48.7792L16.9028 48.7891L18.744 48.008ZM18.872 29.576L20.6879 30.4141L20.6879 30.4141L18.872 29.576ZM24.12 22.344L25.4766 23.8136L25.4841 23.8066L25.4916 23.7996L24.12 22.344ZM31.8 17.544L32.5143 19.4121L32.5262 19.4075L32.5381 19.4028L31.8 17.544ZM48.504 16.904L47.923 18.8178L47.9432 18.8239L47.9635 18.8296L48.504 16.904ZM55.032 19.656L54.003 21.371L54.0113 21.3759L54.0196 21.3808L55.032 19.656ZM59.768 23.432L61.3225 24.6904L62.3817 23.3819L61.2732 22.115L59.768 23.432ZM55.416 28.808L54.0707 30.2879L55.6378 31.7126L56.9705 30.0664L55.416 28.808ZM51 25.544L49.9571 27.2506L49.9746 27.2612L49.9923 27.2716L51 25.544ZM46.136 23.432L45.5613 25.3477L45.5834 25.3543L45.6057 25.3604L46.136 23.432ZM34.424 23.816L35.1393 25.6837L35.1393 25.6837L34.424 23.816ZM29.048 27.08L30.3767 28.5748L30.3792 28.5726L29.048 27.08ZM25.336 32.072L23.5317 31.2091L23.524 31.2252L23.5166 31.2414L25.336 32.072ZM25.336 45.448L23.51 46.2639L23.5172 46.2799L23.5246 46.2959L25.336 45.448ZM29.176 50.568L27.8646 52.0781L27.8857 52.0964L27.9074 52.1141L29.176 50.568ZM34.808 53.704L34.1524 55.5935L34.1642 55.5975L34.808 53.704ZM47.288 54.024L47.8627 55.9397L47.8845 55.9331L47.9062 55.9261L47.288 54.024ZM51.96 51.912L52.9966 53.6224L53.0153 53.6111L53.0338 53.5993L51.96 51.912ZM55.8 49.16L57.5184 48.1367L56.3329 46.1459L54.5367 47.6095L55.8 49.16ZM59.192 54.856L60.5782 56.2977L61.7229 55.197L60.9104 53.8327L59.192 54.856ZM54.648 58.056L55.6057 59.8118L55.6125 59.8081L55.6193 59.8043L54.648 58.056ZM48.248 60.616L47.6986 58.6929L47.6893 58.6956L48.248 60.616ZM40.824 59.64C37.6675 59.64 34.7673 59.1412 32.1061 58.1628L30.7259 61.9172C33.8674 63.0721 37.2392 63.64 40.824 63.64V59.64ZM32.1303 58.1719C29.4627 57.1519 27.1493 55.7098 25.1707 53.8476L22.4293 56.7604C24.8027 58.9942 27.5666 60.7094 30.7017 61.9081L32.1303 58.1719ZM25.1707 53.8476C23.2015 51.9942 21.6742 49.7938 20.5852 47.2269L16.9028 48.7891C18.2032 51.8542 20.0465 54.5178 22.4293 56.7604L25.1707 53.8476ZM20.5893 47.2368C19.5067 44.6462 18.952 41.7756 18.952 38.6H14.952C14.952 42.2511 15.592 45.6525 16.8987 48.7792L20.5893 47.2368ZM18.952 38.6C18.952 35.6285 19.5366 32.9087 20.6879 30.4141L17.0561 28.7379C15.6474 31.79 14.952 35.0861 14.952 38.6H18.952ZM20.6879 30.4141C21.8591 27.8766 23.4533 25.6812 25.4766 23.8136L22.7634 20.8744C20.3494 23.1028 18.4449 25.7288 17.0561 28.7379L20.6879 30.4141ZM25.4916 23.7996C27.5165 21.8915 29.8522 20.43 32.5143 19.4121L31.0857 15.6759C27.9452 16.8767 25.1608 18.6152 22.7484 20.8884L25.4916 23.7996ZM32.5381 19.4028C35.1923 18.3489 38.034 17.816 41.08 17.816V13.816C37.5554 13.816 34.2103 14.4351 31.0619 15.6852L32.5381 19.4028ZM41.08 17.816C43.4482 17.816 45.7268 18.151 47.923 18.8178L49.085 14.9902C46.5025 14.2063 43.8318 13.816 41.08 13.816V17.816ZM47.9635 18.8296C50.2456 19.4702 52.2538 20.3215 54.003 21.371L56.061 17.941C53.9702 16.6865 51.6264 15.7032 49.0445 14.9784L47.9635 18.8296ZM54.0196 21.3808C55.8422 22.4506 57.2402 23.5802 58.2628 24.749L61.2732 22.115C59.9065 20.5531 58.1471 19.1654 56.0444 17.9312L54.0196 21.3808ZM58.2135 22.1736L53.8615 27.5496L56.9705 30.0664L61.3225 24.6904L58.2135 22.1736ZM56.7613 27.3281C55.257 25.9605 53.6727 24.7877 52.0077 23.8164L49.9923 27.2716C51.3993 28.0923 52.759 29.0955 54.0707 30.2879L56.7613 27.3281ZM52.0429 23.8374C50.35 22.8029 48.5565 22.0234 46.6663 21.5036L45.6057 25.3604C47.1289 25.7793 48.578 26.4078 49.9571 27.2506L52.0429 23.8374ZM46.7107 21.5163C44.8037 20.9442 42.7956 20.664 40.696 20.664V24.664C42.4364 24.664 44.055 24.8957 45.5613 25.3477L46.7107 21.5163ZM40.696 20.664C38.2788 20.664 35.9455 21.0917 33.7087 21.9483L35.1393 25.6837C36.9132 25.0043 38.7612 24.664 40.696 24.664V20.664ZM33.7087 21.9483C31.4805 22.8016 29.4791 24.0156 27.7168 25.5874L30.3792 28.5726C31.7742 27.3284 33.3568 26.3664 35.1393 25.6837L33.7087 21.9483ZM27.7193 25.5852C25.9728 27.1376 24.5784 29.0205 23.5317 31.2091L27.1403 32.9349C27.9709 31.1981 29.0512 29.753 30.3767 28.5748L27.7193 25.5852ZM23.5166 31.2414C22.4894 33.4916 21.992 35.9551 21.992 38.6H25.992C25.992 36.4662 26.3906 34.5777 27.1554 32.9026L23.5166 31.2414ZM21.992 38.6C21.992 41.395 22.4818 43.9628 23.51 46.2639L27.162 44.6321C26.3982 42.9225 25.992 40.925 25.992 38.6H21.992ZM23.5246 46.2959C24.5781 48.5464 26.0255 50.481 27.8646 52.0781L30.4874 49.0579C29.0838 47.839 27.9713 46.3603 27.1474 44.6001L23.5246 46.2959ZM27.9074 52.1141C29.759 53.6334 31.8451 54.793 34.1525 55.5935L35.4635 51.8145C33.5895 51.1643 31.921 50.2332 30.4446 49.0219L27.9074 52.1141ZM34.1642 55.5975C36.5171 56.3975 38.997 56.792 41.592 56.792V52.792C39.4084 52.792 37.3656 52.4611 35.4518 51.8105L34.1642 55.5975ZM41.592 56.792C43.8445 56.792 45.9406 56.5163 47.8627 55.9397L46.7133 52.1083C45.2221 52.5557 43.5208 52.792 41.592 52.792V56.792ZM47.9062 55.9261C49.7462 55.3281 51.4458 54.5623 52.9966 53.6224L50.9234 50.2016C49.6582 50.9684 48.2431 51.6106 46.6698 52.1219L47.9062 55.9261ZM53.0338 53.5993C54.4997 52.6665 55.844 51.704 57.0633 50.7105L54.5367 47.6095C53.452 48.4934 52.2363 49.3655 50.8863 50.2247L53.0338 53.5993ZM54.0816 50.1833L57.4736 55.8793L60.9104 53.8327L57.5184 48.1367L54.0816 50.1833ZM57.8058 53.4143C56.8614 54.3224 55.5043 55.2924 53.6767 56.3077L55.6193 59.8043C57.6317 58.6863 59.3039 57.5229 60.5782 56.2977L57.8058 53.4143ZM53.6903 56.3002C51.9613 57.2433 49.9683 58.0445 47.6986 58.693L48.7974 62.539C51.3064 61.8222 53.58 60.9167 55.6057 59.8118L53.6903 56.3002ZM47.6893 58.6956C45.5356 59.3222 43.2499 59.64 40.824 59.64V63.64C43.6035 63.64 46.2671 63.2752 48.8067 62.5364L47.6893 58.6956ZM66.722 61L64.8933 60.1901L63.6489 63H66.722V61ZM86.562 16.2V14.2H85.2604L84.7333 15.3901L86.562 16.2ZM94.178 16.2L96.0077 15.3923L95.4813 14.2H94.178V16.2ZM113.954 61V63H117.023L115.784 60.1923L113.954 61ZM106.466 61L104.637 61.81L105.165 63H106.466V61ZM93.538 31.816L95.3666 31.006L95.3354 30.9356L95.2989 30.8678L93.538 31.816ZM92.514 29.576L90.6344 30.2595L90.6479 30.2967L90.6629 30.3333L92.514 29.576ZM91.362 26.632L89.4802 27.3094L89.4969 27.3558L89.5158 27.4012L91.362 26.632ZM90.21 23.56L88.3126 24.1925L88.3288 24.2411L88.3475 24.2888L90.21 23.56ZM89.314 20.936L89.2426 18.9373L86.5219 19.0344L87.428 21.6016L89.314 20.936ZM91.106 20.872L92.975 21.584L94.0486 18.7656L91.0346 18.8733L91.106 20.872ZM90.018 23.688L88.1555 22.9592L88.1416 22.9948L88.129 23.031L90.018 23.688ZM88.93 26.696L90.7925 27.4248L90.7977 27.4116L90.8027 27.3982L88.93 26.696ZM87.778 29.576L89.6163 30.3638L89.6228 30.3486L89.6291 30.3333L87.778 29.576ZM86.69 32.072L84.8624 31.2597L84.861 31.2627L86.69 32.072ZM73.89 61V63H75.1921L75.719 61.8093L73.89 61ZM75.426 50.248L73.5654 49.5145L72.4877 52.248H75.426V50.248ZM78.05 43.592V41.592H76.6887L76.1894 42.8585L78.05 43.592ZM101.922 43.592L103.844 43.0377L103.427 41.592H101.922V43.592ZM103.842 50.248V52.248H106.5L105.764 49.6937L103.842 50.248ZM68.5507 61.8099L88.3907 17.0098L84.7333 15.3901L64.8933 60.1901L68.5507 61.8099ZM86.562 18.2H94.178V14.2H86.562V18.2ZM92.3483 17.0077L112.124 61.8077L115.784 60.1923L96.0077 15.3923L92.3483 17.0077ZM113.954 59H106.466V63H113.954V59ZM108.295 60.19L95.3666 31.006L91.7094 32.626L104.637 61.81L108.295 60.19ZM95.2989 30.8678C95.0475 30.4008 94.7364 29.7263 94.3651 28.8187L90.6629 30.3333C91.0596 31.303 91.4312 32.1219 91.7771 32.7642L95.2989 30.8678ZM94.3936 28.8925C94.0407 27.9221 93.6454 26.912 93.2082 25.8628L89.5158 27.4012C89.932 28.4 90.3046 29.3526 90.6344 30.2595L94.3936 28.8925ZM93.2438 25.9546C92.854 24.872 92.4636 23.8308 92.0725 22.8312L88.3475 24.2888C88.7244 25.2519 89.102 26.2587 89.4802 27.3094L93.2438 25.9546ZM92.1074 22.9275C91.7637 21.8965 91.4611 21.0101 91.2 20.2704L87.428 21.6016C87.6789 22.3126 87.9737 23.1755 88.3126 24.1925L92.1074 22.9275ZM89.3854 22.9347L91.1774 22.8707L91.0346 18.8733L89.2426 18.9373L89.3854 22.9347ZM89.237 20.16C88.898 21.0499 88.5375 21.9829 88.1555 22.9592L91.8805 24.4168C92.2665 23.4304 92.6313 22.4861 92.975 21.584L89.237 20.16ZM88.129 23.031C87.7932 23.9964 87.436 24.984 87.0573 25.9938L90.8027 27.3982C91.192 26.36 91.5601 25.3423 91.907 24.345L88.129 23.031ZM87.0675 25.9672C86.6871 26.9394 86.3069 27.8899 85.9269 28.8187L89.6291 30.3333C90.0171 29.3848 90.4049 28.4153 90.7925 27.4248L87.0675 25.9672ZM85.9397 28.7882C85.5587 29.6772 85.1996 30.501 84.8624 31.2597L88.5176 32.8843C88.8631 32.107 89.2293 31.2668 89.6163 30.3638L85.9397 28.7882ZM84.861 31.2627L72.061 60.1907L75.719 61.8093L88.519 32.8813L84.861 31.2627ZM73.89 59H66.722V63H73.89V59ZM77.2866 50.9815L79.9106 44.3255L76.1894 42.8585L73.5654 49.5145L77.2866 50.9815ZM78.05 45.592H101.922V41.592H78.05V45.592ZM100 44.1463L101.92 50.8023L105.764 49.6937L103.844 43.0377L100 44.1463ZM103.842 48.248H75.426V52.248H103.842V48.248ZM124.722 61H122.722V63H124.722V61ZM124.722 16.2V14.2H122.722V16.2H124.722ZM131.314 16.2L132.814 14.8761L132.217 14.2H131.314V16.2ZM163.698 52.872L165.036 54.3586L166.509 53.0332L165.198 51.5482L163.698 52.872ZM163.058 53.448L161.09 53.7996L161.722 57.3415L164.396 54.9346L163.058 53.448ZM162.547 49.608L164.538 49.4213L164.538 49.4213L162.547 49.608ZM162.162 45.32L160.166 45.4309L160.167 45.4609L160.17 45.4908L162.162 45.32ZM161.906 40.648L159.907 40.7006L159.908 40.7283L159.909 40.756L161.906 40.648ZM161.778 35.784H159.778V35.8103L159.779 35.8366L161.778 35.784ZM161.778 16.2V14.2H159.778V16.2H161.778ZM168.69 16.2H170.69V14.2H168.69V16.2ZM168.69 61V63H170.69V61H168.69ZM161.971 61L160.487 62.3412L161.082 63H161.971V61ZM130.034 25.672L128.151 24.9993L127.749 26.1258L128.551 27.0132L130.034 25.672ZM130.354 24.776L132.348 24.6144L128.471 24.1033L130.354 24.776ZM130.738 29.256L128.747 29.4371L128.747 29.4427L130.738 29.256ZM131.058 33.224L129.063 33.357L129.065 33.3935L129.069 33.4298L131.058 33.224ZM131.378 36.68L129.385 36.8395L131.378 36.68ZM131.57 39.752L129.572 39.8389L129.573 39.8428L131.57 39.752ZM131.634 61V63H133.634V61H131.634ZM126.722 61V16.2H122.722V61H126.722ZM124.722 18.2H131.314V14.2H124.722V18.2ZM129.815 17.5238L162.199 54.1958L165.198 51.5482L132.814 14.8761L129.815 17.5238ZM162.361 51.3854L161.721 51.9614L164.396 54.9346L165.036 54.3586L162.361 51.3854ZM165.027 53.0964C164.825 51.9629 164.661 50.7384 164.538 49.4213L160.555 49.7947C160.688 51.2083 160.865 52.5438 161.09 53.7996L165.027 53.0964ZM164.538 49.4213C164.41 48.0617 164.283 46.6377 164.155 45.1492L160.17 45.4908C160.298 46.989 160.427 48.4236 160.555 49.7947L164.538 49.4213ZM164.159 45.2091C164.074 43.6741 163.989 42.1177 163.904 40.54L159.909 40.756C159.995 42.3356 160.08 43.8939 160.166 45.4309L164.159 45.2091ZM163.906 40.5954C163.863 38.9741 163.82 37.3527 163.778 35.7314L159.779 35.8366C159.822 37.4579 159.865 39.0793 159.907 40.7006L163.906 40.5954ZM163.778 35.784C163.778 35.7808 163.778 35.7777 163.778 35.7745C163.778 35.7713 163.778 35.7682 163.778 35.765C163.778 35.7618 163.778 35.7587 163.778 35.7555C163.778 35.7523 163.778 35.7492 163.778 35.746C163.778 35.7428 163.778 35.7397 163.778 35.7365C163.778 35.7333 163.778 35.7302 163.778 35.727C163.778 35.7238 163.778 35.7207 163.778 35.7175C163.778 35.7143 163.778 35.7112 163.778 35.708C163.778 35.7048 163.778 35.7017 163.778 35.6985C163.778 35.6953 163.778 35.6922 163.778 35.689C163.778 35.6858 163.778 35.6827 163.778 35.6795C163.778 35.6763 163.778 35.6732 163.778 35.67C163.778 35.6668 163.778 35.6637 163.778 35.6605C163.778 35.6573 163.778 35.6542 163.778 35.651C163.778 35.6478 163.778 35.6447 163.778 35.6415C163.778 35.6383 163.778 35.6352 163.778 35.632C163.778 35.6288 163.778 35.6257 163.778 35.6225C163.778 35.6193 163.778 35.6162 163.778 35.613C163.778 35.6098 163.778 35.6067 163.778 35.6035C163.778 35.6003 163.778 35.5972 163.778 35.594C163.778 35.5908 163.778 35.5877 163.778 35.5845C163.778 35.5813 163.778 35.5782 163.778 35.575C163.778 35.5718 163.778 35.5687 163.778 35.5655C163.778 35.5623 163.778 35.5592 163.778 35.556C163.778 35.5528 163.778 35.5497 163.778 35.5465C163.778 35.5433 163.778 35.5402 163.778 35.537C163.778 35.5338 163.778 35.5307 163.778 35.5275C163.778 35.5243 163.778 35.5212 163.778 35.518C163.778 35.5148 163.778 35.5117 163.778 35.5085C163.778 35.5053 163.778 35.5022 163.778 35.499C163.778 35.4958 163.778 35.4927 163.778 35.4895C163.778 35.4863 163.778 35.4832 163.778 35.48C163.778 35.4768 163.778 35.4737 163.778 35.4705C163.778 35.4673 163.778 35.4642 163.778 35.461C163.778 35.4578 163.778 35.4547 163.778 35.4515C163.778 35.4483 163.778 35.4452 163.778 35.442C163.778 35.4388 163.778 35.4357 163.778 35.4325C163.778 35.4293 163.778 35.4262 163.778 35.423C163.778 35.4198 163.778 35.4167 163.778 35.4135C163.778 35.4103 163.778 35.4072 163.778 35.404C163.778 35.4008 163.778 35.3977 163.778 35.3945C163.778 35.3913 163.778 35.3882 163.778 35.385C163.778 35.3818 163.778 35.3787 163.778 35.3755C163.778 35.3723 163.778 35.3692 163.778 35.366C163.778 35.3628 163.778 35.3597 163.778 35.3565C163.778 35.3533 163.778 35.3502 163.778 35.347C163.778 35.3438 163.778 35.3407 163.778 35.3375C163.778 35.3343 163.778 35.3312 163.778 35.328C163.778 35.3248 163.778 35.3217 163.778 35.3185C163.778 35.3153 163.778 35.3122 163.778 35.309C163.778 35.3058 163.778 35.3027 163.778 35.2995C163.778 35.2963 163.778 35.2932 163.778 35.29C163.778 35.2868 163.778 35.2837 163.778 35.2805C163.778 35.2773 163.778 35.2742 163.778 35.271C163.778 35.2678 163.778 35.2647 163.778 35.2615C163.778 35.2583 163.778 35.2552 163.778 35.252C163.778 35.2488 163.778 35.2457 163.778 35.2425C163.778 35.2393 163.778 35.2362 163.778 35.233C163.778 35.2298 163.778 35.2267 163.778 35.2235C163.778 35.2203 163.778 35.2172 163.778 35.214C163.778 35.2108 163.778 35.2077 163.778 35.2045C163.778 35.2013 163.778 35.1982 163.778 35.195C163.778 35.1918 163.778 35.1887 163.778 35.1855C163.778 35.1823 163.778 35.1792 163.778 35.176C163.778 35.1728 163.778 35.1697 163.778 35.1665C163.778 35.1633 163.778 35.1602 163.778 35.157C163.778 35.1538 163.778 35.1507 163.778 35.1475C163.778 35.1443 163.778 35.1412 163.778 35.138C163.778 35.1348 163.778 35.1317 163.778 35.1285C163.778 35.1253 163.778 35.1222 163.778 35.119C163.778 35.1158 163.778 35.1127 163.778 35.1095C163.778 35.1063 163.778 35.1032 163.778 35.1C163.778 35.0968 163.778 35.0937 163.778 35.0905C163.778 35.0873 163.778 35.0842 163.778 35.081C163.778 35.0778 163.778 35.0747 163.778 35.0715C163.778 35.0683 163.778 35.0652 163.778 35.062C163.778 35.0588 163.778 35.0557 163.778 35.0525C163.778 35.0493 163.778 35.0462 163.778 35.043C163.778 35.0398 163.778 35.0367 163.778 35.0335C163.778 35.0303 163.778 35.0272 163.778 35.024C163.778 35.0208 163.778 35.0177 163.778 35.0145C163.778 35.0113 163.778 35.0082 163.778 35.005C163.778 35.0018 163.778 34.9987 163.778 34.9955C163.778 34.9923 163.778 34.9892 163.778 34.986C163.778 34.9828 163.778 34.9797 163.778 34.9765C163.778 34.9733 163.778 34.9702 163.778 34.967C163.778 34.9638 163.778 34.9607 163.778 34.9575C163.778 34.9543 163.778 34.9512 163.778 34.948C163.778 34.9448 163.778 34.9417 163.778 34.9385C163.778 34.9353 163.778 34.9322 163.778 34.929C163.778 34.9258 163.778 34.9227 163.778 34.9195C163.778 34.9163 163.778 34.9132 163.778 34.91C163.778 34.9068 163.778 34.9037 163.778 34.9005C163.778 34.8973 163.778 34.8942 163.778 34.891C163.778 34.8878 163.778 34.8847 163.778 34.8815C163.778 34.8783 163.778 34.8752 163.778 34.872C163.778 34.8688 163.778 34.8657 163.778 34.8625C163.778 34.8593 163.778 34.8562 163.778 34.853C163.778 34.8498 163.778 34.8467 163.778 34.8435C163.778 34.8403 163.778 34.8372 163.778 34.834C163.778 34.8308 163.778 34.8277 163.778 34.8245C163.778 34.8213 163.778 34.8182 163.778 34.815C163.778 34.8118 163.778 34.8087 163.778 34.8055C163.778 34.8023 163.778 34.7992 163.778 34.796C163.778 34.7928 163.778 34.7897 163.778 34.7865C163.778 34.7833 163.778 34.7802 163.778 34.777C163.778 34.7738 163.778 34.7707 163.778 34.7675C163.778 34.7643 163.778 34.7612 163.778 34.758C163.778 34.7548 163.778 34.7517 163.778 34.7485C163.778 34.7453 163.778 34.7422 163.778 34.739C163.778 34.7358 163.778 34.7327 163.778 34.7295C163.778 34.7263 163.778 34.7232 163.778 34.72C163.778 34.7168 163.778 34.7137 163.778 34.7105C163.778 34.7073 163.778 34.7042 163.778 34.701C163.778 34.6978 163.778 34.6947 163.778 34.6915C163.778 34.6883 163.778 34.6852 163.778 34.682C163.778 34.6788 163.778 34.6757 163.778 34.6725C163.778 34.6693 163.778 34.6662 163.778 34.663C163.778 34.6598 163.778 34.6567 163.778 34.6535C163.778 34.6503 163.778 34.6472 163.778 34.644C163.778 34.6408 163.778 34.6377 163.778 34.6345C163.778 34.6313 163.778 34.6282 163.778 34.625C163.778 34.6218 163.778 34.6187 163.778 34.6155C163.778 34.6123 163.778 34.6092 163.778 34.606C163.778 34.6028 163.778 34.5997 163.778 34.5965C163.778 34.5933 163.778 34.5902 163.778 34.587C163.778 34.5838 163.778 34.5807 163.778 34.5775C163.778 34.5743 163.778 34.5712 163.778 34.568C163.778 34.5648 163.778 34.5617 163.778 34.5585C163.778 34.5553 163.778 34.5522 163.778 34.549C163.778 34.5458 163.778 34.5427 163.778 34.5395C163.778 34.5363 163.778 34.5332 163.778 34.53C163.778 34.5268 163.778 34.5237 163.778 34.5205C163.778 34.5173 163.778 34.5142 163.778 34.511C163.778 34.5078 163.778 34.5047 163.778 34.5015C163.778 34.4983 163.778 34.4952 163.778 34.492C163.778 34.4888 163.778 34.4857 163.778 34.4825C163.778 34.4793 163.778 34.4762 163.778 34.473C163.778 34.4698 163.778 34.4667 163.778 34.4635C163.778 34.4603 163.778 34.4572 163.778 34.454C163.778 34.4508 163.778 34.4477 163.778 34.4445C163.778 34.4413 163.778 34.4382 163.778 34.435C163.778 34.4318 163.778 34.4287 163.778 34.4255C163.778 34.4223 163.778 34.4192 163.778 34.416C163.778 34.4128 163.778 34.4097 163.778 34.4065C163.778 34.4033 163.778 34.4002 163.778 34.397C163.778 34.3938 163.778 34.3907 163.778 34.3875C163.778 34.3843 163.778 34.3812 163.778 34.378C163.778 34.3748 163.778 34.3717 163.778 34.3685C163.778 34.3653 163.778 34.3622 163.778 34.359C163.778 34.3558 163.778 34.3527 163.778 34.3495C163.778 34.3463 163.778 34.3432 163.778 34.34C163.778 34.3368 163.778 34.3337 163.778 34.3305C163.778 34.3273 163.778 34.3242 163.778 34.321C163.778 34.3178 163.778 34.3147 163.778 34.3115C163.778 34.3083 163.778 34.3052 163.778 34.302C163.778 34.2988 163.778 34.2957 163.778 34.2925C163.778 34.2893 163.778 34.2862 163.778 34.283C163.778 34.2798 163.778 34.2767 163.778 34.2735C163.778 34.2703 163.778 34.2672 163.778 34.264C163.778 34.2608 163.778 34.2577 163.778 34.2545C163.778 34.2513 163.778 34.2482 163.778 34.245C163.778 34.2418 163.778 34.2387 163.778 34.2355C163.778 34.2323 163.778 34.2292 163.778 34.226C163.778 34.2228 163.778 34.2197 163.778 34.2165C163.778 34.2133 163.778 34.2102 163.778 34.207C163.778 34.2038 163.778 34.2007 163.778 34.1975C163.778 34.1943 163.778 34.1912 163.778 34.188C163.778 34.1848 163.778 34.1817 163.778 34.1785C163.778 34.1753 163.778 34.1722 163.778 34.169C163.778 34.1658 163.778 34.1627 163.778 34.1595C163.778 34.1563 163.778 34.1532 163.778 34.15C163.778 34.1468 163.778 34.1437 163.778 34.1405C163.778 34.1373 163.778 34.1342 163.778 34.131C163.778 34.1278 163.778 34.1247 163.778 34.1215C163.778 34.1183 163.778 34.1152 163.778 34.112C163.778 34.1088 163.778 34.1057 163.778 34.1025C163.778 34.0993 163.778 34.0962 163.778 34.093C163.778 34.0898 163.778 34.0867 163.778 34.0835C163.778 34.0803 163.778 34.0772 163.778 34.074C163.778 34.0708 163.778 34.0677 163.778 34.0645C163.778 34.0613 163.778 34.0582 163.778 34.055C163.778 34.0518 163.778 34.0487 163.778 34.0455C163.778 34.0423 163.778 34.0392 163.778 34.036C163.778 34.0328 163.778 34.0297 163.778 34.0265C163.778 34.0233 163.778 34.0202 163.778 34.017C163.778 34.0138 163.778 34.0107 163.778 34.0075C163.778 34.0043 163.778 34.0012 163.778 33.998C163.778 33.9948 163.778 33.9917 163.778 33.9885C163.778 33.9853 163.778 33.9822 163.778 33.979C163.778 33.9758 163.778 33.9727 163.778 33.9695C163.778 33.9663 163.778 33.9632 163.778 33.96C163.778 33.9568 163.778 33.9537 163.778 33.9505C163.778 33.9473 163.778 33.9442 163.778 33.941C163.778 33.9378 163.778 33.9347 163.778 33.9315C163.778 33.9283 163.778 33.9252 163.778 33.922C163.778 33.9188 163.778 33.9157 163.778 33.9125C163.778 33.9093 163.778 33.9062 163.778 33.903C163.778 33.8998 163.778 33.8967 163.778 33.8935C163.778 33.8903 163.778 33.8872 163.778 33.884C163.778 33.8808 163.778 33.8777 163.778 33.8745C163.778 33.8713 163.778 33.8682 163.778 33.865C163.778 33.8618 163.778 33.8587 163.778 33.8555C163.778 33.8523 163.778 33.8492 163.778 33.846C163.778 33.8428 163.778 33.8397 163.778 33.8365C163.778 33.8333 163.778 33.8302 163.778 33.827C163.778 33.8238 163.778 33.8207 163.778 33.8175C163.778 33.8143 163.778 33.8112 163.778 33.808C163.778 33.8048 163.778 33.8017 163.778 33.7985C163.778 33.7953 163.778 33.7922 163.778 33.789C163.778 33.7858 163.778 33.7827 163.778 33.7795C163.778 33.7763 163.778 33.7732 163.778 33.77C163.778 33.7668 163.778 33.7637 163.778 33.7605C163.778 33.7573 163.778 33.7542 163.778 33.751C163.778 33.7478 163.778 33.7447 163.778 33.7415C163.778 33.7383 163.778 33.7352 163.778 33.732C163.778 33.7288 163.778 33.7257 163.778 33.7225C163.778 33.7193 163.778 33.7162 163.778 33.713C163.778 33.7098 163.778 33.7067 163.778 33.7035C163.778 33.7003 163.778 33.6972 163.778 33.694C163.778 33.6908 163.778 33.6877 163.778 33.6845C163.778 33.6813 163.778 33.6782 163.778 33.675C163.778 33.6718 163.778 33.6687 163.778 33.6655C163.778 33.6623 163.778 33.6592 163.778 33.656C163.778 33.6528 163.778 33.6497 163.778 33.6465C163.778 33.6433 163.778 33.6402 163.778 33.637C163.778 33.6338 163.778 33.6307 163.778 33.6275C163.778 33.6243 163.778 33.6212 163.778 33.618C163.778 33.6148 163.778 33.6117 163.778 33.6085C163.778 33.6053 163.778 33.6022 163.778 33.599C163.778 33.5958 163.778 33.5927 163.778 33.5895C163.778 33.5863 163.778 33.5832 163.778 33.58C163.778 33.5768 163.778 33.5737 163.778 33.5705C163.778 33.5673 163.778 33.5642 163.778 33.561C163.778 33.5578 163.778 33.5547 163.778 33.5515C163.778 33.5483 163.778 33.5452 163.778 33.542C163.778 33.5388 163.778 33.5357 163.778 33.5325C163.778 33.5293 163.778 33.5262 163.778 33.523C163.778 33.5198 163.778 33.5167 163.778 33.5135C163.778 33.5103 163.778 33.5072 163.778 33.504C163.778 33.5008 163.778 33.4977 163.778 33.4945C163.778 33.4913 163.778 33.4882 163.778 33.485C163.778 33.4818 163.778 33.4787 163.778 33.4755C163.778 33.4723 163.778 33.4692 163.778 33.466C163.778 33.4628 163.778 33.4597 163.778 33.4565C163.778 33.4533 163.778 33.4502 163.778 33.447C163.778 33.4438 163.778 33.4407 163.778 33.4375C163.778 33.4343 163.778 33.4312 163.778 33.428C163.778 33.4248 163.778 33.4217 163.778 33.4185C163.778 33.4153 163.778 33.4122 163.778 33.409C163.778 33.4058 163.778 33.4027 163.778 33.3995C163.778 33.3963 163.778 33.3932 163.778 33.39C163.778 33.3868 163.778 33.3837 163.778 33.3805C163.778 33.3773 163.778 33.3742 163.778 33.371C163.778 33.3678 163.778 33.3647 163.778 33.3615C163.778 33.3583 163.778 33.3552 163.778 33.352C163.778 33.3488 163.778 33.3457 163.778 33.3425C163.778 33.3393 163.778 33.3362 163.778 33.333C163.778 33.3298 163.778 33.3267 163.778 33.3235C163.778 33.3203 163.778 33.3172 163.778 33.314C163.778 33.3108 163.778 33.3077 163.778 33.3045C163.778 33.3013 163.778 33.2982 163.778 33.295C163.778 33.2918 163.778 33.2887 163.778 33.2855C163.778 33.2823 163.778 33.2792 163.778 33.276C163.778 33.2728 163.778 33.2697 163.778 33.2665C163.778 33.2633 163.778 33.2602 163.778 33.257C163.778 33.2538 163.778 33.2507 163.778 33.2475C163.778 33.2443 163.778 33.2412 163.778 33.238C163.778 33.2348 163.778 33.2317 163.778 33.2285C163.778 33.2253 163.778 33.2222 163.778 33.219C163.778 33.2158 163.778 33.2127 163.778 33.2095C163.778 33.2063 163.778 33.2032 163.778 33.2C163.778 33.1968 163.778 33.1937 163.778 33.1905C163.778 33.1873 163.778 33.1842 163.778 33.181C163.778 33.1778 163.778 33.1747 163.778 33.1715C163.778 33.1683 163.778 33.1652 163.778 33.162C163.778 33.1588 163.778 33.1557 163.778 33.1525C163.778 33.1493 163.778 33.1462 163.778 33.143C163.778 33.1398 163.778 33.1367 163.778 33.1335C163.778 33.1303 163.778 33.1272 163.778 33.124C163.778 33.1208 163.778 33.1177 163.778 33.1145C163.778 33.1113 163.778 33.1082 163.778 33.105C163.778 33.1018 163.778 33.0987 163.778 33.0955C163.778 33.0923 163.778 33.0892 163.778 33.086C163.778 33.0828 163.778 33.0797 163.778 33.0765C163.778 33.0733 163.778 33.0702 163.778 33.067C163.778 33.0638 163.778 33.0607 163.778 33.0575C163.778 33.0543 163.778 33.0512 163.778 33.048C163.778 33.0448 163.778 33.0417 163.778 33.0385C163.778 33.0353 163.778 33.0322 163.778 33.029C163.778 33.0258 163.778 33.0227 163.778 33.0195C163.778 33.0163 163.778 33.0132 163.778 33.01C163.778 33.0068 163.778 33.0037 163.778 33.0005C163.778 32.9973 163.778 32.9942 163.778 32.991C163.778 32.9878 163.778 32.9847 163.778 32.9815C163.778 32.9783 163.778 32.9752 163.778 32.972C163.778 32.9688 163.778 32.9657 163.778 32.9625C163.778 32.9593 163.778 32.9562 163.778 32.953C163.778 32.9498 163.778 32.9467 163.778 32.9435C163.778 32.9403 163.778 32.9372 163.778 32.934C163.778 32.9308 163.778 32.9277 163.778 32.9245C163.778 32.9213 163.778 32.9182 163.778 32.915C163.778 32.9118 163.778 32.9087 163.778 32.9055C163.778 32.9023 163.778 32.8992 163.778 32.896C163.778 32.8928 163.778 32.8897 163.778 32.8865C163.778 32.8833 163.778 32.8802 163.778 32.877C163.778 32.8738 163.778 32.8707 163.778 32.8675C163.778 32.8643 163.778 32.8612 163.778 32.858C163.778 32.8548 163.778 32.8517 163.778 32.8485C163.778 32.8453 163.778 32.8422 163.778 32.839C163.778 32.8358 163.778 32.8327 163.778 32.8295C163.778 32.8263 163.778 32.8232 163.778 32.82C163.778 32.8168 163.778 32.8137 163.778 32.8105C163.778 32.8073 163.778 32.8042 163.778 32.801C163.778 32.7978 163.778 32.7947 163.778 32.7915C163.778 32.7883 163.778 32.7852 163.778 32.782C163.778 32.7788 163.778 32.7757 163.778 32.7725C163.778 32.7693 163.778 32.7662 163.778 32.763C163.778 32.7598 163.778 32.7567 163.778 32.7535C163.778 32.7503 163.778 32.7472 163.778 32.744C163.778 32.7408 163.778 32.7377 163.778 32.7345C163.778 32.7313 163.778 32.7282 163.778 32.725C163.778 32.7218 163.778 32.7187 163.778 32.7155C163.778 32.7123 163.778 32.7092 163.778 32.706C163.778 32.7028 163.778 32.6997 163.778 32.6965C163.778 32.6933 163.778 32.6902 163.778 32.687C163.778 32.6838 163.778 32.6807 163.778 32.6775C163.778 32.6743 163.778 32.6712 163.778 32.668C163.778 32.6648 163.778 32.6617 163.778 32.6585C163.778 32.6553 163.778 32.6522 163.778 32.649C163.778 32.6458 163.778 32.6427 163.778 32.6395C163.778 32.6363 163.778 32.6332 163.778 32.63C163.778 32.6268 163.778 32.6237 163.778 32.6205C163.778 32.6173 163.778 32.6142 163.778 32.611C163.778 32.6078 163.778 32.6047 163.778 32.6015C163.778 32.5983 163.778 32.5952 163.778 32.592C163.778 32.5888 163.778 32.5857 163.778 32.5825C163.778 32.5793 163.778 32.5762 163.778 32.573C163.778 32.5698 163.778 32.5667 163.778 32.5635C163.778 32.5603 163.778 32.5572 163.778 32.554C163.778 32.5508 163.778 32.5477 163.778 32.5445C163.778 32.5413 163.778 32.5382 163.778 32.535C163.778 32.5318 163.778 32.5287 163.778 32.5255C163.778 32.5223 163.778 32.5192 163.778 32.516C163.778 32.5128 163.778 32.5097 163.778 32.5065C163.778 32.5033 163.778 32.5002 163.778 32.497C163.778 32.4938 163.778 32.4907 163.778 32.4875C163.778 32.4843 163.778 32.4812 163.778 32.478C163.778 32.4748 163.778 32.4717 163.778 32.4685C163.778 32.4653 163.778 32.4622 163.778 32.459C163.778 32.4558 163.778 32.4527 163.778 32.4495C163.778 32.4463 163.778 32.4432 163.778 32.44C163.778 32.4368 163.778 32.4337 163.778 32.4305C163.778 32.4273 163.778 32.4242 163.778 32.421C163.778 32.4178 163.778 32.4147 163.778 32.4115C163.778 32.4083 163.778 32.4052 163.778 32.402C163.778 32.3988 163.778 32.3957 163.778 32.3925C163.778 32.3893 163.778 32.3862 163.778 32.383C163.778 32.3798 163.778 32.3767 163.778 32.3735C163.778 32.3703 163.778 32.3672 163.778 32.364C163.778 32.3608 163.778 32.3577 163.778 32.3545C163.778 32.3513 163.778 32.3482 163.778 32.345C163.778 32.3418 163.778 32.3387 163.778 32.3355C163.778 32.3323 163.778 32.3292 163.778 32.326C163.778 32.3228 163.778 32.3197 163.778 32.3165C163.778 32.3133 163.778 32.3102 163.778 32.307C163.778 32.3038 163.778 32.3007 163.778 32.2975C163.778 32.2943 163.778 32.2912 163.778 32.288C163.778 32.2848 163.778 32.2817 163.778 32.2785C163.778 32.2753 163.778 32.2722 163.778 32.269C163.778 32.2658 163.778 32.2627 163.778 32.2595C163.778 32.2563 163.778 32.2532 163.778 32.25C163.778 32.2468 163.778 32.2437 163.778 32.2405C163.778 32.2373 163.778 32.2342 163.778 32.231C163.778 32.2278 163.778 32.2247 163.778 32.2215C163.778 32.2183 163.778 32.2152 163.778 32.212C163.778 32.2088 163.778 32.2057 163.778 32.2025C163.778 32.1993 163.778 32.1962 163.778 32.193C163.778 32.1898 163.778 32.1867 163.778 32.1835C163.778 32.1803 163.778 32.1772 163.778 32.174C163.778 32.1708 163.778 32.1677 163.778 32.1645C163.778 32.1613 163.778 32.1582 163.778 32.155C163.778 32.1518 163.778 32.1487 163.778 32.1455C163.778 32.1423 163.778 32.1392 163.778 32.136C163.778 32.1328 163.778 32.1297 163.778 32.1265C163.778 32.1233 163.778 32.1202 163.778 32.117C163.778 32.1138 163.778 32.1107 163.778 32.1075C163.778 32.1043 163.778 32.1012 163.778 32.098C163.778 32.0948 163.778 32.0917 163.778 32.0885C163.778 32.0853 163.778 32.0822 163.778 32.079C163.778 32.0758 163.778 32.0727 163.778 32.0695C163.778 32.0663 163.778 32.0632 163.778 32.06C163.778 32.0568 163.778 32.0537 163.778 32.0505C163.778 32.0473 163.778 32.0442 163.778 32.041C163.778 32.0378 163.778 32.0347 163.778 32.0315C163.778 32.0283 163.778 32.0252 163.778 32.022C163.778 32.0188 163.778 32.0157 163.778 32.0125C163.778 32.0093 163.778 32.0062 163.778 32.003C163.778 31.9998 163.778 31.9967 163.778 31.9935C163.778 31.9903 163.778 31.9872 163.778 31.984C163.778 31.9808 163.778 31.9777 163.778 31.9745C163.778 31.9713 163.778 31.9682 163.778 31.965C163.778 31.9618 163.778 31.9587 163.778 31.9555C163.778 31.9523 163.778 31.9492 163.778 31.946C163.778 31.9428 163.778 31.9397 163.778 31.9365C163.778 31.9333 163.778 31.9302 163.778 31.927C163.778 31.9238 163.778 31.9207 163.778 31.9175C163.778 31.9143 163.778 31.9112 163.778 31.908C163.778 31.9048 163.778 31.9017 163.778 31.8985C163.778 31.8953 163.778 31.8922 163.778 31.889C163.778 31.8858 163.778 31.8827 163.778 31.8795C163.778 31.8763 163.778 31.8732 163.778 31.87C163.778 31.8668 163.778 31.8637 163.778 31.8605C163.778 31.8573 163.778 31.8542 163.778 31.851C163.778 31.8478 163.778 31.8447 163.778 31.8415C163.778 31.8383 163.778 31.8352 163.778 31.832C163.778 31.8288 163.778 31.8257 163.778 31.8225C163.778 31.8193 163.778 31.8162 163.778 31.813C163.778 31.8098 163.778 31.8067 163.778 31.8035C163.778 31.8003 163.778 31.7972 163.778 31.794C163.778 31.7908 163.778 31.7877 163.778 31.7845C163.778 31.7813 163.778 31.7782 163.778 31.775C163.778 31.7718 163.778 31.7687 163.778 31.7655C163.778 31.7623 163.778 31.7592 163.778 31.756C163.778 31.7528 163.778 31.7497 163.778 31.7465C163.778 31.7433 163.778 31.7402 163.778 31.737C163.778 31.7338 163.778 31.7307 163.778 31.7275C163.778 31.7243 163.778 31.7212 163.778 31.718C163.778 31.7148 163.778 31.7117 163.778 31.7085C163.778 31.7053 163.778 31.7022 163.778 31.699C163.778 31.6958 163.778 31.6927 163.778 31.6895C163.778 31.6863 163.778 31.6832 163.778 31.68C163.778 31.6768 163.778 31.6737 163.778 31.6705C163.778 31.6673 163.778 31.6642 163.778 31.661C163.778 31.6578 163.778 31.6547 163.778 31.6515C163.778 31.6483 163.778 31.6452 163.778 31.642C163.778 31.6388 163.778 31.6357 163.778 31.6325C163.778 31.6293 163.778 31.6262 163.778 31.623C163.778 31.6198 163.778 31.6167 163.778 31.6135C163.778 31.6103 163.778 31.6072 163.778 31.604C163.778 31.6008 163.778 31.5977 163.778 31.5945C163.778 31.5913 163.778 31.5882 163.778 31.585C163.778 31.5818 163.778 31.5787 163.778 31.5755C163.778 31.5723 163.778 31.5692 163.778 31.566C163.778 31.5628 163.778 31.5597 163.778 31.5565C163.778 31.5533 163.778 31.5502 163.778 31.547C163.778 31.5438 163.778 31.5407 163.778 31.5375C163.778 31.5343 163.778 31.5312 163.778 31.528C163.778 31.5248 163.778 31.5217 163.778 31.5185C163.778 31.5153 163.778 31.5122 163.778 31.509C163.778 31.5058 163.778 31.5027 163.778 31.4995C163.778 31.4963 163.778 31.4932 163.778 31.49C163.778 31.4868 163.778 31.4837 163.778 31.4805C163.778 31.4773 163.778 31.4742 163.778 31.471C163.778 31.4678 163.778 31.4647 163.778 31.4615C163.778 31.4583 163.778 31.4552 163.778 31.452C163.778 31.4488 163.778 31.4457 163.778 31.4425C163.778 31.4393 163.778 31.4362 163.778 31.433C163.778 31.4298 163.778 31.4267 163.778 31.4235C163.778 31.4203 163.778 31.4172 163.778 31.414C163.778 31.4108 163.778 31.4077 163.778 31.4045C163.778 31.4013 163.778 31.3982 163.778 31.395C163.778 31.3918 163.778 31.3887 163.778 31.3855C163.778 31.3823 163.778 31.3792 163.778 31.376C163.778 31.3728 163.778 31.3697 163.778 31.3665C163.778 31.3633 163.778 31.3602 163.778 31.357C163.778 31.3538 163.778 31.3507 163.778 31.3475C163.778 31.3443 163.778 31.3412 163.778 31.338C163.778 31.3348 163.778 31.3317 163.778 31.3285C163.778 31.3253 163.778 31.3222 163.778 31.319C163.778 31.3158 163.778 31.3127 163.778 31.3095C163.778 31.3063 163.778 31.3032 163.778 31.3C163.778 31.2968 163.778 31.2937 163.778 31.2905C163.778 31.2873 163.778 31.2842 163.778 31.281C163.778 31.2778 163.778 31.2747 163.778 31.2715C163.778 31.2683 163.778 31.2652 163.778 31.262C163.778 31.2588 163.778 31.2557 163.778 31.2525C163.778 31.2493 163.778 31.2462 163.778 31.243C163.778 31.2398 163.778 31.2367 163.778 31.2335C163.778 31.2303 163.778 31.2272 163.778 31.224C163.778 31.2208 163.778 31.2177 163.778 31.2145C163.778 31.2113 163.778 31.2082 163.778 31.205C163.778 31.2018 163.778 31.1987 163.778 31.1955C163.778 31.1923 163.778 31.1892 163.778 31.186C163.778 31.1828 163.778 31.1797 163.778 31.1765C163.778 31.1733 163.778 31.1702 163.778 31.167C163.778 31.1638 163.778 31.1607 163.778 31.1575C163.778 31.1543 163.778 31.1512 163.778 31.148C163.778 31.1448 163.778 31.1417 163.778 31.1385C163.778 31.1353 163.778 31.1322 163.778 31.129C163.778 31.1258 163.778 31.1227 163.778 31.1195C163.778 31.1163 163.778 31.1132 163.778 31.11C163.778 31.1068 163.778 31.1037 163.778 31.1005C163.778 31.0973 163.778 31.0942 163.778 31.091C163.778 31.0878 163.778 31.0847 163.778 31.0815C163.778 31.0783 163.778 31.0752 163.778 31.072C163.778 31.0688 163.778 31.0657 163.778 31.0625C163.778 31.0593 163.778 31.0562 163.778 31.053C163.778 31.0498 163.778 31.0467 163.778 31.0435C163.778 31.0403 163.778 31.0372 163.778 31.034C163.778 31.0308 163.778 31.0277 163.778 31.0245C163.778 31.0213 163.778 31.0182 163.778 31.015C163.778 31.0118 163.778 31.0087 163.778 31.0055C163.778 31.0023 163.778 30.9992 163.778 30.996C163.778 30.9928 163.778 30.9897 163.778 30.9865C163.778 30.9833 163.778 30.9802 163.778 30.977C163.778 30.9738 163.778 30.9707 163.778 30.9675C163.778 30.9643 163.778 30.9612 163.778 30.958C163.778 30.9548 163.778 30.9517 163.778 30.9485C163.778 30.9453 163.778 30.9422 163.778 30.939C163.778 30.9358 163.778 30.9327 163.778 30.9295C163.778 30.9263 163.778 30.9232 163.778 30.92H159.778C159.778 30.9232 159.778 30.9263 159.778 30.9295C159.778 30.9327 159.778 30.9358 159.778 30.939C159.778 30.9422 159.778 30.9453 159.778 30.9485C159.778 30.9517 159.778 30.9548 159.778 30.958C159.778 30.9612 159.778 30.9643 159.778 30.9675C159.778 30.9707 159.778 30.9738 159.778 30.977C159.778 30.9802 159.778 30.9833 159.778 30.9865C159.778 30.9897 159.778 30.9928 159.778 30.996C159.778 30.9992 159.778 31.0023 159.778 31.0055C159.778 31.0087 159.778 31.0118 159.778 31.015C159.778 31.0182 159.778 31.0213 159.778 31.0245C159.778 31.0277 159.778 31.0308 159.778 31.034C159.778 31.0372 159.778 31.0403 159.778 31.0435C159.778 31.0467 159.778 31.0498 159.778 31.053C159.778 31.0562 159.778 31.0593 159.778 31.0625C159.778 31.0657 159.778 31.0688 159.778 31.072C159.778 31.0752 159.778 31.0783 159.778 31.0815C159.778 31.0847 159.778 31.0878 159.778 31.091C159.778 31.0942 159.778 31.0973 159.778 31.1005C159.778 31.1037 159.778 31.1068 159.778 31.11C159.778 31.1132 159.778 31.1163 159.778 31.1195C159.778 31.1227 159.778 31.1258 159.778 31.129C159.778 31.1322 159.778 31.1353 159.778 31.1385C159.778 31.1417 159.778 31.1448 159.778 31.148C159.778 31.1512 159.778 31.1543 159.778 31.1575C159.778 31.1607 159.778 31.1638 159.778 31.167C159.778 31.1702 159.778 31.1733 159.778 31.1765C159.778 31.1797 159.778 31.1828 159.778 31.186C159.778 31.1892 159.778 31.1923 159.778 31.1955C159.778 31.1987 159.778 31.2018 159.778 31.205C159.778 31.2082 159.778 31.2113 159.778 31.2145C159.778 31.2177 159.778 31.2208 159.778 31.224C159.778 31.2272 159.778 31.2303 159.778 31.2335C159.778 31.2367 159.778 31.2398 159.778 31.243C159.778 31.2462 159.778 31.2493 159.778 31.2525C159.778 31.2557 159.778 31.2588 159.778 31.262C159.778 31.2652 159.778 31.2683 159.778 31.2715C159.778 31.2747 159.778 31.2778 159.778 31.281C159.778 31.2842 159.778 31.2873 159.778 31.2905C159.778 31.2937 159.778 31.2968 159.778 31.3C159.778 31.3032 159.778 31.3063 159.778 31.3095C159.778 31.3127 159.778 31.3158 159.778 31.319C159.778 31.3222 159.778 31.3253 159.778 31.3285C159.778 31.3317 159.778 31.3348 159.778 31.338C159.778 31.3412 159.778 31.3443 159.778 31.3475C159.778 31.3507 159.778 31.3538 159.778 31.357C159.778 31.3602 159.778 31.3633 159.778 31.3665C159.778 31.3697 159.778 31.3728 159.778 31.376C159.778 31.3792 159.778 31.3823 159.778 31.3855C159.778 31.3887 159.778 31.3918 159.778 31.395C159.778 31.3982 159.778 31.4013 159.778 31.4045C159.778 31.4077 159.778 31.4108 159.778 31.414C159.778 31.4172 159.778 31.4203 159.778 31.4235C159.778 31.4267 159.778 31.4298 159.778 31.433C159.778 31.4362 159.778 31.4393 159.778 31.4425C159.778 31.4457 159.778 31.4488 159.778 31.452C159.778 31.4552 159.778 31.4583 159.778 31.4615C159.778 31.4647 159.778 31.4678 159.778 31.471C159.778 31.4742 159.778 31.4773 159.778 31.4805C159.778 31.4837 159.778 31.4868 159.778 31.49C159.778 31.4932 159.778 31.4963 159.778 31.4995C159.778 31.5027 159.778 31.5058 159.778 31.509C159.778 31.5122 159.778 31.5153 159.778 31.5185C159.778 31.5217 159.778 31.5248 159.778 31.528C159.778 31.5312 159.778 31.5343 159.778 31.5375C159.778 31.5407 159.778 31.5438 159.778 31.547C159.778 31.5502 159.778 31.5533 159.778 31.5565C159.778 31.5597 159.778 31.5628 159.778 31.566C159.778 31.5692 159.778 31.5723 159.778 31.5755C159.778 31.5787 159.778 31.5818 159.778 31.585C159.778 31.5882 159.778 31.5913 159.778 31.5945C159.778 31.5977 159.778 31.6008 159.778 31.604C159.778 31.6072 159.778 31.6103 159.778 31.6135C159.778 31.6167 159.778 31.6198 159.778 31.623C159.778 31.6262 159.778 31.6293 159.778 31.6325C159.778 31.6357 159.778 31.6388 159.778 31.642C159.778 31.6452 159.778 31.6483 159.778 31.6515C159.778 31.6547 159.778 31.6578 159.778 31.661C159.778 31.6642 159.778 31.6673 159.778 31.6705C159.778 31.6737 159.778 31.6768 159.778 31.68C159.778 31.6832 159.778 31.6863 159.778 31.6895C159.778 31.6927 159.778 31.6958 159.778 31.699C159.778 31.7022 159.778 31.7053 159.778 31.7085C159.778 31.7117 159.778 31.7148 159.778 31.718C159.778 31.7212 159.778 31.7243 159.778 31.7275C159.778 31.7307 159.778 31.7338 159.778 31.737C159.778 31.7402 159.778 31.7433 159.778 31.7465C159.778 31.7497 159.778 31.7528 159.778 31.756C159.778 31.7592 159.778 31.7623 159.778 31.7655C159.778 31.7687 159.778 31.7718 159.778 31.775C159.778 31.7782 159.778 31.7813 159.778 31.7845C159.778 31.7877 159.778 31.7908 159.778 31.794C159.778 31.7972 159.778 31.8003 159.778 31.8035C159.778 31.8067 159.778 31.8098 159.778 31.813C159.778 31.8162 159.778 31.8193 159.778 31.8225C159.778 31.8257 159.778 31.8288 159.778 31.832C159.778 31.8352 159.778 31.8383 159.778 31.8415C159.778 31.8447 159.778 31.8478 159.778 31.851C159.778 31.8542 159.778 31.8573 159.778 31.8605C159.778 31.8637 159.778 31.8668 159.778 31.87C159.778 31.8732 159.778 31.8763 159.778 31.8795C159.778 31.8827 159.778 31.8858 159.778 31.889C159.778 31.8922 159.778 31.8953 159.778 31.8985C159.778 31.9017 159.778 31.9048 159.778 31.908C159.778 31.9112 159.778 31.9143 159.778 31.9175C159.778 31.9207 159.778 31.9238 159.778 31.927C159.778 31.9302 159.778 31.9333 159.778 31.9365C159.778 31.9397 159.778 31.9428 159.778 31.946C159.778 31.9492 159.778 31.9523 159.778 31.9555C159.778 31.9587 159.778 31.9618 159.778 31.965C159.778 31.9682 159.778 31.9713 159.778 31.9745C159.778 31.9777 159.778 31.9808 159.778 31.984C159.778 31.9872 159.778 31.9903 159.778 31.9935C159.778 31.9967 159.778 31.9998 159.778 32.003C159.778 32.0062 159.778 32.0093 159.778 32.0125C159.778 32.0157 159.778 32.0188 159.778 32.022C159.778 32.0252 159.778 32.0283 159.778 32.0315C159.778 32.0347 159.778 32.0378 159.778 32.041C159.778 32.0442 159.778 32.0473 159.778 32.0505C159.778 32.0537 159.778 32.0568 159.778 32.06C159.778 32.0632 159.778 32.0663 159.778 32.0695C159.778 32.0727 159.778 32.0758 159.778 32.079C159.778 32.0822 159.778 32.0853 159.778 32.0885C159.778 32.0917 159.778 32.0948 159.778 32.098C159.778 32.1012 159.778 32.1043 159.778 32.1075C159.778 32.1107 159.778 32.1138 159.778 32.117C159.778 32.1202 159.778 32.1233 159.778 32.1265C159.778 32.1297 159.778 32.1328 159.778 32.136C159.778 32.1392 159.778 32.1423 159.778 32.1455C159.778 32.1487 159.778 32.1518 159.778 32.155C159.778 32.1582 159.778 32.1613 159.778 32.1645C159.778 32.1677 159.778 32.1708 159.778 32.174C159.778 32.1772 159.778 32.1803 159.778 32.1835C159.778 32.1867 159.778 32.1898 159.778 32.193C159.778 32.1962 159.778 32.1993 159.778 32.2025C159.778 32.2057 159.778 32.2088 159.778 32.212C159.778 32.2152 159.778 32.2183 159.778 32.2215C159.778 32.2247 159.778 32.2278 159.778 32.231C159.778 32.2342 159.778 32.2373 159.778 32.2405C159.778 32.2437 159.778 32.2468 159.778 32.25C159.778 32.2532 159.778 32.2563 159.778 32.2595C159.778 32.2627 159.778 32.2658 159.778 32.269C159.778 32.2722 159.778 32.2753 159.778 32.2785C159.778 32.2817 159.778 32.2848 159.778 32.288C159.778 32.2912 159.778 32.2943 159.778 32.2975C159.778 32.3007 159.778 32.3038 159.778 32.307C159.778 32.3102 159.778 32.3133 159.778 32.3165C159.778 32.3197 159.778 32.3228 159.778 32.326C159.778 32.3292 159.778 32.3323 159.778 32.3355C159.778 32.3387 159.778 32.3418 159.778 32.345C159.778 32.3482 159.778 32.3513 159.778 32.3545C159.778 32.3577 159.778 32.3608 159.778 32.364C159.778 32.3672 159.778 32.3703 159.778 32.3735C159.778 32.3767 159.778 32.3798 159.778 32.383C159.778 32.3862 159.778 32.3893 159.778 32.3925C159.778 32.3957 159.778 32.3988 159.778 32.402C159.778 32.4052 159.778 32.4083 159.778 32.4115C159.778 32.4147 159.778 32.4178 159.778 32.421C159.778 32.4242 159.778 32.4273 159.778 32.4305C159.778 32.4337 159.778 32.4368 159.778 32.44C159.778 32.4432 159.778 32.4463 159.778 32.4495C159.778 32.4527 159.778 32.4558 159.778 32.459C159.778 32.4622 159.778 32.4653 159.778 32.4685C159.778 32.4717 159.778 32.4748 159.778 32.478C159.778 32.4812 159.778 32.4843 159.778 32.4875C159.778 32.4907 159.778 32.4938 159.778 32.497C159.778 32.5002 159.778 32.5033 159.778 32.5065C159.778 32.5097 159.778 32.5128 159.778 32.516C159.778 32.5192 159.778 32.5223 159.778 32.5255C159.778 32.5287 159.778 32.5318 159.778 32.535C159.778 32.5382 159.778 32.5413 159.778 32.5445C159.778 32.5477 159.778 32.5508 159.778 32.554C159.778 32.5572 159.778 32.5603 159.778 32.5635C159.778 32.5667 159.778 32.5698 159.778 32.573C159.778 32.5762 159.778 32.5793 159.778 32.5825C159.778 32.5857 159.778 32.5888 159.778 32.592C159.778 32.5952 159.778 32.5983 159.778 32.6015C159.778 32.6047 159.778 32.6078 159.778 32.611C159.778 32.6142 159.778 32.6173 159.778 32.6205C159.778 32.6237 159.778 32.6268 159.778 32.63C159.778 32.6332 159.778 32.6363 159.778 32.6395C159.778 32.6427 159.778 32.6458 159.778 32.649C159.778 32.6522 159.778 32.6553 159.778 32.6585C159.778 32.6617 159.778 32.6648 159.778 32.668C159.778 32.6712 159.778 32.6743 159.778 32.6775C159.778 32.6807 159.778 32.6838 159.778 32.687C159.778 32.6902 159.778 32.6933 159.778 32.6965C159.778 32.6997 159.778 32.7028 159.778 32.706C159.778 32.7092 159.778 32.7123 159.778 32.7155C159.778 32.7187 159.778 32.7218 159.778 32.725C159.778 32.7282 159.778 32.7313 159.778 32.7345C159.778 32.7377 159.778 32.7408 159.778 32.744C159.778 32.7472 159.778 32.7503 159.778 32.7535C159.778 32.7567 159.778 32.7598 159.778 32.763C159.778 32.7662 159.778 32.7693 159.778 32.7725C159.778 32.7757 159.778 32.7788 159.778 32.782C159.778 32.7852 159.778 32.7883 159.778 32.7915C159.778 32.7947 159.778 32.7978 159.778 32.801C159.778 32.8042 159.778 32.8073 159.778 32.8105C159.778 32.8137 159.778 32.8168 159.778 32.82C159.778 32.8232 159.778 32.8263 159.778 32.8295C159.778 32.8327 159.778 32.8358 159.778 32.839C159.778 32.8422 159.778 32.8453 159.778 32.8485C159.778 32.8517 159.778 32.8548 159.778 32.858C159.778 32.8612 159.778 32.8643 159.778 32.8675C159.778 32.8707 159.778 32.8738 159.778 32.877C159.778 32.8802 159.778 32.8833 159.778 32.8865C159.778 32.8897 159.778 32.8928 159.778 32.896C159.778 32.8992 159.778 32.9023 159.778 32.9055C159.778 32.9087 159.778 32.9118 159.778 32.915C159.778 32.9182 159.778 32.9213 159.778 32.9245C159.778 32.9277 159.778 32.9308 159.778 32.934C159.778 32.9372 159.778 32.9403 159.778 32.9435C159.778 32.9467 159.778 32.9498 159.778 32.953C159.778 32.9562 159.778 32.9593 159.778 32.9625C159.778 32.9657 159.778 32.9688 159.778 32.972C159.778 32.9752 159.778 32.9783 159.778 32.9815C159.778 32.9847 159.778 32.9878 159.778 32.991C159.778 32.9942 159.778 32.9973 159.778 33.0005C159.778 33.0037 159.778 33.0068 159.778 33.01C159.778 33.0132 159.778 33.0163 159.778 33.0195C159.778 33.0227 159.778 33.0258 159.778 33.029C159.778 33.0322 159.778 33.0353 159.778 33.0385C159.778 33.0417 159.778 33.0448 159.778 33.048C159.778 33.0512 159.778 33.0543 159.778 33.0575C159.778 33.0607 159.778 33.0638 159.778 33.067C159.778 33.0702 159.778 33.0733 159.778 33.0765C159.778 33.0797 159.778 33.0828 159.778 33.086C159.778 33.0892 159.778 33.0923 159.778 33.0955C159.778 33.0987 159.778 33.1018 159.778 33.105C159.778 33.1082 159.778 33.1113 159.778 33.1145C159.778 33.1177 159.778 33.1208 159.778 33.124C159.778 33.1272 159.778 33.1303 159.778 33.1335C159.778 33.1367 159.778 33.1398 159.778 33.143C159.778 33.1462 159.778 33.1493 159.778 33.1525C159.778 33.1557 159.778 33.1588 159.778 33.162C159.778 33.1652 159.778 33.1683 159.778 33.1715C159.778 33.1747 159.778 33.1778 159.778 33.181C159.778 33.1842 159.778 33.1873 159.778 33.1905C159.778 33.1937 159.778 33.1968 159.778 33.2C159.778 33.2032 159.778 33.2063 159.778 33.2095C159.778 33.2127 159.778 33.2158 159.778 33.219C159.778 33.2222 159.778 33.2253 159.778 33.2285C159.778 33.2317 159.778 33.2348 159.778 33.238C159.778 33.2412 159.778 33.2443 159.778 33.2475C159.778 33.2507 159.778 33.2538 159.778 33.257C159.778 33.2602 159.778 33.2633 159.778 33.2665C159.778 33.2697 159.778 33.2728 159.778 33.276C159.778 33.2792 159.778 33.2823 159.778 33.2855C159.778 33.2887 159.778 33.2918 159.778 33.295C159.778 33.2982 159.778 33.3013 159.778 33.3045C159.778 33.3077 159.778 33.3108 159.778 33.314C159.778 33.3172 159.778 33.3203 159.778 33.3235C159.778 33.3267 159.778 33.3298 159.778 33.333C159.778 33.3362 159.778 33.3393 159.778 33.3425C159.778 33.3457 159.778 33.3488 159.778 33.352C159.778 33.3552 159.778 33.3583 159.778 33.3615C159.778 33.3647 159.778 33.3678 159.778 33.371C159.778 33.3742 159.778 33.3773 159.778 33.3805C159.778 33.3837 159.778 33.3868 159.778 33.39C159.778 33.3932 159.778 33.3963 159.778 33.3995C159.778 33.4027 159.778 33.4058 159.778 33.409C159.778 33.4122 159.778 33.4153 159.778 33.4185C159.778 33.4217 159.778 33.4248 159.778 33.428C159.778 33.4312 159.778 33.4343 159.778 33.4375C159.778 33.4407 159.778 33.4438 159.778 33.447C159.778 33.4502 159.778 33.4533 159.778 33.4565C159.778 33.4597 159.778 33.4628 159.778 33.466C159.778 33.4692 159.778 33.4723 159.778 33.4755C159.778 33.4787 159.778 33.4818 159.778 33.485C159.778 33.4882 159.778 33.4913 159.778 33.4945C159.778 33.4977 159.778 33.5008 159.778 33.504C159.778 33.5072 159.778 33.5103 159.778 33.5135C159.778 33.5167 159.778 33.5198 159.778 33.523C159.778 33.5262 159.778 33.5293 159.778 33.5325C159.778 33.5357 159.778 33.5388 159.778 33.542C159.778 33.5452 159.778 33.5483 159.778 33.5515C159.778 33.5547 159.778 33.5578 159.778 33.561C159.778 33.5642 159.778 33.5673 159.778 33.5705C159.778 33.5737 159.778 33.5768 159.778 33.58C159.778 33.5832 159.778 33.5863 159.778 33.5895C159.778 33.5927 159.778 33.5958 159.778 33.599C159.778 33.6022 159.778 33.6053 159.778 33.6085C159.778 33.6117 159.778 33.6148 159.778 33.618C159.778 33.6212 159.778 33.6243 159.778 33.6275C159.778 33.6307 159.778 33.6338 159.778 33.637C159.778 33.6402 159.778 33.6433 159.778 33.6465C159.778 33.6497 159.778 33.6528 159.778 33.656C159.778 33.6592 159.778 33.6623 159.778 33.6655C159.778 33.6687 159.778 33.6718 159.778 33.675C159.778 33.6782 159.778 33.6813 159.778 33.6845C159.778 33.6877 159.778 33.6908 159.778 33.694C159.778 33.6972 159.778 33.7003 159.778 33.7035C159.778 33.7067 159.778 33.7098 159.778 33.713C159.778 33.7162 159.778 33.7193 159.778 33.7225C159.778 33.7257 159.778 33.7288 159.778 33.732C159.778 33.7352 159.778 33.7383 159.778 33.7415C159.778 33.7447 159.778 33.7478 159.778 33.751C159.778 33.7542 159.778 33.7573 159.778 33.7605C159.778 33.7637 159.778 33.7668 159.778 33.77C159.778 33.7732 159.778 33.7763 159.778 33.7795C159.778 33.7827 159.778 33.7858 159.778 33.789C159.778 33.7922 159.778 33.7953 159.778 33.7985C159.778 33.8017 159.778 33.8048 159.778 33.808C159.778 33.8112 159.778 33.8143 159.778 33.8175C159.778 33.8207 159.778 33.8238 159.778 33.827C159.778 33.8302 159.778 33.8333 159.778 33.8365C159.778 33.8397 159.778 33.8428 159.778 33.846C159.778 33.8492 159.778 33.8523 159.778 33.8555C159.778 33.8587 159.778 33.8618 159.778 33.865C159.778 33.8682 159.778 33.8713 159.778 33.8745C159.778 33.8777 159.778 33.8808 159.778 33.884C159.778 33.8872 159.778 33.8903 159.778 33.8935C159.778 33.8967 159.778 33.8998 159.778 33.903C159.778 33.9062 159.778 33.9093 159.778 33.9125C159.778 33.9157 159.778 33.9188 159.778 33.922C159.778 33.9252 159.778 33.9283 159.778 33.9315C159.778 33.9347 159.778 33.9378 159.778 33.941C159.778 33.9442 159.778 33.9473 159.778 33.9505C159.778 33.9537 159.778 33.9568 159.778 33.96C159.778 33.9632 159.778 33.9663 159.778 33.9695C159.778 33.9727 159.778 33.9758 159.778 33.979C159.778 33.9822 159.778 33.9853 159.778 33.9885C159.778 33.9917 159.778 33.9948 159.778 33.998C159.778 34.0012 159.778 34.0043 159.778 34.0075C159.778 34.0107 159.778 34.0138 159.778 34.017C159.778 34.0202 159.778 34.0233 159.778 34.0265C159.778 34.0297 159.778 34.0328 159.778 34.036C159.778 34.0392 159.778 34.0423 159.778 34.0455C159.778 34.0487 159.778 34.0518 159.778 34.055C159.778 34.0582 159.778 34.0613 159.778 34.0645C159.778 34.0677 159.778 34.0708 159.778 34.074C159.778 34.0772 159.778 34.0803 159.778 34.0835C159.778 34.0867 159.778 34.0898 159.778 34.093C159.778 34.0962 159.778 34.0993 159.778 34.1025C159.778 34.1057 159.778 34.1088 159.778 34.112C159.778 34.1152 159.778 34.1183 159.778 34.1215C159.778 34.1247 159.778 34.1278 159.778 34.131C159.778 34.1342 159.778 34.1373 159.778 34.1405C159.778 34.1437 159.778 34.1468 159.778 34.15C159.778 34.1532 159.778 34.1563 159.778 34.1595C159.778 34.1627 159.778 34.1658 159.778 34.169C159.778 34.1722 159.778 34.1753 159.778 34.1785C159.778 34.1817 159.778 34.1848 159.778 34.188C159.778 34.1912 159.778 34.1943 159.778 34.1975C159.778 34.2007 159.778 34.2038 159.778 34.207C159.778 34.2102 159.778 34.2133 159.778 34.2165C159.778 34.2197 159.778 34.2228 159.778 34.226C159.778 34.2292 159.778 34.2323 159.778 34.2355C159.778 34.2387 159.778 34.2418 159.778 34.245C159.778 34.2482 159.778 34.2513 159.778 34.2545C159.778 34.2577 159.778 34.2608 159.778 34.264C159.778 34.2672 159.778 34.2703 159.778 34.2735C159.778 34.2767 159.778 34.2798 159.778 34.283C159.778 34.2862 159.778 34.2893 159.778 34.2925C159.778 34.2957 159.778 34.2988 159.778 34.302C159.778 34.3052 159.778 34.3083 159.778 34.3115C159.778 34.3147 159.778 34.3178 159.778 34.321C159.778 34.3242 159.778 34.3273 159.778 34.3305C159.778 34.3337 159.778 34.3368 159.778 34.34C159.778 34.3432 159.778 34.3463 159.778 34.3495C159.778 34.3527 159.778 34.3558 159.778 34.359C159.778 34.3622 159.778 34.3653 159.778 34.3685C159.778 34.3717 159.778 34.3748 159.778 34.378C159.778 34.3812 159.778 34.3843 159.778 34.3875C159.778 34.3907 159.778 34.3938 159.778 34.397C159.778 34.4002 159.778 34.4033 159.778 34.4065C159.778 34.4097 159.778 34.4128 159.778 34.416C159.778 34.4192 159.778 34.4223 159.778 34.4255C159.778 34.4287 159.778 34.4318 159.778 34.435C159.778 34.4382 159.778 34.4413 159.778 34.4445C159.778 34.4477 159.778 34.4508 159.778 34.454C159.778 34.4572 159.778 34.4603 159.778 34.4635C159.778 34.4667 159.778 34.4698 159.778 34.473C159.778 34.4762 159.778 34.4793 159.778 34.4825C159.778 34.4857 159.778 34.4888 159.778 34.492C159.778 34.4952 159.778 34.4983 159.778 34.5015C159.778 34.5047 159.778 34.5078 159.778 34.511C159.778 34.5142 159.778 34.5173 159.778 34.5205C159.778 34.5237 159.778 34.5268 159.778 34.53C159.778 34.5332 159.778 34.5363 159.778 34.5395C159.778 34.5427 159.778 34.5458 159.778 34.549C159.778 34.5522 159.778 34.5553 159.778 34.5585C159.778 34.5617 159.778 34.5648 159.778 34.568C159.778 34.5712 159.778 34.5743 159.778 34.5775C159.778 34.5807 159.778 34.5838 159.778 34.587C159.778 34.5902 159.778 34.5933 159.778 34.5965C159.778 34.5997 159.778 34.6028 159.778 34.606C159.778 34.6092 159.778 34.6123 159.778 34.6155C159.778 34.6187 159.778 34.6218 159.778 34.625C159.778 34.6282 159.778 34.6313 159.778 34.6345C159.778 34.6377 159.778 34.6408 159.778 34.644C159.778 34.6472 159.778 34.6503 159.778 34.6535C159.778 34.6567 159.778 34.6598 159.778 34.663C159.778 34.6662 159.778 34.6693 159.778 34.6725C159.778 34.6757 159.778 34.6788 159.778 34.682C159.778 34.6852 159.778 34.6883 159.778 34.6915C159.778 34.6947 159.778 34.6978 159.778 34.701C159.778 34.7042 159.778 34.7073 159.778 34.7105C159.778 34.7137 159.778 34.7168 159.778 34.72C159.778 34.7232 159.778 34.7263 159.778 34.7295C159.778 34.7327 159.778 34.7358 159.778 34.739C159.778 34.7422 159.778 34.7453 159.778 34.7485C159.778 34.7517 159.778 34.7548 159.778 34.758C159.778 34.7612 159.778 34.7643 159.778 34.7675C159.778 34.7707 159.778 34.7738 159.778 34.777C159.778 34.7802 159.778 34.7833 159.778 34.7865C159.778 34.7897 159.778 34.7928 159.778 34.796C159.778 34.7992 159.778 34.8023 159.778 34.8055C159.778 34.8087 159.778 34.8118 159.778 34.815C159.778 34.8182 159.778 34.8213 159.778 34.8245C159.778 34.8277 159.778 34.8308 159.778 34.834C159.778 34.8372 159.778 34.8403 159.778 34.8435C159.778 34.8467 159.778 34.8498 159.778 34.853C159.778 34.8562 159.778 34.8593 159.778 34.8625C159.778 34.8657 159.778 34.8688 159.778 34.872C159.778 34.8752 159.778 34.8783 159.778 34.8815C159.778 34.8847 159.778 34.8878 159.778 34.891C159.778 34.8942 159.778 34.8973 159.778 34.9005C159.778 34.9037 159.778 34.9068 159.778 34.91C159.778 34.9132 159.778 34.9163 159.778 34.9195C159.778 34.9227 159.778 34.9258 159.778 34.929C159.778 34.9322 159.778 34.9353 159.778 34.9385C159.778 34.9417 159.778 34.9448 159.778 34.948C159.778 34.9512 159.778 34.9543 159.778 34.9575C159.778 34.9607 159.778 34.9638 159.778 34.967C159.778 34.9702 159.778 34.9733 159.778 34.9765C159.778 34.9797 159.778 34.9828 159.778 34.986C159.778 34.9892 159.778 34.9923 159.778 34.9955C159.778 34.9987 159.778 35.0018 159.778 35.005C159.778 35.0082 159.778 35.0113 159.778 35.0145C159.778 35.0177 159.778 35.0208 159.778 35.024C159.778 35.0272 159.778 35.0303 159.778 35.0335C159.778 35.0367 159.778 35.0398 159.778 35.043C159.778 35.0462 159.778 35.0493 159.778 35.0525C159.778 35.0557 159.778 35.0588 159.778 35.062C159.778 35.0652 159.778 35.0683 159.778 35.0715C159.778 35.0747 159.778 35.0778 159.778 35.081C159.778 35.0842 159.778 35.0873 159.778 35.0905C159.778 35.0937 159.778 35.0968 159.778 35.1C159.778 35.1032 159.778 35.1063 159.778 35.1095C159.778 35.1127 159.778 35.1158 159.778 35.119C159.778 35.1222 159.778 35.1253 159.778 35.1285C159.778 35.1317 159.778 35.1348 159.778 35.138C159.778 35.1412 159.778 35.1443 159.778 35.1475C159.778 35.1507 159.778 35.1538 159.778 35.157C159.778 35.1602 159.778 35.1633 159.778 35.1665C159.778 35.1697 159.778 35.1728 159.778 35.176C159.778 35.1792 159.778 35.1823 159.778 35.1855C159.778 35.1887 159.778 35.1918 159.778 35.195C159.778 35.1982 159.778 35.2013 159.778 35.2045C159.778 35.2077 159.778 35.2108 159.778 35.214C159.778 35.2172 159.778 35.2203 159.778 35.2235C159.778 35.2267 159.778 35.2298 159.778 35.233C159.778 35.2362 159.778 35.2393 159.778 35.2425C159.778 35.2457 159.778 35.2488 159.778 35.252C159.778 35.2552 159.778 35.2583 159.778 35.2615C159.778 35.2647 159.778 35.2678 159.778 35.271C159.778 35.2742 159.778 35.2773 159.778 35.2805C159.778 35.2837 159.778 35.2868 159.778 35.29C159.778 35.2932 159.778 35.2963 159.778 35.2995C159.778 35.3027 159.778 35.3058 159.778 35.309C159.778 35.3122 159.778 35.3153 159.778 35.3185C159.778 35.3217 159.778 35.3248 159.778 35.328C159.778 35.3312 159.778 35.3343 159.778 35.3375C159.778 35.3407 159.778 35.3438 159.778 35.347C159.778 35.3502 159.778 35.3533 159.778 35.3565C159.778 35.3597 159.778 35.3628 159.778 35.366C159.778 35.3692 159.778 35.3723 159.778 35.3755C159.778 35.3787 159.778 35.3818 159.778 35.385C159.778 35.3882 159.778 35.3913 159.778 35.3945C159.778 35.3977 159.778 35.4008 159.778 35.404C159.778 35.4072 159.778 35.4103 159.778 35.4135C159.778 35.4167 159.778 35.4198 159.778 35.423C159.778 35.4262 159.778 35.4293 159.778 35.4325C159.778 35.4357 159.778 35.4388 159.778 35.442C159.778 35.4452 159.778 35.4483 159.778 35.4515C159.778 35.4547 159.778 35.4578 159.778 35.461C159.778 35.4642 159.778 35.4673 159.778 35.4705C159.778 35.4737 159.778 35.4768 159.778 35.48C159.778 35.4832 159.778 35.4863 159.778 35.4895C159.778 35.4927 159.778 35.4958 159.778 35.499C159.778 35.5022 159.778 35.5053 159.778 35.5085C159.778 35.5117 159.778 35.5148 159.778 35.518C159.778 35.5212 159.778 35.5243 159.778 35.5275C159.778 35.5307 159.778 35.5338 159.778 35.537C159.778 35.5402 159.778 35.5433 159.778 35.5465C159.778 35.5497 159.778 35.5528 159.778 35.556C159.778 35.5592 159.778 35.5623 159.778 35.5655C159.778 35.5687 159.778 35.5718 159.778 35.575C159.778 35.5782 159.778 35.5813 159.778 35.5845C159.778 35.5877 159.778 35.5908 159.778 35.594C159.778 35.5972 159.778 35.6003 159.778 35.6035C159.778 35.6067 159.778 35.6098 159.778 35.613C159.778 35.6162 159.778 35.6193 159.778 35.6225C159.778 35.6257 159.778 35.6288 159.778 35.632C159.778 35.6352 159.778 35.6383 159.778 35.6415C159.778 35.6447 159.778 35.6478 159.778 35.651C159.778 35.6542 159.778 35.6573 159.778 35.6605C159.778 35.6637 159.778 35.6668 159.778 35.67C159.778 35.6732 159.778 35.6763 159.778 35.6795C159.778 35.6827 159.778 35.6858 159.778 35.689C159.778 35.6922 159.778 35.6953 159.778 35.6985C159.778 35.7017 159.778 35.7048 159.778 35.708C159.778 35.7112 159.778 35.7143 159.778 35.7175C159.778 35.7207 159.778 35.7238 159.778 35.727C159.778 35.7302 159.778 35.7333 159.778 35.7365C159.778 35.7397 159.778 35.7428 159.778 35.746C159.778 35.7492 159.778 35.7523 159.778 35.7555C159.778 35.7587 159.778 35.7618 159.778 35.765C159.778 35.7682 159.778 35.7713 159.778 35.7745C159.778 35.7777 159.778 35.7808 159.778 35.784H163.778ZM163.778 30.92V16.2H159.778V30.92H163.778ZM161.778 18.2H168.69V14.2H161.778V18.2ZM166.69 16.2V61H170.69V16.2H166.69ZM168.69 59H161.971V63H168.69V59ZM163.454 59.6588L131.518 24.3308L128.551 27.0132L160.487 62.3412L163.454 59.6588ZM131.918 26.3447L132.238 25.4487L128.471 24.1033L128.151 24.9993L131.918 26.3447ZM128.361 24.9376C128.49 26.522 128.618 28.0219 128.747 29.4371L132.73 29.0749C132.603 27.6741 132.475 26.1873 132.348 24.6144L128.361 24.9376ZM128.747 29.4427C128.874 30.7914 128.979 32.0961 129.063 33.357L133.054 33.091C132.967 31.7919 132.859 30.4513 132.73 29.0693L128.747 29.4427ZM129.069 33.4298C129.196 34.6541 129.301 35.7905 129.385 36.8395L133.372 36.5205C133.285 35.4362 133.177 34.2685 133.048 33.0182L129.069 33.4298ZM129.385 36.8395C129.468 37.8841 129.531 38.8838 129.572 39.8389L133.569 39.6651C133.525 38.6575 133.459 37.6092 133.372 36.5205L129.385 36.8395ZM129.573 39.8428C129.614 40.7559 129.634 41.5999 129.634 42.376H133.634C133.634 41.5307 133.612 40.6255 133.568 39.6612L129.573 39.8428ZM129.634 42.376V61H133.634V42.376H129.634ZM131.634 59H124.722V63H131.634V59ZM195.031 61H193.031V63H195.031V61ZM195.031 22.856H197.031V20.856H195.031V22.856ZM179.927 22.856H177.927V24.856H179.927V22.856ZM179.927 16.2V14.2H177.927V16.2H179.927ZM217.367 16.2H219.367V14.2H217.367V16.2ZM217.367 22.856V24.856H219.367V22.856H217.367ZM201.943 22.856V20.856H199.943V22.856H201.943ZM201.943 61V63H203.943V61H201.943ZM197.031 61V22.856H193.031V61H197.031ZM195.031 20.856H179.927V24.856H195.031V20.856ZM181.927 22.856V16.2H177.927V22.856H181.927ZM179.927 18.2H217.367V14.2H179.927V18.2ZM215.367 16.2V22.856H219.367V16.2H215.367ZM217.367 20.856H201.943V24.856H217.367V20.856ZM199.943 22.856V61H203.943V22.856H199.943ZM201.943 59H195.031V63H201.943V59ZM238.185 59.912L237.442 61.769L237.458 61.7753L237.474 61.7814L238.185 59.912ZM230.313 54.984L228.941 56.4396L228.948 56.4461L228.955 56.4525L230.313 54.984ZM225.129 47.688L223.288 48.4691L223.295 48.4861L223.303 48.5029L225.129 47.688ZM225.129 29.576L223.298 28.7715L223.295 28.7781L223.292 28.7848L225.129 29.576ZM230.313 22.216L228.955 20.7475L228.948 20.7539L228.941 20.7604L230.313 22.216ZM238.185 17.352L238.905 19.218L238.912 19.2153L238.919 19.2125L238.185 17.352ZM258.025 17.288L257.305 19.154L257.314 19.1574L258.025 17.288ZM265.897 22.216L264.511 23.6577L264.525 23.6712L264.539 23.6845L265.897 22.216ZM271.081 29.576L269.24 30.3571L269.247 30.3741L269.255 30.3909L271.081 29.576ZM271.081 47.688L269.25 46.8835L269.247 46.8901L269.244 46.8968L271.081 47.688ZM265.897 55.048L267.269 56.5036L267.269 56.5028L265.897 55.048ZM258.025 59.912L257.314 58.0426L257.305 58.046L258.025 59.912ZM255.273 53.704L255.983 55.5736L255.993 55.5698L256.003 55.5659L255.273 53.704ZM260.905 50.248L262.258 51.7207L262.269 51.7109L262.279 51.7009L260.905 50.248ZM264.553 45.064L262.727 44.2481L262.723 44.2573L262.719 44.2665L264.553 45.064ZM264.553 32.2L262.713 32.9831L262.723 33.007L262.734 33.0306L264.553 32.2ZM260.905 27.016L259.531 28.4689L259.541 28.4789L259.552 28.4887L260.905 27.016ZM255.273 23.56L254.543 25.4219L254.559 25.4282L254.575 25.4342L255.273 23.56ZM241.001 23.56L241.699 25.4342L241.715 25.4282L241.731 25.4219L241.001 23.56ZM235.305 26.952L233.971 25.4615L233.962 25.4704L233.952 25.4793L235.305 26.952ZM231.657 32.136L233.491 32.9334L233.494 32.9263L233.497 32.9191L231.657 32.136ZM231.657 45.064L229.817 45.8471L229.817 45.8471L231.657 45.064ZM235.305 50.248L233.952 51.7207L233.962 51.7296L233.971 51.7385L235.305 50.248ZM241.001 53.704L240.271 55.5659L240.287 55.5722L240.303 55.5782L241.001 53.704ZM248.105 59.64C244.738 59.64 241.675 59.0996 238.896 58.0426L237.474 61.7814C240.753 63.0284 244.304 63.64 248.105 63.64V59.64ZM238.928 58.055C236.158 56.9471 233.745 55.4328 231.671 53.5155L228.955 56.4525C231.404 58.7165 234.239 60.4876 237.442 61.769L238.928 58.055ZM231.685 53.5284C229.658 51.6184 228.085 49.404 226.955 46.8731L223.303 48.5029C224.648 51.5187 226.531 54.1682 228.941 56.4396L231.685 53.5284ZM226.97 46.9069C225.887 44.3526 225.337 41.5906 225.337 38.6H221.337C221.337 42.0947 221.982 45.3914 223.288 48.4691L226.97 46.9069ZM225.337 38.6C225.337 35.6091 225.887 32.8726 226.966 30.3672L223.292 28.7848C221.982 31.826 221.337 35.1056 221.337 38.6H225.337ZM226.96 30.3805C228.09 27.8079 229.663 25.5766 231.685 23.6716L228.941 20.7604C226.526 23.0368 224.642 25.7121 223.298 28.7715L226.96 30.3805ZM231.671 23.6845C233.739 21.7722 236.144 20.2827 238.905 19.218L237.465 15.486C234.252 16.7253 231.41 18.4784 228.955 20.7475L231.671 23.6845ZM238.919 19.2125C241.692 18.1189 244.747 17.56 248.105 17.56V13.56C244.295 13.56 240.737 14.1958 237.451 15.4915L238.919 19.2125ZM248.105 17.56C251.518 17.56 254.577 18.1015 257.305 19.154L258.745 15.422C255.5 14.1705 251.945 13.56 248.105 13.56V17.56ZM257.314 19.1574C260.105 20.2189 262.496 21.7207 264.511 23.6577L267.283 20.7743C264.86 18.4446 262.003 16.6611 258.736 15.4186L257.314 19.1574ZM264.539 23.6845C266.594 25.5842 268.157 27.8037 269.24 30.3571L272.922 28.7949C271.616 25.7163 269.723 23.0291 267.255 20.7475L264.539 23.6845ZM269.255 30.3909C270.37 32.8907 270.937 35.6188 270.937 38.6H274.937C274.937 35.0959 274.267 31.808 272.907 28.7611L269.255 30.3909ZM270.937 38.6C270.937 41.581 270.37 44.3347 269.25 46.8835L272.912 48.4925C274.267 45.4093 274.937 42.1043 274.937 38.6H270.937ZM269.244 46.8968C268.161 49.4121 266.593 51.6414 264.525 53.5932L267.269 56.5028C269.723 54.1879 271.612 51.5106 272.918 48.4792L269.244 46.8968ZM264.525 53.5924C262.51 55.492 260.114 56.9779 257.314 58.0426L258.736 61.7814C261.995 60.5421 264.847 58.7854 267.269 56.5036L264.525 53.5924ZM257.305 58.046C254.577 59.0985 251.518 59.64 248.105 59.64V63.64C251.945 63.64 255.5 63.0295 258.745 61.778L257.305 58.046ZM248.169 56.92C250.981 56.92 253.594 56.4817 255.983 55.5736L254.563 51.8344C252.686 52.5476 250.563 52.92 248.169 52.92V56.92ZM256.003 55.5659C258.388 54.6306 260.482 53.3529 262.258 51.7207L259.552 48.7753C258.171 50.0444 256.51 51.0707 254.543 51.8421L256.003 55.5659ZM262.279 51.7009C264.051 50.0253 265.425 48.0752 266.387 45.8615L262.719 44.2665C261.975 45.9781 260.916 47.4841 259.531 48.7951L262.279 51.7009ZM266.379 45.8799C267.395 43.6053 267.897 41.1711 267.897 38.6H263.897C263.897 40.6369 263.503 42.512 262.727 44.2481L266.379 45.8799ZM267.897 38.6C267.897 36.0292 267.395 33.6102 266.372 31.3694L262.734 33.0306C263.503 34.7151 263.897 36.5628 263.897 38.6H267.897ZM266.393 31.4169C265.43 29.1541 264.05 27.1898 262.258 25.5433L259.552 28.4887C260.917 29.7435 261.969 31.2352 262.713 32.9831L266.393 31.4169ZM262.279 25.5631C260.493 23.873 258.381 22.5836 255.971 21.6858L254.575 25.4342C256.517 26.1577 258.16 27.1723 259.531 28.4689L262.279 25.5631ZM256.003 21.6981C253.573 20.7452 250.955 20.28 248.169 20.28V24.28C250.503 24.28 252.621 24.6682 254.543 25.4219L256.003 21.6981ZM248.169 20.28C245.345 20.28 242.704 20.7437 240.271 21.6981L241.731 25.4219C243.65 24.6696 245.788 24.28 248.169 24.28V20.28ZM240.303 21.6858C237.909 22.5777 235.791 23.8335 233.971 25.4615L236.639 28.4425C238.062 27.1692 239.741 26.1636 241.699 25.4342L240.303 21.6858ZM233.952 25.4793C232.16 27.1258 230.78 29.0901 229.817 31.3529L233.497 32.9191C234.241 31.1712 235.293 29.6795 236.658 28.4247L233.952 25.4793ZM229.823 31.3385C228.85 33.5762 228.377 36.0056 228.377 38.6H232.377C232.377 36.501 232.757 34.6211 233.491 32.9334L229.823 31.3385ZM228.377 38.6C228.377 41.1575 228.852 43.5801 229.817 45.8471L233.497 44.2809C232.755 42.5372 232.377 40.6505 232.377 38.6H228.377ZM229.817 45.8471C230.78 48.1099 232.16 50.0742 233.952 51.7207L236.658 48.7753C235.293 47.5205 234.241 46.0288 233.497 44.2809L229.817 45.8471ZM233.971 51.7385C235.783 53.3593 237.89 54.6322 240.271 55.5659L241.731 51.8421C239.76 51.0691 238.07 50.038 236.639 48.7575L233.971 51.7385ZM240.303 55.5782C242.727 56.4815 245.357 56.92 248.169 56.92V52.92C245.776 52.92 243.627 52.5478 241.699 51.8298L240.303 55.5782Z" fill="#111111"/>
</svg>
