<svg width="556" height="124" viewBox="0 0 556 124" fill="none" xmlns="http://www.w3.org/2000/svg">
<path d="M69.648 111.28C62.9067 111.28 56.6347 110.213 50.832 108.08C45.0293 105.861 39.952 102.704 35.6 98.608C31.248 94.512 27.8773 89.648 25.488 84.016C23.0987 78.2987 21.904 72.0267 21.904 65.2C21.904 58.7147 23.184 52.6987 25.744 47.152C28.304 41.6053 31.8027 36.784 36.24 32.688C40.6773 28.5067 45.7973 25.3067 51.6 23.088C57.4027 20.784 63.5893 19.632 70.16 19.632C75.28 19.632 80.2293 20.3573 85.008 21.808C89.872 23.1733 94.224 25.008 98.064 27.312C101.989 29.616 105.147 32.1333 107.536 34.864L98.832 45.616C96.016 43.056 93.072 40.88 90 39.088C86.928 37.2107 83.6853 35.8027 80.272 34.864C76.8587 33.84 73.232 33.328 69.392 33.328C65.04 33.328 60.8587 34.096 56.848 35.632C52.8373 37.168 49.2533 39.344 46.096 42.16C43.024 44.8907 40.5493 48.2187 38.672 52.144C36.88 56.0693 35.984 60.4213 35.984 65.2C35.984 70.32 36.88 74.8853 38.672 78.896C40.5493 82.9067 43.1093 86.32 46.352 89.136C49.68 91.8667 53.4347 93.9573 57.616 95.408C61.8827 96.8587 66.4053 97.584 71.184 97.584C75.3653 97.584 79.1627 97.072 82.576 96.048C85.9893 94.9387 89.104 93.5307 91.92 91.824C94.736 90.032 97.296 88.1973 99.6 86.32L106.384 97.712C104.165 99.8453 101.136 101.979 97.296 104.112C93.5413 106.16 89.2747 107.867 84.496 109.232C79.8027 110.597 74.8533 111.28 69.648 111.28ZM121.444 110L161.124 20.4H176.356L215.908 110H200.932L175.076 51.632C174.479 50.5227 173.796 49.0293 173.028 47.152C172.345 45.2747 171.577 43.312 170.724 41.264C169.956 39.1307 169.188 37.0827 168.42 35.12C167.737 33.072 167.14 31.3227 166.628 29.872L170.212 29.744C169.529 31.536 168.804 33.4133 168.036 35.376C167.353 37.3387 166.628 39.344 165.86 41.392C165.092 43.3547 164.324 45.2747 163.556 47.152C162.788 48.944 162.063 50.608 161.38 52.144L135.78 110H121.444ZM138.852 88.496L144.1 75.184H191.844L195.684 88.496H138.852ZM237.445 110V20.4H250.629L315.397 93.744L314.117 94.896C313.69 92.5067 313.349 89.9467 313.093 87.216C312.837 84.4853 312.581 81.6267 312.325 78.64C312.154 75.568 311.984 72.4533 311.813 69.296C311.728 66.0533 311.642 62.8107 311.557 59.568C311.557 56.3253 311.557 53.0827 311.557 49.84V20.4H325.381V110H311.941L248.069 39.344L248.709 37.552C248.965 40.7093 249.221 43.696 249.477 46.512C249.733 49.2427 249.946 51.888 250.117 54.448C250.373 56.9227 250.586 59.2267 250.757 61.36C250.928 63.4933 251.056 65.5413 251.141 67.504C251.226 69.3813 251.269 71.1307 251.269 72.752V110H237.445ZM378.061 110V33.712H347.853V20.4H422.733V33.712H391.885V110H378.061ZM484.21 111.28C477.042 111.28 470.429 110.128 464.37 107.824C458.397 105.435 453.149 102.149 448.626 97.968C444.189 93.7867 440.733 88.9227 438.258 83.376C435.869 77.744 434.674 71.6853 434.674 65.2C434.674 58.7147 435.869 52.6987 438.258 47.152C440.733 41.52 444.189 36.6133 448.626 32.432C453.149 28.2507 458.397 25.008 464.37 22.704C470.429 20.3147 477.042 19.12 484.21 19.12C491.463 19.12 498.077 20.272 504.05 22.576C510.109 24.88 515.357 28.1653 519.794 32.432C524.317 36.6133 527.773 41.52 530.162 47.152C532.637 52.6987 533.874 58.7147 533.874 65.2C533.874 71.6853 532.637 77.744 530.162 83.376C527.773 88.9227 524.317 93.8293 519.794 98.096C515.357 102.277 510.109 105.52 504.05 107.824C498.077 110.128 491.463 111.28 484.21 111.28ZM484.338 97.84C489.543 97.84 494.279 97.0293 498.546 95.408C502.898 93.7013 506.653 91.3973 509.81 88.496C512.967 85.5093 515.399 82.0533 517.106 78.128C518.898 74.1173 519.794 69.808 519.794 65.2C519.794 60.592 518.898 56.3253 517.106 52.4C515.399 48.3893 512.967 44.9333 509.81 42.032C506.653 39.0453 502.898 36.7413 498.546 35.12C494.194 33.4133 489.458 32.56 484.338 32.56C479.133 32.56 474.354 33.4133 470.002 35.12C465.65 36.7413 461.853 39.0027 458.61 41.904C455.453 44.8053 453.021 48.2613 451.314 52.272C449.607 56.1973 448.754 60.5067 448.754 65.2C448.754 69.808 449.607 74.1173 451.314 78.128C453.021 82.1387 455.453 85.5947 458.61 88.496C461.853 91.3973 465.65 93.7013 470.002 95.408C474.354 97.0293 479.133 97.84 484.338 97.84Z" fill="#111111"/>
<path d="M50.832 108.08L50.1177 109.948L50.1298 109.953L50.1419 109.957L50.832 108.08ZM35.6 98.608L34.2293 100.064L34.2293 100.064L35.6 98.608ZM25.488 84.016L23.6426 84.7872L23.6468 84.7971L25.488 84.016ZM25.744 47.152L27.5599 47.9901L27.5599 47.9901L25.744 47.152ZM36.24 32.688L37.5966 34.1576L37.6041 34.1506L37.6116 34.1436L36.24 32.688ZM51.6 23.088L52.3143 24.9561L52.3262 24.9515L52.3381 24.9468L51.6 23.088ZM85.008 21.808L84.427 23.7218L84.4472 23.7279L84.4675 23.7336L85.008 21.808ZM98.064 27.312L97.035 29.027L97.0433 29.0319L97.0516 29.0368L98.064 27.312ZM107.536 34.864L109.09 36.1224L110.15 34.8139L109.041 33.547L107.536 34.864ZM98.832 45.616L97.4867 47.0959L99.0538 48.5206L100.386 46.8744L98.832 45.616ZM90 39.088L88.9571 40.7946L88.9746 40.8052L88.9923 40.8156L90 39.088ZM80.272 34.864L79.6973 36.7797L79.7194 36.7863L79.7417 36.7924L80.272 34.864ZM56.848 35.632L57.5633 37.4997L57.5633 37.4997L56.848 35.632ZM46.096 42.16L47.4247 43.6548L47.4272 43.6526L46.096 42.16ZM38.672 52.144L36.8677 51.2811L36.86 51.2972L36.8526 51.3134L38.672 52.144ZM38.672 78.896L36.846 79.7119L36.8532 79.7279L36.8606 79.7439L38.672 78.896ZM46.352 89.136L45.0406 90.6461L45.0617 90.6644L45.0834 90.6821L46.352 89.136ZM57.616 95.408L56.9604 97.2975L56.9722 97.3015L57.616 95.408ZM82.576 96.048L83.1507 97.9637L83.1725 97.9571L83.1942 97.9501L82.576 96.048ZM91.92 91.824L92.9566 93.5344L92.9753 93.5231L92.9938 93.5113L91.92 91.824ZM99.6 86.32L101.318 85.2967L100.133 83.3059L98.3367 84.7695L99.6 86.32ZM106.384 97.712L107.77 99.1537L108.915 98.053L108.102 96.6887L106.384 97.712ZM97.296 104.112L98.2537 105.868L98.2605 105.864L98.2673 105.86L97.296 104.112ZM84.496 109.232L83.9466 107.309L83.9373 107.312L84.496 109.232ZM69.648 109.28C63.1208 109.28 57.0846 108.248 51.5221 106.203L50.1419 109.957C56.1847 112.179 62.6925 113.28 69.648 113.28V109.28ZM51.5463 106.212C45.9774 104.083 41.1254 101.062 36.9707 97.1516L34.2293 100.064C38.7787 104.346 44.0813 107.64 50.1177 109.948L51.5463 106.212ZM36.9707 97.1516C32.8255 93.2502 29.6128 88.6178 27.3292 83.2349L23.6468 84.7971C26.1418 90.6782 29.6705 95.7738 34.2293 100.064L36.9707 97.1516ZM27.3333 83.2448C25.056 77.7955 23.904 71.7889 23.904 65.2H19.904C19.904 72.2644 21.1413 78.8018 23.6427 84.7872L27.3333 83.2448ZM23.904 65.2C23.904 58.9859 25.1286 53.258 27.5599 47.9901L23.9281 46.3139C21.2394 52.1393 19.904 58.4435 19.904 65.2H23.904ZM27.5599 47.9901C30.0111 42.6792 33.3546 38.0732 37.5966 34.1576L34.8834 31.2184C30.2507 35.4948 26.5969 40.5314 23.9281 46.3139L27.5599 47.9901ZM37.6116 34.1436C41.8552 30.1448 46.7508 27.0833 52.3143 24.9561L50.8857 21.2199C44.8438 23.53 39.4995 26.8685 34.8684 31.2324L37.6116 34.1436ZM52.3381 24.9468C57.8937 22.7409 63.8286 21.632 70.16 21.632V17.632C63.35 17.632 56.9117 18.8271 50.8619 21.2292L52.3381 24.9468ZM70.16 21.632C75.0882 21.632 79.8415 22.3297 84.427 23.7218L85.589 19.8942C80.6172 18.385 75.4718 17.632 70.16 17.632V21.632ZM84.4675 23.7336C89.1816 25.0568 93.3658 26.8255 97.035 29.027L99.093 25.597C95.0822 23.1905 90.5624 21.2898 85.5485 19.8824L84.4675 23.7336ZM97.0516 29.0368C100.837 31.2586 103.814 33.6469 106.031 36.181L109.041 33.547C106.48 30.6198 103.142 27.9734 99.0764 25.5872L97.0516 29.0368ZM105.982 33.6056L97.2775 44.3576L100.386 46.8744L109.09 36.1224L105.982 33.6056ZM100.177 44.1361C97.265 41.4885 94.2087 39.2277 91.0077 37.3604L88.9923 40.8156C91.9353 42.5323 94.767 44.6235 97.4867 47.0959L100.177 44.1361ZM91.0429 37.3814C87.814 35.4082 84.3991 33.9247 80.8023 32.9356L79.7417 36.7924C82.9716 37.6806 86.042 39.0131 88.9571 40.7946L91.0429 37.3814ZM80.8467 32.9483C77.233 31.8642 73.4116 31.328 69.392 31.328V35.328C73.0524 35.328 76.4843 35.8157 79.6973 36.7797L80.8467 32.9483ZM69.392 31.328C64.7988 31.328 60.3748 32.1396 56.1327 33.7643L57.5633 37.4997C61.3425 36.0523 65.2812 35.328 69.392 35.328V31.328ZM56.1327 33.7643C51.8992 35.3856 48.1058 37.6876 44.7648 40.6674L47.4272 43.6526C50.4009 41.0004 53.7755 38.9504 57.5633 37.4997L56.1327 33.7643ZM44.7673 40.6652C41.4848 43.583 38.8531 47.1299 36.8677 51.2811L40.4763 53.0069C42.2456 49.3075 44.5632 46.1984 47.4247 43.6548L44.7673 40.6652ZM36.8526 51.3134C34.9294 55.5263 33.984 60.1658 33.984 65.2H37.984C37.984 60.6769 38.8306 56.6124 40.4914 52.9746L36.8526 51.3134ZM33.984 65.2C33.984 70.555 34.9218 75.4055 36.846 79.7119L40.498 78.0801C38.8382 74.3652 37.984 70.085 37.984 65.2H33.984ZM36.8606 79.7439C38.8527 83.9997 41.5802 87.641 45.0406 90.6461L47.6634 87.6259C44.6385 84.999 42.246 81.8136 40.4834 78.0481L36.8606 79.7439ZM45.0834 90.6821C48.599 93.5668 52.5625 95.7717 56.9605 97.2975L58.2715 93.5185C54.3069 92.143 50.761 90.1666 47.6206 87.5899L45.0834 90.6821ZM56.9722 97.3015C61.4584 98.8269 66.1996 99.584 71.184 99.584V95.584C66.611 95.584 62.3069 94.8905 58.2598 93.5145L56.9722 97.3015ZM71.184 99.584C75.5272 99.584 79.5219 99.0523 83.1507 97.9637L82.0013 94.1323C78.8034 95.0917 75.2035 95.584 71.184 95.584V99.584ZM83.1942 97.9501C86.7409 96.7974 89.9978 95.3276 92.9566 93.5344L90.8834 90.1136C88.2102 91.7337 85.2378 93.0799 81.9578 94.1459L83.1942 97.9501ZM92.9938 93.5113C95.8677 91.6825 98.492 89.8026 100.863 87.8705L98.3367 84.7695C96.1 86.592 93.6043 88.3815 90.8463 90.1367L92.9938 93.5113ZM97.8816 87.3433L104.666 98.7353L108.102 96.6887L101.318 85.2967L97.8816 87.3433ZM104.998 96.2703C102.944 98.2451 100.072 100.282 96.3247 102.364L98.2673 105.86C102.2 103.676 105.387 101.446 107.77 99.1537L104.998 96.2703ZM96.3383 102.356C92.732 104.323 88.6056 105.978 83.9466 107.309L85.0454 111.155C89.9437 109.756 94.3507 107.997 98.2537 105.868L96.3383 102.356ZM83.9373 107.312C79.4369 108.621 74.6766 109.28 69.648 109.28V113.28C75.0301 113.28 80.1684 112.574 85.0547 111.152L83.9373 107.312ZM121.444 110L119.615 109.19L118.371 112H121.444V110ZM161.124 20.4V18.4H159.822L159.295 19.5901L161.124 20.4ZM176.356 20.4L178.186 19.5923L177.659 18.4H176.356V20.4ZM215.908 110V112H218.977L217.738 109.192L215.908 110ZM200.932 110L199.103 110.81L199.631 112H200.932V110ZM175.076 51.632L176.905 50.822L176.873 50.7516L176.837 50.6838L175.076 51.632ZM173.028 47.152L171.148 47.8355L171.162 47.8727L171.177 47.9093L173.028 47.152ZM170.724 41.264L168.842 41.9414L168.859 41.9878L168.878 42.0332L170.724 41.264ZM168.42 35.12L166.523 35.7524L166.539 35.8011L166.558 35.8488L168.42 35.12ZM166.628 29.872L166.557 27.8733L163.836 27.9704L164.742 30.5376L166.628 29.872ZM170.212 29.744L172.081 30.456L173.155 27.6376L170.141 27.7453L170.212 29.744ZM168.036 35.376L166.174 34.6472L166.16 34.6828L166.147 34.719L168.036 35.376ZM165.86 41.392L167.722 42.1208L167.728 42.1076L167.733 42.0942L165.86 41.392ZM163.556 47.152L165.394 47.9398L165.401 47.9246L165.407 47.9093L163.556 47.152ZM161.38 52.144L159.552 51.3317L159.551 51.3347L161.38 52.144ZM135.78 110V112H137.082L137.609 110.809L135.78 110ZM138.852 88.496L136.991 87.7625L135.914 90.496H138.852V88.496ZM144.1 75.184V73.184H142.739L142.239 74.4505L144.1 75.184ZM191.844 75.184L193.766 74.6297L193.349 73.184H191.844V75.184ZM195.684 88.496V90.496H198.342L197.606 87.9417L195.684 88.496ZM123.273 110.81L162.953 21.2098L159.295 19.5901L119.615 109.19L123.273 110.81ZM161.124 22.4H176.356V18.4H161.124V22.4ZM174.526 21.2077L214.078 110.808L217.738 109.192L178.186 19.5923L174.526 21.2077ZM215.908 108H200.932V112H215.908V108ZM202.761 109.19L176.905 50.822L173.247 52.442L199.103 110.81L202.761 109.19ZM176.837 50.6838C176.287 49.6621 175.634 48.241 174.879 46.3947L171.177 47.9093C171.958 49.8177 172.671 51.3832 173.315 52.5802L176.837 50.6838ZM174.908 46.4685C174.213 44.5594 173.434 42.568 172.57 40.4948L168.878 42.0332C169.721 44.056 170.477 45.9899 171.148 47.8355L174.908 46.4685ZM172.606 40.5866C171.832 38.4373 171.058 36.3721 170.282 34.3912L166.558 35.8488C167.318 37.7932 168.08 39.824 168.842 41.9414L172.606 40.5866ZM170.317 34.4875C169.632 32.4325 169.031 30.6714 168.514 29.2064L164.742 30.5376C165.249 31.9739 165.842 33.7115 166.523 35.7524L170.317 34.4875ZM166.699 31.8707L170.283 31.7427L170.141 27.7453L166.557 27.8733L166.699 31.8707ZM168.343 29.032C167.663 30.8179 166.94 32.6896 166.174 34.6472L169.898 36.1048C170.668 34.1371 171.396 32.2541 172.081 30.456L168.343 29.032ZM166.147 34.719C165.47 36.6657 164.75 38.656 163.987 40.6898L167.733 42.0942C168.506 40.032 169.237 38.0116 169.925 36.033L166.147 34.719ZM163.998 40.6632C163.233 42.6167 162.469 44.5272 161.705 46.3947L165.407 47.9093C166.179 46.0221 166.951 44.0926 167.722 42.1208L163.998 40.6632ZM161.718 46.3642C160.953 48.1492 160.231 49.805 159.552 51.3317L163.208 52.9563C163.894 51.411 164.623 49.7388 165.394 47.9398L161.718 46.3642ZM159.551 51.3347L133.951 109.191L137.609 110.809L163.209 52.9533L159.551 51.3347ZM135.78 108H121.444V112H135.78V108ZM140.713 89.2295L145.961 75.9175L142.239 74.4505L136.991 87.7625L140.713 89.2295ZM144.1 77.184H191.844V73.184H144.1V77.184ZM189.922 75.7383L193.762 89.0503L197.606 87.9417L193.766 74.6297L189.922 75.7383ZM195.684 86.496H138.852V90.496H195.684V86.496ZM237.445 110H235.445V112H237.445V110ZM237.445 20.4V18.4H235.445V20.4H237.445ZM250.629 20.4L252.128 19.0761L251.531 18.4H250.629V20.4ZM315.397 93.744L316.735 95.2306L318.208 93.9052L316.896 92.4202L315.397 93.744ZM314.117 94.896L312.148 95.2476L312.781 98.7895L315.455 96.3826L314.117 94.896ZM313.093 87.216L315.084 87.0293L315.084 87.0293L313.093 87.216ZM312.325 78.64L310.328 78.7509L310.33 78.7809L310.332 78.8108L312.325 78.64ZM311.813 69.296L309.814 69.3486L309.814 69.3763L309.816 69.4039L311.813 69.296ZM311.557 59.568H309.557V59.5943L309.558 59.6206L311.557 59.568ZM311.557 20.4V18.4H309.557V20.4H311.557ZM325.381 20.4H327.381V18.4H325.381V20.4ZM325.381 110V112H327.381V110H325.381ZM311.941 110L310.457 111.341L311.053 112H311.941V110ZM248.069 39.344L246.186 38.6713L245.783 39.7978L246.585 40.6852L248.069 39.344ZM248.709 37.552L250.702 37.3904L246.826 36.8793L248.709 37.552ZM249.477 46.512L247.485 46.6931L247.486 46.6987L249.477 46.512ZM250.117 54.448L248.121 54.581L248.124 54.6175L248.128 54.6538L250.117 54.448ZM250.757 61.36L248.763 61.5195L250.757 61.36ZM251.141 67.504L249.143 67.5909L249.143 67.5948L251.141 67.504ZM251.269 110V112H253.269V110H251.269ZM239.445 110V20.4H235.445V110H239.445ZM237.445 22.4H250.629V18.4H237.445V22.4ZM249.13 21.7238L313.898 95.0678L316.896 92.4202L252.128 19.0761L249.13 21.7238ZM314.059 92.2574L312.779 93.4094L315.455 96.3826L316.735 95.2306L314.059 92.2574ZM316.086 94.5444C315.67 92.2162 315.336 89.7117 315.084 87.0293L311.102 87.4027C311.362 90.1816 311.711 92.7971 312.148 95.2476L316.086 94.5444ZM315.084 87.0293C314.829 84.3044 314.573 81.451 314.318 78.4692L310.332 78.8108C310.589 81.8023 310.845 84.6663 311.102 87.4027L315.084 87.0293ZM314.322 78.5291C314.151 75.4581 313.981 72.3444 313.81 69.188L309.816 69.4039C309.987 72.5623 310.157 75.6779 310.328 78.7509L314.322 78.5291ZM313.812 69.2434C313.727 66.0007 313.642 62.7581 313.556 59.5154L309.558 59.6206C309.643 62.8633 309.728 66.1059 309.814 69.3486L313.812 69.2434ZM313.557 59.568C313.557 59.5617 313.557 59.5553 313.557 59.549C313.557 59.5427 313.557 59.5363 313.557 59.53C313.557 59.5237 313.557 59.5173 313.557 59.511C313.557 59.5047 313.557 59.4983 313.557 59.492C313.557 59.4857 313.557 59.4793 313.557 59.473C313.557 59.4667 313.557 59.4603 313.557 59.454C313.557 59.4477 313.557 59.4413 313.557 59.435C313.557 59.4287 313.557 59.4223 313.557 59.416C313.557 59.4097 313.557 59.4033 313.557 59.397C313.557 59.3907 313.557 59.3843 313.557 59.378C313.557 59.3717 313.557 59.3653 313.557 59.359C313.557 59.3527 313.557 59.3463 313.557 59.34C313.557 59.3337 313.557 59.3273 313.557 59.321C313.557 59.3147 313.557 59.3083 313.557 59.302C313.557 59.2957 313.557 59.2893 313.557 59.283C313.557 59.2767 313.557 59.2703 313.557 59.264C313.557 59.2577 313.557 59.2513 313.557 59.245C313.557 59.2387 313.557 59.2323 313.557 59.226C313.557 59.2197 313.557 59.2133 313.557 59.207C313.557 59.2007 313.557 59.1943 313.557 59.188C313.557 59.1817 313.557 59.1753 313.557 59.169C313.557 59.1627 313.557 59.1563 313.557 59.15C313.557 59.1437 313.557 59.1373 313.557 59.131C313.557 59.1247 313.557 59.1183 313.557 59.112C313.557 59.1057 313.557 59.0993 313.557 59.093C313.557 59.0867 313.557 59.0803 313.557 59.074C313.557 59.0677 313.557 59.0613 313.557 59.055C313.557 59.0487 313.557 59.0423 313.557 59.036C313.557 59.0297 313.557 59.0233 313.557 59.017C313.557 59.0107 313.557 59.0043 313.557 58.998C313.557 58.9917 313.557 58.9853 313.557 58.979C313.557 58.9727 313.557 58.9663 313.557 58.96C313.557 58.9537 313.557 58.9473 313.557 58.941C313.557 58.9347 313.557 58.9283 313.557 58.922C313.557 58.9157 313.557 58.9093 313.557 58.903C313.557 58.8967 313.557 58.8903 313.557 58.884C313.557 58.8777 313.557 58.8713 313.557 58.865C313.557 58.8587 313.557 58.8523 313.557 58.846C313.557 58.8397 313.557 58.8333 313.557 58.827C313.557 58.8207 313.557 58.8143 313.557 58.808C313.557 58.8017 313.557 58.7953 313.557 58.789C313.557 58.7827 313.557 58.7763 313.557 58.77C313.557 58.7637 313.557 58.7573 313.557 58.751C313.557 58.7447 313.557 58.7383 313.557 58.732C313.557 58.7257 313.557 58.7193 313.557 58.713C313.557 58.7067 313.557 58.7003 313.557 58.694C313.557 58.6877 313.557 58.6813 313.557 58.675C313.557 58.6687 313.557 58.6623 313.557 58.656C313.557 58.6497 313.557 58.6433 313.557 58.637C313.557 58.6307 313.557 58.6243 313.557 58.618C313.557 58.6117 313.557 58.6053 313.557 58.599C313.557 58.5927 313.557 58.5863 313.557 58.58C313.557 58.5737 313.557 58.5673 313.557 58.561C313.557 58.5547 313.557 58.5483 313.557 58.542C313.557 58.5357 313.557 58.5293 313.557 58.523C313.557 58.5167 313.557 58.5103 313.557 58.504C313.557 58.4977 313.557 58.4913 313.557 58.485C313.557 58.4787 313.557 58.4723 313.557 58.466C313.557 58.4597 313.557 58.4533 313.557 58.447C313.557 58.4407 313.557 58.4343 313.557 58.428C313.557 58.4217 313.557 58.4153 313.557 58.409C313.557 58.4027 313.557 58.3963 313.557 58.39C313.557 58.3837 313.557 58.3773 313.557 58.371C313.557 58.3647 313.557 58.3583 313.557 58.352C313.557 58.3457 313.557 58.3393 313.557 58.333C313.557 58.3267 313.557 58.3203 313.557 58.314C313.557 58.3077 313.557 58.3013 313.557 58.295C313.557 58.2887 313.557 58.2823 313.557 58.276C313.557 58.2697 313.557 58.2633 313.557 58.257C313.557 58.2507 313.557 58.2443 313.557 58.238C313.557 58.2317 313.557 58.2253 313.557 58.219C313.557 58.2127 313.557 58.2063 313.557 58.2C313.557 58.1937 313.557 58.1873 313.557 58.181C313.557 58.1747 313.557 58.1683 313.557 58.162C313.557 58.1557 313.557 58.1493 313.557 58.143C313.557 58.1367 313.557 58.1303 313.557 58.124C313.557 58.1177 313.557 58.1113 313.557 58.105C313.557 58.0987 313.557 58.0923 313.557 58.086C313.557 58.0797 313.557 58.0733 313.557 58.067C313.557 58.0607 313.557 58.0543 313.557 58.048C313.557 58.0417 313.557 58.0353 313.557 58.029C313.557 58.0227 313.557 58.0163 313.557 58.01C313.557 58.0037 313.557 57.9973 313.557 57.991C313.557 57.9847 313.557 57.9783 313.557 57.972C313.557 57.9657 313.557 57.9593 313.557 57.953C313.557 57.9467 313.557 57.9403 313.557 57.934C313.557 57.9277 313.557 57.9213 313.557 57.915C313.557 57.9087 313.557 57.9023 313.557 57.896C313.557 57.8897 313.557 57.8833 313.557 57.877C313.557 57.8707 313.557 57.8643 313.557 57.858C313.557 57.8517 313.557 57.8453 313.557 57.839C313.557 57.8327 313.557 57.8263 313.557 57.82C313.557 57.8137 313.557 57.8073 313.557 57.801C313.557 57.7947 313.557 57.7883 313.557 57.782C313.557 57.7757 313.557 57.7693 313.557 57.763C313.557 57.7567 313.557 57.7503 313.557 57.744C313.557 57.7377 313.557 57.7313 313.557 57.725C313.557 57.7187 313.557 57.7123 313.557 57.706C313.557 57.6997 313.557 57.6933 313.557 57.687C313.557 57.6807 313.557 57.6743 313.557 57.668C313.557 57.6617 313.557 57.6553 313.557 57.649C313.557 57.6427 313.557 57.6363 313.557 57.63C313.557 57.6237 313.557 57.6173 313.557 57.611C313.557 57.6047 313.557 57.5983 313.557 57.592C313.557 57.5857 313.557 57.5793 313.557 57.573C313.557 57.5667 313.557 57.5603 313.557 57.554C313.557 57.5477 313.557 57.5413 313.557 57.535C313.557 57.5287 313.557 57.5223 313.557 57.516C313.557 57.5097 313.557 57.5033 313.557 57.497C313.557 57.4907 313.557 57.4843 313.557 57.478C313.557 57.4717 313.557 57.4653 313.557 57.459C313.557 57.4527 313.557 57.4463 313.557 57.44C313.557 57.4337 313.557 57.4273 313.557 57.421C313.557 57.4147 313.557 57.4083 313.557 57.402C313.557 57.3957 313.557 57.3893 313.557 57.383C313.557 57.3767 313.557 57.3703 313.557 57.364C313.557 57.3577 313.557 57.3513 313.557 57.345C313.557 57.3387 313.557 57.3323 313.557 57.326C313.557 57.3197 313.557 57.3133 313.557 57.307C313.557 57.3007 313.557 57.2943 313.557 57.288C313.557 57.2817 313.557 57.2753 313.557 57.269C313.557 57.2627 313.557 57.2563 313.557 57.25C313.557 57.2437 313.557 57.2373 313.557 57.231C313.557 57.2247 313.557 57.2183 313.557 57.212C313.557 57.2057 313.557 57.1993 313.557 57.193C313.557 57.1867 313.557 57.1803 313.557 57.174C313.557 57.1677 313.557 57.1613 313.557 57.155C313.557 57.1487 313.557 57.1423 313.557 57.136C313.557 57.1297 313.557 57.1233 313.557 57.117C313.557 57.1107 313.557 57.1043 313.557 57.098C313.557 57.0917 313.557 57.0853 313.557 57.079C313.557 57.0727 313.557 57.0663 313.557 57.06C313.557 57.0537 313.557 57.0473 313.557 57.041C313.557 57.0347 313.557 57.0283 313.557 57.022C313.557 57.0157 313.557 57.0093 313.557 57.003C313.557 56.9967 313.557 56.9903 313.557 56.984C313.557 56.9777 313.557 56.9713 313.557 56.965C313.557 56.9587 313.557 56.9523 313.557 56.946C313.557 56.9397 313.557 56.9333 313.557 56.927C313.557 56.9207 313.557 56.9143 313.557 56.908C313.557 56.9017 313.557 56.8953 313.557 56.889C313.557 56.8827 313.557 56.8763 313.557 56.87C313.557 56.8637 313.557 56.8573 313.557 56.851C313.557 56.8447 313.557 56.8383 313.557 56.832C313.557 56.8257 313.557 56.8193 313.557 56.813C313.557 56.8067 313.557 56.8003 313.557 56.794C313.557 56.7877 313.557 56.7813 313.557 56.775C313.557 56.7687 313.557 56.7623 313.557 56.756C313.557 56.7497 313.557 56.7433 313.557 56.737C313.557 56.7307 313.557 56.7243 313.557 56.718C313.557 56.7117 313.557 56.7053 313.557 56.699C313.557 56.6927 313.557 56.6863 313.557 56.68C313.557 56.6737 313.557 56.6673 313.557 56.661C313.557 56.6547 313.557 56.6483 313.557 56.642C313.557 56.6357 313.557 56.6293 313.557 56.623C313.557 56.6167 313.557 56.6103 313.557 56.604C313.557 56.5977 313.557 56.5913 313.557 56.585C313.557 56.5787 313.557 56.5723 313.557 56.566C313.557 56.5597 313.557 56.5533 313.557 56.547C313.557 56.5407 313.557 56.5343 313.557 56.528C313.557 56.5217 313.557 56.5153 313.557 56.509C313.557 56.5027 313.557 56.4963 313.557 56.49C313.557 56.4837 313.557 56.4773 313.557 56.471C313.557 56.4647 313.557 56.4583 313.557 56.452C313.557 56.4457 313.557 56.4393 313.557 56.433C313.557 56.4267 313.557 56.4203 313.557 56.414C313.557 56.4077 313.557 56.4013 313.557 56.395C313.557 56.3887 313.557 56.3823 313.557 56.376C313.557 56.3697 313.557 56.3633 313.557 56.357C313.557 56.3507 313.557 56.3443 313.557 56.338C313.557 56.3317 313.557 56.3253 313.557 56.319C313.557 56.3127 313.557 56.3063 313.557 56.3C313.557 56.2937 313.557 56.2873 313.557 56.281C313.557 56.2747 313.557 56.2683 313.557 56.262C313.557 56.2557 313.557 56.2493 313.557 56.243C313.557 56.2367 313.557 56.2303 313.557 56.224C313.557 56.2177 313.557 56.2113 313.557 56.205C313.557 56.1987 313.557 56.1923 313.557 56.186C313.557 56.1797 313.557 56.1733 313.557 56.167C313.557 56.1607 313.557 56.1543 313.557 56.148C313.557 56.1417 313.557 56.1353 313.557 56.129C313.557 56.1227 313.557 56.1163 313.557 56.11C313.557 56.1037 313.557 56.0973 313.557 56.091C313.557 56.0847 313.557 56.0783 313.557 56.072C313.557 56.0657 313.557 56.0593 313.557 56.053C313.557 56.0467 313.557 56.0403 313.557 56.034C313.557 56.0277 313.557 56.0213 313.557 56.015C313.557 56.0087 313.557 56.0023 313.557 55.996C313.557 55.9897 313.557 55.9833 313.557 55.977C313.557 55.9707 313.557 55.9643 313.557 55.958C313.557 55.9517 313.557 55.9453 313.557 55.939C313.557 55.9327 313.557 55.9263 313.557 55.92C313.557 55.9137 313.557 55.9073 313.557 55.901C313.557 55.8947 313.557 55.8883 313.557 55.882C313.557 55.8757 313.557 55.8693 313.557 55.863C313.557 55.8567 313.557 55.8503 313.557 55.844C313.557 55.8377 313.557 55.8313 313.557 55.825C313.557 55.8187 313.557 55.8123 313.557 55.806C313.557 55.7997 313.557 55.7933 313.557 55.787C313.557 55.7807 313.557 55.7743 313.557 55.768C313.557 55.7617 313.557 55.7553 313.557 55.749C313.557 55.7427 313.557 55.7363 313.557 55.73C313.557 55.7237 313.557 55.7173 313.557 55.711C313.557 55.7047 313.557 55.6983 313.557 55.692C313.557 55.6857 313.557 55.6793 313.557 55.673C313.557 55.6667 313.557 55.6603 313.557 55.654C313.557 55.6477 313.557 55.6413 313.557 55.635C313.557 55.6287 313.557 55.6223 313.557 55.616C313.557 55.6097 313.557 55.6033 313.557 55.597C313.557 55.5907 313.557 55.5843 313.557 55.578C313.557 55.5717 313.557 55.5653 313.557 55.559C313.557 55.5527 313.557 55.5463 313.557 55.54C313.557 55.5337 313.557 55.5273 313.557 55.521C313.557 55.5147 313.557 55.5083 313.557 55.502C313.557 55.4957 313.557 55.4893 313.557 55.483C313.557 55.4767 313.557 55.4703 313.557 55.464C313.557 55.4577 313.557 55.4513 313.557 55.445C313.557 55.4387 313.557 55.4323 313.557 55.426C313.557 55.4197 313.557 55.4133 313.557 55.407C313.557 55.4007 313.557 55.3943 313.557 55.388C313.557 55.3817 313.557 55.3753 313.557 55.369C313.557 55.3627 313.557 55.3563 313.557 55.35C313.557 55.3437 313.557 55.3373 313.557 55.331C313.557 55.3247 313.557 55.3183 313.557 55.312C313.557 55.3057 313.557 55.2993 313.557 55.293C313.557 55.2867 313.557 55.2803 313.557 55.274C313.557 55.2677 313.557 55.2613 313.557 55.255C313.557 55.2487 313.557 55.2423 313.557 55.236C313.557 55.2297 313.557 55.2233 313.557 55.217C313.557 55.2107 313.557 55.2043 313.557 55.198C313.557 55.1917 313.557 55.1853 313.557 55.179C313.557 55.1727 313.557 55.1663 313.557 55.16C313.557 55.1537 313.557 55.1473 313.557 55.141C313.557 55.1347 313.557 55.1283 313.557 55.122C313.557 55.1157 313.557 55.1093 313.557 55.103C313.557 55.0967 313.557 55.0903 313.557 55.084C313.557 55.0777 313.557 55.0713 313.557 55.065C313.557 55.0587 313.557 55.0523 313.557 55.046C313.557 55.0397 313.557 55.0333 313.557 55.027C313.557 55.0207 313.557 55.0143 313.557 55.008C313.557 55.0017 313.557 54.9953 313.557 54.989C313.557 54.9827 313.557 54.9763 313.557 54.97C313.557 54.9637 313.557 54.9573 313.557 54.951C313.557 54.9447 313.557 54.9383 313.557 54.932C313.557 54.9257 313.557 54.9193 313.557 54.913C313.557 54.9067 313.557 54.9003 313.557 54.894C313.557 54.8877 313.557 54.8813 313.557 54.875C313.557 54.8687 313.557 54.8623 313.557 54.856C313.557 54.8497 313.557 54.8433 313.557 54.837C313.557 54.8307 313.557 54.8243 313.557 54.818C313.557 54.8117 313.557 54.8053 313.557 54.799C313.557 54.7927 313.557 54.7863 313.557 54.78C313.557 54.7737 313.557 54.7673 313.557 54.761C313.557 54.7547 313.557 54.7483 313.557 54.742C313.557 54.7357 313.557 54.7293 313.557 54.723C313.557 54.7167 313.557 54.7103 313.557 54.704C313.557 54.6977 313.557 54.6913 313.557 54.685C313.557 54.6787 313.557 54.6723 313.557 54.666C313.557 54.6597 313.557 54.6533 313.557 54.647C313.557 54.6407 313.557 54.6343 313.557 54.628C313.557 54.6217 313.557 54.6153 313.557 54.609C313.557 54.6027 313.557 54.5963 313.557 54.59C313.557 54.5837 313.557 54.5773 313.557 54.571C313.557 54.5647 313.557 54.5583 313.557 54.552C313.557 54.5457 313.557 54.5393 313.557 54.533C313.557 54.5267 313.557 54.5203 313.557 54.514C313.557 54.5077 313.557 54.5013 313.557 54.495C313.557 54.4887 313.557 54.4823 313.557 54.476C313.557 54.4697 313.557 54.4633 313.557 54.457C313.557 54.4507 313.557 54.4443 313.557 54.438C313.557 54.4317 313.557 54.4253 313.557 54.419C313.557 54.4127 313.557 54.4063 313.557 54.4C313.557 54.3937 313.557 54.3873 313.557 54.381C313.557 54.3747 313.557 54.3683 313.557 54.362C313.557 54.3557 313.557 54.3493 313.557 54.343C313.557 54.3367 313.557 54.3303 313.557 54.324C313.557 54.3177 313.557 54.3113 313.557 54.305C313.557 54.2987 313.557 54.2923 313.557 54.286C313.557 54.2797 313.557 54.2733 313.557 54.267C313.557 54.2607 313.557 54.2543 313.557 54.248C313.557 54.2417 313.557 54.2353 313.557 54.229C313.557 54.2227 313.557 54.2163 313.557 54.21C313.557 54.2037 313.557 54.1973 313.557 54.191C313.557 54.1847 313.557 54.1783 313.557 54.172C313.557 54.1657 313.557 54.1593 313.557 54.153C313.557 54.1467 313.557 54.1403 313.557 54.134C313.557 54.1277 313.557 54.1213 313.557 54.115C313.557 54.1087 313.557 54.1023 313.557 54.096C313.557 54.0897 313.557 54.0833 313.557 54.077C313.557 54.0707 313.557 54.0643 313.557 54.058C313.557 54.0517 313.557 54.0453 313.557 54.039C313.557 54.0327 313.557 54.0263 313.557 54.02C313.557 54.0137 313.557 54.0073 313.557 54.001C313.557 53.9947 313.557 53.9883 313.557 53.982C313.557 53.9757 313.557 53.9693 313.557 53.963C313.557 53.9567 313.557 53.9503 313.557 53.944C313.557 53.9377 313.557 53.9313 313.557 53.925C313.557 53.9187 313.557 53.9123 313.557 53.906C313.557 53.8997 313.557 53.8933 313.557 53.887C313.557 53.8807 313.557 53.8743 313.557 53.868C313.557 53.8617 313.557 53.8553 313.557 53.849C313.557 53.8427 313.557 53.8363 313.557 53.83C313.557 53.8237 313.557 53.8173 313.557 53.811C313.557 53.8047 313.557 53.7983 313.557 53.792C313.557 53.7857 313.557 53.7793 313.557 53.773C313.557 53.7667 313.557 53.7603 313.557 53.754C313.557 53.7477 313.557 53.7413 313.557 53.735C313.557 53.7287 313.557 53.7223 313.557 53.716C313.557 53.7097 313.557 53.7033 313.557 53.697C313.557 53.6907 313.557 53.6843 313.557 53.678C313.557 53.6717 313.557 53.6653 313.557 53.659C313.557 53.6527 313.557 53.6463 313.557 53.64C313.557 53.6337 313.557 53.6273 313.557 53.621C313.557 53.6147 313.557 53.6083 313.557 53.602C313.557 53.5957 313.557 53.5893 313.557 53.583C313.557 53.5767 313.557 53.5703 313.557 53.564C313.557 53.5577 313.557 53.5513 313.557 53.545C313.557 53.5387 313.557 53.5323 313.557 53.526C313.557 53.5197 313.557 53.5133 313.557 53.507C313.557 53.5007 313.557 53.4943 313.557 53.488C313.557 53.4817 313.557 53.4753 313.557 53.469C313.557 53.4627 313.557 53.4563 313.557 53.45C313.557 53.4437 313.557 53.4373 313.557 53.431C313.557 53.4247 313.557 53.4183 313.557 53.412C313.557 53.4057 313.557 53.3993 313.557 53.393C313.557 53.3867 313.557 53.3803 313.557 53.374C313.557 53.3677 313.557 53.3613 313.557 53.355C313.557 53.3487 313.557 53.3423 313.557 53.336C313.557 53.3297 313.557 53.3233 313.557 53.317C313.557 53.3107 313.557 53.3043 313.557 53.298C313.557 53.2917 313.557 53.2853 313.557 53.279C313.557 53.2727 313.557 53.2663 313.557 53.26C313.557 53.2537 313.557 53.2473 313.557 53.241C313.557 53.2347 313.557 53.2283 313.557 53.222C313.557 53.2157 313.557 53.2093 313.557 53.203C313.557 53.1967 313.557 53.1903 313.557 53.184C313.557 53.1777 313.557 53.1713 313.557 53.165C313.557 53.1587 313.557 53.1523 313.557 53.146C313.557 53.1397 313.557 53.1333 313.557 53.127C313.557 53.1207 313.557 53.1143 313.557 53.108C313.557 53.1017 313.557 53.0953 313.557 53.089C313.557 53.0827 313.557 53.0763 313.557 53.07C313.557 53.0637 313.557 53.0573 313.557 53.051C313.557 53.0447 313.557 53.0383 313.557 53.032C313.557 53.0257 313.557 53.0193 313.557 53.013C313.557 53.0067 313.557 53.0003 313.557 52.994C313.557 52.9877 313.557 52.9813 313.557 52.975C313.557 52.9687 313.557 52.9623 313.557 52.956C313.557 52.9497 313.557 52.9433 313.557 52.937C313.557 52.9307 313.557 52.9243 313.557 52.918C313.557 52.9117 313.557 52.9053 313.557 52.899C313.557 52.8927 313.557 52.8863 313.557 52.88C313.557 52.8737 313.557 52.8673 313.557 52.861C313.557 52.8547 313.557 52.8483 313.557 52.842C313.557 52.8357 313.557 52.8293 313.557 52.823C313.557 52.8167 313.557 52.8103 313.557 52.804C313.557 52.7977 313.557 52.7913 313.557 52.785C313.557 52.7787 313.557 52.7723 313.557 52.766C313.557 52.7597 313.557 52.7533 313.557 52.747C313.557 52.7407 313.557 52.7343 313.557 52.728C313.557 52.7217 313.557 52.7153 313.557 52.709C313.557 52.7027 313.557 52.6963 313.557 52.69C313.557 52.6837 313.557 52.6773 313.557 52.671C313.557 52.6647 313.557 52.6583 313.557 52.652C313.557 52.6457 313.557 52.6393 313.557 52.633C313.557 52.6267 313.557 52.6203 313.557 52.614C313.557 52.6077 313.557 52.6013 313.557 52.595C313.557 52.5887 313.557 52.5823 313.557 52.576C313.557 52.5697 313.557 52.5633 313.557 52.557C313.557 52.5507 313.557 52.5443 313.557 52.538C313.557 52.5317 313.557 52.5253 313.557 52.519C313.557 52.5127 313.557 52.5063 313.557 52.5C313.557 52.4937 313.557 52.4873 313.557 52.481C313.557 52.4747 313.557 52.4683 313.557 52.462C313.557 52.4557 313.557 52.4493 313.557 52.443C313.557 52.4367 313.557 52.4303 313.557 52.424C313.557 52.4177 313.557 52.4113 313.557 52.405C313.557 52.3987 313.557 52.3923 313.557 52.386C313.557 52.3797 313.557 52.3733 313.557 52.367C313.557 52.3607 313.557 52.3543 313.557 52.348C313.557 52.3417 313.557 52.3353 313.557 52.329C313.557 52.3227 313.557 52.3163 313.557 52.31C313.557 52.3037 313.557 52.2973 313.557 52.291C313.557 52.2847 313.557 52.2783 313.557 52.272C313.557 52.2657 313.557 52.2593 313.557 52.253C313.557 52.2467 313.557 52.2403 313.557 52.234C313.557 52.2277 313.557 52.2213 313.557 52.215C313.557 52.2087 313.557 52.2023 313.557 52.196C313.557 52.1897 313.557 52.1833 313.557 52.177C313.557 52.1707 313.557 52.1643 313.557 52.158C313.557 52.1517 313.557 52.1453 313.557 52.139C313.557 52.1327 313.557 52.1263 313.557 52.12C313.557 52.1137 313.557 52.1073 313.557 52.101C313.557 52.0947 313.557 52.0883 313.557 52.082C313.557 52.0757 313.557 52.0693 313.557 52.063C313.557 52.0567 313.557 52.0503 313.557 52.044C313.557 52.0377 313.557 52.0313 313.557 52.025C313.557 52.0187 313.557 52.0123 313.557 52.006C313.557 51.9997 313.557 51.9933 313.557 51.987C313.557 51.9807 313.557 51.9743 313.557 51.968C313.557 51.9617 313.557 51.9553 313.557 51.949C313.557 51.9427 313.557 51.9363 313.557 51.93C313.557 51.9237 313.557 51.9173 313.557 51.911C313.557 51.9047 313.557 51.8983 313.557 51.892C313.557 51.8857 313.557 51.8793 313.557 51.873C313.557 51.8667 313.557 51.8603 313.557 51.854C313.557 51.8477 313.557 51.8413 313.557 51.835C313.557 51.8287 313.557 51.8223 313.557 51.816C313.557 51.8097 313.557 51.8033 313.557 51.797C313.557 51.7907 313.557 51.7843 313.557 51.778C313.557 51.7717 313.557 51.7653 313.557 51.759C313.557 51.7527 313.557 51.7463 313.557 51.74C313.557 51.7337 313.557 51.7273 313.557 51.721C313.557 51.7147 313.557 51.7083 313.557 51.702C313.557 51.6957 313.557 51.6893 313.557 51.683C313.557 51.6767 313.557 51.6703 313.557 51.664C313.557 51.6577 313.557 51.6513 313.557 51.645C313.557 51.6387 313.557 51.6323 313.557 51.626C313.557 51.6197 313.557 51.6133 313.557 51.607C313.557 51.6007 313.557 51.5943 313.557 51.588C313.557 51.5817 313.557 51.5753 313.557 51.569C313.557 51.5627 313.557 51.5563 313.557 51.55C313.557 51.5437 313.557 51.5373 313.557 51.531C313.557 51.5247 313.557 51.5183 313.557 51.512C313.557 51.5057 313.557 51.4993 313.557 51.493C313.557 51.4867 313.557 51.4803 313.557 51.474C313.557 51.4677 313.557 51.4613 313.557 51.455C313.557 51.4487 313.557 51.4423 313.557 51.436C313.557 51.4297 313.557 51.4233 313.557 51.417C313.557 51.4107 313.557 51.4043 313.557 51.398C313.557 51.3917 313.557 51.3853 313.557 51.379C313.557 51.3727 313.557 51.3663 313.557 51.36C313.557 51.3537 313.557 51.3473 313.557 51.341C313.557 51.3347 313.557 51.3283 313.557 51.322C313.557 51.3157 313.557 51.3093 313.557 51.303C313.557 51.2967 313.557 51.2903 313.557 51.284C313.557 51.2777 313.557 51.2713 313.557 51.265C313.557 51.2587 313.557 51.2523 313.557 51.246C313.557 51.2397 313.557 51.2333 313.557 51.227C313.557 51.2207 313.557 51.2143 313.557 51.208C313.557 51.2017 313.557 51.1953 313.557 51.189C313.557 51.1827 313.557 51.1763 313.557 51.17C313.557 51.1637 313.557 51.1573 313.557 51.151C313.557 51.1447 313.557 51.1383 313.557 51.132C313.557 51.1257 313.557 51.1193 313.557 51.113C313.557 51.1067 313.557 51.1003 313.557 51.094C313.557 51.0877 313.557 51.0813 313.557 51.075C313.557 51.0687 313.557 51.0623 313.557 51.056C313.557 51.0497 313.557 51.0433 313.557 51.037C313.557 51.0307 313.557 51.0243 313.557 51.018C313.557 51.0117 313.557 51.0053 313.557 50.999C313.557 50.9927 313.557 50.9863 313.557 50.98C313.557 50.9737 313.557 50.9673 313.557 50.961C313.557 50.9547 313.557 50.9483 313.557 50.942C313.557 50.9357 313.557 50.9293 313.557 50.923C313.557 50.9167 313.557 50.9103 313.557 50.904C313.557 50.8977 313.557 50.8913 313.557 50.885C313.557 50.8787 313.557 50.8723 313.557 50.866C313.557 50.8597 313.557 50.8533 313.557 50.847C313.557 50.8407 313.557 50.8343 313.557 50.828C313.557 50.8217 313.557 50.8153 313.557 50.809C313.557 50.8027 313.557 50.7963 313.557 50.79C313.557 50.7837 313.557 50.7773 313.557 50.771C313.557 50.7647 313.557 50.7583 313.557 50.752C313.557 50.7457 313.557 50.7393 313.557 50.733C313.557 50.7267 313.557 50.7203 313.557 50.714C313.557 50.7077 313.557 50.7013 313.557 50.695C313.557 50.6887 313.557 50.6823 313.557 50.676C313.557 50.6697 313.557 50.6633 313.557 50.657C313.557 50.6507 313.557 50.6443 313.557 50.638C313.557 50.6317 313.557 50.6253 313.557 50.619C313.557 50.6127 313.557 50.6063 313.557 50.6C313.557 50.5937 313.557 50.5873 313.557 50.581C313.557 50.5747 313.557 50.5683 313.557 50.562C313.557 50.5557 313.557 50.5493 313.557 50.543C313.557 50.5367 313.557 50.5303 313.557 50.524C313.557 50.5177 313.557 50.5113 313.557 50.505C313.557 50.4987 313.557 50.4923 313.557 50.486C313.557 50.4797 313.557 50.4733 313.557 50.467C313.557 50.4607 313.557 50.4543 313.557 50.448C313.557 50.4417 313.557 50.4353 313.557 50.429C313.557 50.4227 313.557 50.4163 313.557 50.41C313.557 50.4037 313.557 50.3973 313.557 50.391C313.557 50.3847 313.557 50.3783 313.557 50.372C313.557 50.3657 313.557 50.3593 313.557 50.353C313.557 50.3467 313.557 50.3403 313.557 50.334C313.557 50.3277 313.557 50.3213 313.557 50.315C313.557 50.3087 313.557 50.3023 313.557 50.296C313.557 50.2897 313.557 50.2833 313.557 50.277C313.557 50.2707 313.557 50.2643 313.557 50.258C313.557 50.2517 313.557 50.2453 313.557 50.239C313.557 50.2327 313.557 50.2263 313.557 50.22C313.557 50.2137 313.557 50.2073 313.557 50.201C313.557 50.1947 313.557 50.1883 313.557 50.182C313.557 50.1757 313.557 50.1693 313.557 50.163C313.557 50.1567 313.557 50.1503 313.557 50.144C313.557 50.1377 313.557 50.1313 313.557 50.125C313.557 50.1187 313.557 50.1123 313.557 50.106C313.557 50.0997 313.557 50.0933 313.557 50.087C313.557 50.0807 313.557 50.0743 313.557 50.068C313.557 50.0617 313.557 50.0553 313.557 50.049C313.557 50.0427 313.557 50.0363 313.557 50.03C313.557 50.0237 313.557 50.0173 313.557 50.011C313.557 50.0047 313.557 49.9983 313.557 49.992C313.557 49.9857 313.557 49.9793 313.557 49.973C313.557 49.9667 313.557 49.9603 313.557 49.954C313.557 49.9477 313.557 49.9413 313.557 49.935C313.557 49.9287 313.557 49.9223 313.557 49.916C313.557 49.9097 313.557 49.9033 313.557 49.897C313.557 49.8907 313.557 49.8843 313.557 49.878C313.557 49.8717 313.557 49.8653 313.557 49.859C313.557 49.8527 313.557 49.8463 313.557 49.84H309.557C309.557 49.8463 309.557 49.8527 309.557 49.859C309.557 49.8653 309.557 49.8717 309.557 49.878C309.557 49.8843 309.557 49.8907 309.557 49.897C309.557 49.9033 309.557 49.9097 309.557 49.916C309.557 49.9223 309.557 49.9287 309.557 49.935C309.557 49.9413 309.557 49.9477 309.557 49.954C309.557 49.9603 309.557 49.9667 309.557 49.973C309.557 49.9793 309.557 49.9857 309.557 49.992C309.557 49.9983 309.557 50.0047 309.557 50.011C309.557 50.0173 309.557 50.0237 309.557 50.03C309.557 50.0363 309.557 50.0427 309.557 50.049C309.557 50.0553 309.557 50.0617 309.557 50.068C309.557 50.0743 309.557 50.0807 309.557 50.087C309.557 50.0933 309.557 50.0997 309.557 50.106C309.557 50.1123 309.557 50.1187 309.557 50.125C309.557 50.1313 309.557 50.1377 309.557 50.144C309.557 50.1503 309.557 50.1567 309.557 50.163C309.557 50.1693 309.557 50.1757 309.557 50.182C309.557 50.1883 309.557 50.1947 309.557 50.201C309.557 50.2073 309.557 50.2137 309.557 50.22C309.557 50.2263 309.557 50.2327 309.557 50.239C309.557 50.2453 309.557 50.2517 309.557 50.258C309.557 50.2643 309.557 50.2707 309.557 50.277C309.557 50.2833 309.557 50.2897 309.557 50.296C309.557 50.3023 309.557 50.3087 309.557 50.315C309.557 50.3213 309.557 50.3277 309.557 50.334C309.557 50.3403 309.557 50.3467 309.557 50.353C309.557 50.3593 309.557 50.3657 309.557 50.372C309.557 50.3783 309.557 50.3847 309.557 50.391C309.557 50.3973 309.557 50.4037 309.557 50.41C309.557 50.4163 309.557 50.4227 309.557 50.429C309.557 50.4353 309.557 50.4417 309.557 50.448C309.557 50.4543 309.557 50.4607 309.557 50.467C309.557 50.4733 309.557 50.4797 309.557 50.486C309.557 50.4923 309.557 50.4987 309.557 50.505C309.557 50.5113 309.557 50.5177 309.557 50.524C309.557 50.5303 309.557 50.5367 309.557 50.543C309.557 50.5493 309.557 50.5557 309.557 50.562C309.557 50.5683 309.557 50.5747 309.557 50.581C309.557 50.5873 309.557 50.5937 309.557 50.6C309.557 50.6063 309.557 50.6127 309.557 50.619C309.557 50.6253 309.557 50.6317 309.557 50.638C309.557 50.6443 309.557 50.6507 309.557 50.657C309.557 50.6633 309.557 50.6697 309.557 50.676C309.557 50.6823 309.557 50.6887 309.557 50.695C309.557 50.7013 309.557 50.7077 309.557 50.714C309.557 50.7203 309.557 50.7267 309.557 50.733C309.557 50.7393 309.557 50.7457 309.557 50.752C309.557 50.7583 309.557 50.7647 309.557 50.771C309.557 50.7773 309.557 50.7837 309.557 50.79C309.557 50.7963 309.557 50.8027 309.557 50.809C309.557 50.8153 309.557 50.8217 309.557 50.828C309.557 50.8343 309.557 50.8407 309.557 50.847C309.557 50.8533 309.557 50.8597 309.557 50.866C309.557 50.8723 309.557 50.8787 309.557 50.885C309.557 50.8913 309.557 50.8977 309.557 50.904C309.557 50.9103 309.557 50.9167 309.557 50.923C309.557 50.9293 309.557 50.9357 309.557 50.942C309.557 50.9483 309.557 50.9547 309.557 50.961C309.557 50.9673 309.557 50.9737 309.557 50.98C309.557 50.9863 309.557 50.9927 309.557 50.999C309.557 51.0053 309.557 51.0117 309.557 51.018C309.557 51.0243 309.557 51.0307 309.557 51.037C309.557 51.0433 309.557 51.0497 309.557 51.056C309.557 51.0623 309.557 51.0687 309.557 51.075C309.557 51.0813 309.557 51.0877 309.557 51.094C309.557 51.1003 309.557 51.1067 309.557 51.113C309.557 51.1193 309.557 51.1257 309.557 51.132C309.557 51.1383 309.557 51.1447 309.557 51.151C309.557 51.1573 309.557 51.1637 309.557 51.17C309.557 51.1763 309.557 51.1827 309.557 51.189C309.557 51.1953 309.557 51.2017 309.557 51.208C309.557 51.2143 309.557 51.2207 309.557 51.227C309.557 51.2333 309.557 51.2397 309.557 51.246C309.557 51.2523 309.557 51.2587 309.557 51.265C309.557 51.2713 309.557 51.2777 309.557 51.284C309.557 51.2903 309.557 51.2967 309.557 51.303C309.557 51.3093 309.557 51.3157 309.557 51.322C309.557 51.3283 309.557 51.3347 309.557 51.341C309.557 51.3473 309.557 51.3537 309.557 51.36C309.557 51.3663 309.557 51.3727 309.557 51.379C309.557 51.3853 309.557 51.3917 309.557 51.398C309.557 51.4043 309.557 51.4107 309.557 51.417C309.557 51.4233 309.557 51.4297 309.557 51.436C309.557 51.4423 309.557 51.4487 309.557 51.455C309.557 51.4613 309.557 51.4677 309.557 51.474C309.557 51.4803 309.557 51.4867 309.557 51.493C309.557 51.4993 309.557 51.5057 309.557 51.512C309.557 51.5183 309.557 51.5247 309.557 51.531C309.557 51.5373 309.557 51.5437 309.557 51.55C309.557 51.5563 309.557 51.5627 309.557 51.569C309.557 51.5753 309.557 51.5817 309.557 51.588C309.557 51.5943 309.557 51.6007 309.557 51.607C309.557 51.6133 309.557 51.6197 309.557 51.626C309.557 51.6323 309.557 51.6387 309.557 51.645C309.557 51.6513 309.557 51.6577 309.557 51.664C309.557 51.6703 309.557 51.6767 309.557 51.683C309.557 51.6893 309.557 51.6957 309.557 51.702C309.557 51.7083 309.557 51.7147 309.557 51.721C309.557 51.7273 309.557 51.7337 309.557 51.74C309.557 51.7463 309.557 51.7527 309.557 51.759C309.557 51.7653 309.557 51.7717 309.557 51.778C309.557 51.7843 309.557 51.7907 309.557 51.797C309.557 51.8033 309.557 51.8097 309.557 51.816C309.557 51.8223 309.557 51.8287 309.557 51.835C309.557 51.8413 309.557 51.8477 309.557 51.854C309.557 51.8603 309.557 51.8667 309.557 51.873C309.557 51.8793 309.557 51.8857 309.557 51.892C309.557 51.8983 309.557 51.9047 309.557 51.911C309.557 51.9173 309.557 51.9237 309.557 51.93C309.557 51.9363 309.557 51.9427 309.557 51.949C309.557 51.9553 309.557 51.9617 309.557 51.968C309.557 51.9743 309.557 51.9807 309.557 51.987C309.557 51.9933 309.557 51.9997 309.557 52.006C309.557 52.0123 309.557 52.0187 309.557 52.025C309.557 52.0313 309.557 52.0377 309.557 52.044C309.557 52.0503 309.557 52.0567 309.557 52.063C309.557 52.0693 309.557 52.0757 309.557 52.082C309.557 52.0883 309.557 52.0947 309.557 52.101C309.557 52.1073 309.557 52.1137 309.557 52.12C309.557 52.1263 309.557 52.1327 309.557 52.139C309.557 52.1453 309.557 52.1517 309.557 52.158C309.557 52.1643 309.557 52.1707 309.557 52.177C309.557 52.1833 309.557 52.1897 309.557 52.196C309.557 52.2023 309.557 52.2087 309.557 52.215C309.557 52.2213 309.557 52.2277 309.557 52.234C309.557 52.2403 309.557 52.2467 309.557 52.253C309.557 52.2593 309.557 52.2657 309.557 52.272C309.557 52.2783 309.557 52.2847 309.557 52.291C309.557 52.2973 309.557 52.3037 309.557 52.31C309.557 52.3163 309.557 52.3227 309.557 52.329C309.557 52.3353 309.557 52.3417 309.557 52.348C309.557 52.3543 309.557 52.3607 309.557 52.367C309.557 52.3733 309.557 52.3797 309.557 52.386C309.557 52.3923 309.557 52.3987 309.557 52.405C309.557 52.4113 309.557 52.4177 309.557 52.424C309.557 52.4303 309.557 52.4367 309.557 52.443C309.557 52.4493 309.557 52.4557 309.557 52.462C309.557 52.4683 309.557 52.4747 309.557 52.481C309.557 52.4873 309.557 52.4937 309.557 52.5C309.557 52.5063 309.557 52.5127 309.557 52.519C309.557 52.5253 309.557 52.5317 309.557 52.538C309.557 52.5443 309.557 52.5507 309.557 52.557C309.557 52.5633 309.557 52.5697 309.557 52.576C309.557 52.5823 309.557 52.5887 309.557 52.595C309.557 52.6013 309.557 52.6077 309.557 52.614C309.557 52.6203 309.557 52.6267 309.557 52.633C309.557 52.6393 309.557 52.6457 309.557 52.652C309.557 52.6583 309.557 52.6647 309.557 52.671C309.557 52.6773 309.557 52.6837 309.557 52.69C309.557 52.6963 309.557 52.7027 309.557 52.709C309.557 52.7153 309.557 52.7217 309.557 52.728C309.557 52.7343 309.557 52.7407 309.557 52.747C309.557 52.7533 309.557 52.7597 309.557 52.766C309.557 52.7723 309.557 52.7787 309.557 52.785C309.557 52.7913 309.557 52.7977 309.557 52.804C309.557 52.8103 309.557 52.8167 309.557 52.823C309.557 52.8293 309.557 52.8357 309.557 52.842C309.557 52.8483 309.557 52.8547 309.557 52.861C309.557 52.8673 309.557 52.8737 309.557 52.88C309.557 52.8863 309.557 52.8927 309.557 52.899C309.557 52.9053 309.557 52.9117 309.557 52.918C309.557 52.9243 309.557 52.9307 309.557 52.937C309.557 52.9433 309.557 52.9497 309.557 52.956C309.557 52.9623 309.557 52.9687 309.557 52.975C309.557 52.9813 309.557 52.9877 309.557 52.994C309.557 53.0003 309.557 53.0067 309.557 53.013C309.557 53.0193 309.557 53.0257 309.557 53.032C309.557 53.0383 309.557 53.0447 309.557 53.051C309.557 53.0573 309.557 53.0637 309.557 53.07C309.557 53.0763 309.557 53.0827 309.557 53.089C309.557 53.0953 309.557 53.1017 309.557 53.108C309.557 53.1143 309.557 53.1207 309.557 53.127C309.557 53.1333 309.557 53.1397 309.557 53.146C309.557 53.1523 309.557 53.1587 309.557 53.165C309.557 53.1713 309.557 53.1777 309.557 53.184C309.557 53.1903 309.557 53.1967 309.557 53.203C309.557 53.2093 309.557 53.2157 309.557 53.222C309.557 53.2283 309.557 53.2347 309.557 53.241C309.557 53.2473 309.557 53.2537 309.557 53.26C309.557 53.2663 309.557 53.2727 309.557 53.279C309.557 53.2853 309.557 53.2917 309.557 53.298C309.557 53.3043 309.557 53.3107 309.557 53.317C309.557 53.3233 309.557 53.3297 309.557 53.336C309.557 53.3423 309.557 53.3487 309.557 53.355C309.557 53.3613 309.557 53.3677 309.557 53.374C309.557 53.3803 309.557 53.3867 309.557 53.393C309.557 53.3993 309.557 53.4057 309.557 53.412C309.557 53.4183 309.557 53.4247 309.557 53.431C309.557 53.4373 309.557 53.4437 309.557 53.45C309.557 53.4563 309.557 53.4627 309.557 53.469C309.557 53.4753 309.557 53.4817 309.557 53.488C309.557 53.4943 309.557 53.5007 309.557 53.507C309.557 53.5133 309.557 53.5197 309.557 53.526C309.557 53.5323 309.557 53.5387 309.557 53.545C309.557 53.5513 309.557 53.5577 309.557 53.564C309.557 53.5703 309.557 53.5767 309.557 53.583C309.557 53.5893 309.557 53.5957 309.557 53.602C309.557 53.6083 309.557 53.6147 309.557 53.621C309.557 53.6273 309.557 53.6337 309.557 53.64C309.557 53.6463 309.557 53.6527 309.557 53.659C309.557 53.6653 309.557 53.6717 309.557 53.678C309.557 53.6843 309.557 53.6907 309.557 53.697C309.557 53.7033 309.557 53.7097 309.557 53.716C309.557 53.7223 309.557 53.7287 309.557 53.735C309.557 53.7413 309.557 53.7477 309.557 53.754C309.557 53.7603 309.557 53.7667 309.557 53.773C309.557 53.7793 309.557 53.7857 309.557 53.792C309.557 53.7983 309.557 53.8047 309.557 53.811C309.557 53.8173 309.557 53.8237 309.557 53.83C309.557 53.8363 309.557 53.8427 309.557 53.849C309.557 53.8553 309.557 53.8617 309.557 53.868C309.557 53.8743 309.557 53.8807 309.557 53.887C309.557 53.8933 309.557 53.8997 309.557 53.906C309.557 53.9123 309.557 53.9187 309.557 53.925C309.557 53.9313 309.557 53.9377 309.557 53.944C309.557 53.9503 309.557 53.9567 309.557 53.963C309.557 53.9693 309.557 53.9757 309.557 53.982C309.557 53.9883 309.557 53.9947 309.557 54.001C309.557 54.0073 309.557 54.0137 309.557 54.02C309.557 54.0263 309.557 54.0327 309.557 54.039C309.557 54.0453 309.557 54.0517 309.557 54.058C309.557 54.0643 309.557 54.0707 309.557 54.077C309.557 54.0833 309.557 54.0897 309.557 54.096C309.557 54.1023 309.557 54.1087 309.557 54.115C309.557 54.1213 309.557 54.1277 309.557 54.134C309.557 54.1403 309.557 54.1467 309.557 54.153C309.557 54.1593 309.557 54.1657 309.557 54.172C309.557 54.1783 309.557 54.1847 309.557 54.191C309.557 54.1973 309.557 54.2037 309.557 54.21C309.557 54.2163 309.557 54.2227 309.557 54.229C309.557 54.2353 309.557 54.2417 309.557 54.248C309.557 54.2543 309.557 54.2607 309.557 54.267C309.557 54.2733 309.557 54.2797 309.557 54.286C309.557 54.2923 309.557 54.2987 309.557 54.305C309.557 54.3113 309.557 54.3177 309.557 54.324C309.557 54.3303 309.557 54.3367 309.557 54.343C309.557 54.3493 309.557 54.3557 309.557 54.362C309.557 54.3683 309.557 54.3747 309.557 54.381C309.557 54.3873 309.557 54.3937 309.557 54.4C309.557 54.4063 309.557 54.4127 309.557 54.419C309.557 54.4253 309.557 54.4317 309.557 54.438C309.557 54.4443 309.557 54.4507 309.557 54.457C309.557 54.4633 309.557 54.4697 309.557 54.476C309.557 54.4823 309.557 54.4887 309.557 54.495C309.557 54.5013 309.557 54.5077 309.557 54.514C309.557 54.5203 309.557 54.5267 309.557 54.533C309.557 54.5393 309.557 54.5457 309.557 54.552C309.557 54.5583 309.557 54.5647 309.557 54.571C309.557 54.5773 309.557 54.5837 309.557 54.59C309.557 54.5963 309.557 54.6027 309.557 54.609C309.557 54.6153 309.557 54.6217 309.557 54.628C309.557 54.6343 309.557 54.6407 309.557 54.647C309.557 54.6533 309.557 54.6597 309.557 54.666C309.557 54.6723 309.557 54.6787 309.557 54.685C309.557 54.6913 309.557 54.6977 309.557 54.704C309.557 54.7103 309.557 54.7167 309.557 54.723C309.557 54.7293 309.557 54.7357 309.557 54.742C309.557 54.7483 309.557 54.7547 309.557 54.761C309.557 54.7673 309.557 54.7737 309.557 54.78C309.557 54.7863 309.557 54.7927 309.557 54.799C309.557 54.8053 309.557 54.8117 309.557 54.818C309.557 54.8243 309.557 54.8307 309.557 54.837C309.557 54.8433 309.557 54.8497 309.557 54.856C309.557 54.8623 309.557 54.8687 309.557 54.875C309.557 54.8813 309.557 54.8877 309.557 54.894C309.557 54.9003 309.557 54.9067 309.557 54.913C309.557 54.9193 309.557 54.9257 309.557 54.932C309.557 54.9383 309.557 54.9447 309.557 54.951C309.557 54.9573 309.557 54.9637 309.557 54.97C309.557 54.9763 309.557 54.9827 309.557 54.989C309.557 54.9953 309.557 55.0017 309.557 55.008C309.557 55.0143 309.557 55.0207 309.557 55.027C309.557 55.0333 309.557 55.0397 309.557 55.046C309.557 55.0523 309.557 55.0587 309.557 55.065C309.557 55.0713 309.557 55.0777 309.557 55.084C309.557 55.0903 309.557 55.0967 309.557 55.103C309.557 55.1093 309.557 55.1157 309.557 55.122C309.557 55.1283 309.557 55.1347 309.557 55.141C309.557 55.1473 309.557 55.1537 309.557 55.16C309.557 55.1663 309.557 55.1727 309.557 55.179C309.557 55.1853 309.557 55.1917 309.557 55.198C309.557 55.2043 309.557 55.2107 309.557 55.217C309.557 55.2233 309.557 55.2297 309.557 55.236C309.557 55.2423 309.557 55.2487 309.557 55.255C309.557 55.2613 309.557 55.2677 309.557 55.274C309.557 55.2803 309.557 55.2867 309.557 55.293C309.557 55.2993 309.557 55.3057 309.557 55.312C309.557 55.3183 309.557 55.3247 309.557 55.331C309.557 55.3373 309.557 55.3437 309.557 55.35C309.557 55.3563 309.557 55.3627 309.557 55.369C309.557 55.3753 309.557 55.3817 309.557 55.388C309.557 55.3943 309.557 55.4007 309.557 55.407C309.557 55.4133 309.557 55.4197 309.557 55.426C309.557 55.4323 309.557 55.4387 309.557 55.445C309.557 55.4513 309.557 55.4577 309.557 55.464C309.557 55.4703 309.557 55.4767 309.557 55.483C309.557 55.4893 309.557 55.4957 309.557 55.502C309.557 55.5083 309.557 55.5147 309.557 55.521C309.557 55.5273 309.557 55.5337 309.557 55.54C309.557 55.5463 309.557 55.5527 309.557 55.559C309.557 55.5653 309.557 55.5717 309.557 55.578C309.557 55.5843 309.557 55.5907 309.557 55.597C309.557 55.6033 309.557 55.6097 309.557 55.616C309.557 55.6223 309.557 55.6287 309.557 55.635C309.557 55.6413 309.557 55.6477 309.557 55.654C309.557 55.6603 309.557 55.6667 309.557 55.673C309.557 55.6793 309.557 55.6857 309.557 55.692C309.557 55.6983 309.557 55.7047 309.557 55.711C309.557 55.7173 309.557 55.7237 309.557 55.73C309.557 55.7363 309.557 55.7427 309.557 55.749C309.557 55.7553 309.557 55.7617 309.557 55.768C309.557 55.7743 309.557 55.7807 309.557 55.787C309.557 55.7933 309.557 55.7997 309.557 55.806C309.557 55.8123 309.557 55.8187 309.557 55.825C309.557 55.8313 309.557 55.8377 309.557 55.844C309.557 55.8503 309.557 55.8567 309.557 55.863C309.557 55.8693 309.557 55.8757 309.557 55.882C309.557 55.8883 309.557 55.8947 309.557 55.901C309.557 55.9073 309.557 55.9137 309.557 55.92C309.557 55.9263 309.557 55.9327 309.557 55.939C309.557 55.9453 309.557 55.9517 309.557 55.958C309.557 55.9643 309.557 55.9707 309.557 55.977C309.557 55.9833 309.557 55.9897 309.557 55.996C309.557 56.0023 309.557 56.0087 309.557 56.015C309.557 56.0213 309.557 56.0277 309.557 56.034C309.557 56.0403 309.557 56.0467 309.557 56.053C309.557 56.0593 309.557 56.0657 309.557 56.072C309.557 56.0783 309.557 56.0847 309.557 56.091C309.557 56.0973 309.557 56.1037 309.557 56.11C309.557 56.1163 309.557 56.1227 309.557 56.129C309.557 56.1353 309.557 56.1417 309.557 56.148C309.557 56.1543 309.557 56.1607 309.557 56.167C309.557 56.1733 309.557 56.1797 309.557 56.186C309.557 56.1923 309.557 56.1987 309.557 56.205C309.557 56.2113 309.557 56.2177 309.557 56.224C309.557 56.2303 309.557 56.2367 309.557 56.243C309.557 56.2493 309.557 56.2557 309.557 56.262C309.557 56.2683 309.557 56.2747 309.557 56.281C309.557 56.2873 309.557 56.2937 309.557 56.3C309.557 56.3063 309.557 56.3127 309.557 56.319C309.557 56.3253 309.557 56.3317 309.557 56.338C309.557 56.3443 309.557 56.3507 309.557 56.357C309.557 56.3633 309.557 56.3697 309.557 56.376C309.557 56.3823 309.557 56.3887 309.557 56.395C309.557 56.4013 309.557 56.4077 309.557 56.414C309.557 56.4203 309.557 56.4267 309.557 56.433C309.557 56.4393 309.557 56.4457 309.557 56.452C309.557 56.4583 309.557 56.4647 309.557 56.471C309.557 56.4773 309.557 56.4837 309.557 56.49C309.557 56.4963 309.557 56.5027 309.557 56.509C309.557 56.5153 309.557 56.5217 309.557 56.528C309.557 56.5343 309.557 56.5407 309.557 56.547C309.557 56.5533 309.557 56.5597 309.557 56.566C309.557 56.5723 309.557 56.5787 309.557 56.585C309.557 56.5913 309.557 56.5977 309.557 56.604C309.557 56.6103 309.557 56.6167 309.557 56.623C309.557 56.6293 309.557 56.6357 309.557 56.642C309.557 56.6483 309.557 56.6547 309.557 56.661C309.557 56.6673 309.557 56.6737 309.557 56.68C309.557 56.6863 309.557 56.6927 309.557 56.699C309.557 56.7053 309.557 56.7117 309.557 56.718C309.557 56.7243 309.557 56.7307 309.557 56.737C309.557 56.7433 309.557 56.7497 309.557 56.756C309.557 56.7623 309.557 56.7687 309.557 56.775C309.557 56.7813 309.557 56.7877 309.557 56.794C309.557 56.8003 309.557 56.8067 309.557 56.813C309.557 56.8193 309.557 56.8257 309.557 56.832C309.557 56.8383 309.557 56.8447 309.557 56.851C309.557 56.8573 309.557 56.8637 309.557 56.87C309.557 56.8763 309.557 56.8827 309.557 56.889C309.557 56.8953 309.557 56.9017 309.557 56.908C309.557 56.9143 309.557 56.9207 309.557 56.927C309.557 56.9333 309.557 56.9397 309.557 56.946C309.557 56.9523 309.557 56.9587 309.557 56.965C309.557 56.9713 309.557 56.9777 309.557 56.984C309.557 56.9903 309.557 56.9967 309.557 57.003C309.557 57.0093 309.557 57.0157 309.557 57.022C309.557 57.0283 309.557 57.0347 309.557 57.041C309.557 57.0473 309.557 57.0537 309.557 57.06C309.557 57.0663 309.557 57.0727 309.557 57.079C309.557 57.0853 309.557 57.0917 309.557 57.098C309.557 57.1043 309.557 57.1107 309.557 57.117C309.557 57.1233 309.557 57.1297 309.557 57.136C309.557 57.1423 309.557 57.1487 309.557 57.155C309.557 57.1613 309.557 57.1677 309.557 57.174C309.557 57.1803 309.557 57.1867 309.557 57.193C309.557 57.1993 309.557 57.2057 309.557 57.212C309.557 57.2183 309.557 57.2247 309.557 57.231C309.557 57.2373 309.557 57.2437 309.557 57.25C309.557 57.2563 309.557 57.2627 309.557 57.269C309.557 57.2753 309.557 57.2817 309.557 57.288C309.557 57.2943 309.557 57.3007 309.557 57.307C309.557 57.3133 309.557 57.3197 309.557 57.326C309.557 57.3323 309.557 57.3387 309.557 57.345C309.557 57.3513 309.557 57.3577 309.557 57.364C309.557 57.3703 309.557 57.3767 309.557 57.383C309.557 57.3893 309.557 57.3957 309.557 57.402C309.557 57.4083 309.557 57.4147 309.557 57.421C309.557 57.4273 309.557 57.4337 309.557 57.44C309.557 57.4463 309.557 57.4527 309.557 57.459C309.557 57.4653 309.557 57.4717 309.557 57.478C309.557 57.4843 309.557 57.4907 309.557 57.497C309.557 57.5033 309.557 57.5097 309.557 57.516C309.557 57.5223 309.557 57.5287 309.557 57.535C309.557 57.5413 309.557 57.5477 309.557 57.554C309.557 57.5603 309.557 57.5667 309.557 57.573C309.557 57.5793 309.557 57.5857 309.557 57.592C309.557 57.5983 309.557 57.6047 309.557 57.611C309.557 57.6173 309.557 57.6237 309.557 57.63C309.557 57.6363 309.557 57.6427 309.557 57.649C309.557 57.6553 309.557 57.6617 309.557 57.668C309.557 57.6743 309.557 57.6807 309.557 57.687C309.557 57.6933 309.557 57.6997 309.557 57.706C309.557 57.7123 309.557 57.7187 309.557 57.725C309.557 57.7313 309.557 57.7377 309.557 57.744C309.557 57.7503 309.557 57.7567 309.557 57.763C309.557 57.7693 309.557 57.7757 309.557 57.782C309.557 57.7883 309.557 57.7947 309.557 57.801C309.557 57.8073 309.557 57.8137 309.557 57.82C309.557 57.8263 309.557 57.8327 309.557 57.839C309.557 57.8453 309.557 57.8517 309.557 57.858C309.557 57.8643 309.557 57.8707 309.557 57.877C309.557 57.8833 309.557 57.8897 309.557 57.896C309.557 57.9023 309.557 57.9087 309.557 57.915C309.557 57.9213 309.557 57.9277 309.557 57.934C309.557 57.9403 309.557 57.9467 309.557 57.953C309.557 57.9593 309.557 57.9657 309.557 57.972C309.557 57.9783 309.557 57.9847 309.557 57.991C309.557 57.9973 309.557 58.0037 309.557 58.01C309.557 58.0163 309.557 58.0227 309.557 58.029C309.557 58.0353 309.557 58.0417 309.557 58.048C309.557 58.0543 309.557 58.0607 309.557 58.067C309.557 58.0733 309.557 58.0797 309.557 58.086C309.557 58.0923 309.557 58.0987 309.557 58.105C309.557 58.1113 309.557 58.1177 309.557 58.124C309.557 58.1303 309.557 58.1367 309.557 58.143C309.557 58.1493 309.557 58.1557 309.557 58.162C309.557 58.1683 309.557 58.1747 309.557 58.181C309.557 58.1873 309.557 58.1937 309.557 58.2C309.557 58.2063 309.557 58.2127 309.557 58.219C309.557 58.2253 309.557 58.2317 309.557 58.238C309.557 58.2443 309.557 58.2507 309.557 58.257C309.557 58.2633 309.557 58.2697 309.557 58.276C309.557 58.2823 309.557 58.2887 309.557 58.295C309.557 58.3013 309.557 58.3077 309.557 58.314C309.557 58.3203 309.557 58.3267 309.557 58.333C309.557 58.3393 309.557 58.3457 309.557 58.352C309.557 58.3583 309.557 58.3647 309.557 58.371C309.557 58.3773 309.557 58.3837 309.557 58.39C309.557 58.3963 309.557 58.4027 309.557 58.409C309.557 58.4153 309.557 58.4217 309.557 58.428C309.557 58.4343 309.557 58.4407 309.557 58.447C309.557 58.4533 309.557 58.4597 309.557 58.466C309.557 58.4723 309.557 58.4787 309.557 58.485C309.557 58.4913 309.557 58.4977 309.557 58.504C309.557 58.5103 309.557 58.5167 309.557 58.523C309.557 58.5293 309.557 58.5357 309.557 58.542C309.557 58.5483 309.557 58.5547 309.557 58.561C309.557 58.5673 309.557 58.5737 309.557 58.58C309.557 58.5863 309.557 58.5927 309.557 58.599C309.557 58.6053 309.557 58.6117 309.557 58.618C309.557 58.6243 309.557 58.6307 309.557 58.637C309.557 58.6433 309.557 58.6497 309.557 58.656C309.557 58.6623 309.557 58.6687 309.557 58.675C309.557 58.6813 309.557 58.6877 309.557 58.694C309.557 58.7003 309.557 58.7067 309.557 58.713C309.557 58.7193 309.557 58.7257 309.557 58.732C309.557 58.7383 309.557 58.7447 309.557 58.751C309.557 58.7573 309.557 58.7637 309.557 58.77C309.557 58.7763 309.557 58.7827 309.557 58.789C309.557 58.7953 309.557 58.8017 309.557 58.808C309.557 58.8143 309.557 58.8207 309.557 58.827C309.557 58.8333 309.557 58.8397 309.557 58.846C309.557 58.8523 309.557 58.8587 309.557 58.865C309.557 58.8713 309.557 58.8777 309.557 58.884C309.557 58.8903 309.557 58.8967 309.557 58.903C309.557 58.9093 309.557 58.9157 309.557 58.922C309.557 58.9283 309.557 58.9347 309.557 58.941C309.557 58.9473 309.557 58.9537 309.557 58.96C309.557 58.9663 309.557 58.9727 309.557 58.979C309.557 58.9853 309.557 58.9917 309.557 58.998C309.557 59.0043 309.557 59.0107 309.557 59.017C309.557 59.0233 309.557 59.0297 309.557 59.036C309.557 59.0423 309.557 59.0487 309.557 59.055C309.557 59.0613 309.557 59.0677 309.557 59.074C309.557 59.0803 309.557 59.0867 309.557 59.093C309.557 59.0993 309.557 59.1057 309.557 59.112C309.557 59.1183 309.557 59.1247 309.557 59.131C309.557 59.1373 309.557 59.1437 309.557 59.15C309.557 59.1563 309.557 59.1627 309.557 59.169C309.557 59.1753 309.557 59.1817 309.557 59.188C309.557 59.1943 309.557 59.2007 309.557 59.207C309.557 59.2133 309.557 59.2197 309.557 59.226C309.557 59.2323 309.557 59.2387 309.557 59.245C309.557 59.2513 309.557 59.2577 309.557 59.264C309.557 59.2703 309.557 59.2767 309.557 59.283C309.557 59.2893 309.557 59.2957 309.557 59.302C309.557 59.3083 309.557 59.3147 309.557 59.321C309.557 59.3273 309.557 59.3337 309.557 59.34C309.557 59.3463 309.557 59.3527 309.557 59.359C309.557 59.3653 309.557 59.3717 309.557 59.378C309.557 59.3843 309.557 59.3907 309.557 59.397C309.557 59.4033 309.557 59.4097 309.557 59.416C309.557 59.4223 309.557 59.4287 309.557 59.435C309.557 59.4413 309.557 59.4477 309.557 59.454C309.557 59.4603 309.557 59.4667 309.557 59.473C309.557 59.4793 309.557 59.4857 309.557 59.492C309.557 59.4983 309.557 59.5047 309.557 59.511C309.557 59.5173 309.557 59.5237 309.557 59.53C309.557 59.5363 309.557 59.5427 309.557 59.549C309.557 59.5553 309.557 59.5617 309.557 59.568H313.557ZM313.557 49.84V20.4H309.557V49.84H313.557ZM311.557 22.4H325.381V18.4H311.557V22.4ZM323.381 20.4V110H327.381V20.4H323.381ZM325.381 108H311.941V112H325.381V108ZM313.425 108.659L249.553 38.0028L246.585 40.6852L310.457 111.341L313.425 108.659ZM249.952 40.0167L250.592 38.2247L246.826 36.8793L246.186 38.6713L249.952 40.0167ZM246.716 37.7136C246.972 40.8767 247.229 43.8699 247.485 46.6931L251.469 46.3309C251.213 43.5221 250.958 40.542 250.702 37.3904L246.716 37.7136ZM247.486 46.6987C247.74 49.4127 247.952 52.0401 248.121 54.581L252.113 54.315C251.941 51.7359 251.726 49.0726 251.468 46.3253L247.486 46.6987ZM248.128 54.6538C248.382 57.1154 248.594 59.4038 248.763 61.5195L252.751 61.2005C252.579 59.0495 252.364 56.7299 252.106 54.2422L248.128 54.6538ZM248.763 61.5195C248.932 63.6308 249.059 65.6545 249.143 67.5909L253.139 67.4171C253.053 65.4282 252.923 63.3559 252.751 61.2005L248.763 61.5195ZM249.143 67.5948C249.227 69.4465 249.269 71.1653 249.269 72.752H253.269C253.269 71.0961 253.225 69.3161 253.139 67.4132L249.143 67.5948ZM249.269 72.752V110H253.269V72.752H249.269ZM251.269 108H237.445V112H251.269V108ZM378.061 110H376.061V112H378.061V110ZM378.061 33.712H380.061V31.712H378.061V33.712ZM347.853 33.712H345.853V35.712H347.853V33.712ZM347.853 20.4V18.4H345.853V20.4H347.853ZM422.733 20.4H424.733V18.4H422.733V20.4ZM422.733 33.712V35.712H424.733V33.712H422.733ZM391.885 33.712V31.712H389.885V33.712H391.885ZM391.885 110V112H393.885V110H391.885ZM380.061 110V33.712H376.061V110H380.061ZM378.061 31.712H347.853V35.712H378.061V31.712ZM349.853 33.712V20.4H345.853V33.712H349.853ZM347.853 22.4H422.733V18.4H347.853V22.4ZM420.733 20.4V33.712H424.733V20.4H420.733ZM422.733 31.712H391.885V35.712H422.733V31.712ZM389.885 33.712V110H393.885V33.712H389.885ZM391.885 108H378.061V112H391.885V108ZM464.37 107.824L463.627 109.681L463.643 109.687L463.659 109.693L464.37 107.824ZM448.626 97.968L447.254 99.4236L447.261 99.4301L447.268 99.4365L448.626 97.968ZM438.258 83.376L436.417 84.1571L436.424 84.1741L436.432 84.1909L438.258 83.376ZM438.258 47.152L436.427 46.3474L436.424 46.3541L436.421 46.3607L438.258 47.152ZM448.626 32.432L447.268 30.9635L447.261 30.9699L447.254 30.9764L448.626 32.432ZM464.37 22.704L465.09 24.57L465.097 24.5673L465.104 24.5645L464.37 22.704ZM504.05 22.576L503.33 24.442L503.339 24.4454L504.05 22.576ZM519.794 32.432L518.408 33.8737L518.422 33.8872L518.436 33.9005L519.794 32.432ZM530.162 47.152L528.321 47.9331L528.328 47.9501L528.336 47.9669L530.162 47.152ZM530.162 83.376L528.331 82.5715L528.328 82.5781L528.325 82.5848L530.162 83.376ZM519.794 98.096L521.166 99.5516L521.166 99.5508L519.794 98.096ZM504.05 107.824L503.339 105.955L503.33 105.958L504.05 107.824ZM498.546 95.408L499.256 97.2776L499.266 97.2738L499.276 97.2699L498.546 95.408ZM509.81 88.496L511.163 89.9687L511.174 89.9589L511.184 89.9489L509.81 88.496ZM517.106 78.128L515.28 77.3121L515.276 77.3213L515.272 77.3305L517.106 78.128ZM517.106 52.4L515.266 53.1831L515.276 53.207L515.287 53.2306L517.106 52.4ZM509.81 42.032L508.436 43.4849L508.446 43.4949L508.457 43.5047L509.81 42.032ZM498.546 35.12L497.816 36.9819L497.832 36.9882L497.848 36.9942L498.546 35.12ZM470.002 35.12L470.7 36.9942L470.716 36.9882L470.732 36.9819L470.002 35.12ZM458.61 41.904L457.276 40.4135L457.267 40.4224L457.257 40.4313L458.61 41.904ZM451.314 52.272L453.148 53.0694L453.151 53.0623L453.154 53.0551L451.314 52.272ZM451.314 78.128L449.474 78.9111L449.474 78.9111L451.314 78.128ZM458.61 88.496L457.257 89.9687L457.267 89.9776L457.276 89.9865L458.61 88.496ZM470.002 95.408L469.272 97.2699L469.288 97.2762L469.304 97.2822L470.002 95.408ZM484.21 109.28C477.259 109.28 470.89 108.164 465.081 105.955L463.659 109.693C469.968 112.092 476.825 113.28 484.21 113.28V109.28ZM465.113 105.967C459.356 103.664 454.319 100.507 449.984 96.4995L447.268 99.4365C451.978 103.791 457.437 107.205 463.627 109.681L465.113 105.967ZM449.998 96.5124C445.752 92.5118 442.451 87.8653 440.084 82.5611L436.432 84.1909C439.014 89.98 442.625 95.0616 447.254 99.4236L449.998 96.5124ZM440.099 82.5949C437.821 77.2246 436.674 71.4333 436.674 65.2H432.674C432.674 71.9373 433.916 78.2634 436.417 84.1571L440.099 82.5949ZM436.674 65.2C436.674 58.9664 437.821 53.222 440.095 47.9432L436.421 46.3607C433.916 52.1754 432.674 58.4629 432.674 65.2H436.674ZM440.089 47.9565C442.457 42.5679 445.757 37.8832 449.998 33.8876L447.254 30.9764C442.62 35.3434 439.009 40.4721 436.427 46.3474L440.089 47.9565ZM449.984 33.9005C454.313 29.8976 459.343 26.7867 465.09 24.57L463.65 20.838C457.451 23.2293 451.984 26.6038 447.268 30.9635L449.984 33.9005ZM465.104 24.5645C470.906 22.2762 477.268 21.12 484.21 21.12V17.12C476.816 17.12 469.951 18.3531 463.636 20.8434L465.104 24.5645ZM484.21 21.12C491.25 21.12 497.615 22.2375 503.33 24.442L504.77 20.71C498.538 18.3064 491.677 17.12 484.21 17.12V21.12ZM503.339 24.4454C509.16 26.6589 514.175 29.8034 518.408 33.8737L521.18 30.9903C516.539 26.5273 511.058 23.1011 504.761 20.7066L503.339 24.4454ZM518.436 33.9005C522.752 37.8909 526.043 42.5637 528.321 47.9331L532.003 46.3709C529.502 40.4763 525.881 35.3358 521.152 30.9635L518.436 33.9005ZM528.336 47.9669C530.688 53.24 531.874 58.9761 531.874 65.2H535.874C535.874 58.4532 534.585 52.1573 531.988 46.3371L528.336 47.9669ZM531.874 65.2C531.874 71.4236 530.688 77.2067 528.331 82.5715L531.993 84.1805C534.585 78.2813 535.874 71.947 535.874 65.2H531.874ZM528.325 82.5848C526.047 87.8734 522.752 92.5561 518.422 96.6412L521.166 99.5508C525.882 95.1026 529.498 89.9719 531.999 84.1672L528.325 82.5848ZM518.422 96.6404C514.188 100.631 509.168 103.738 503.339 105.955L504.761 109.693C511.049 107.302 516.525 103.924 521.166 99.5516L518.422 96.6404ZM503.33 105.958C497.615 108.162 491.25 109.28 484.21 109.28V113.28C491.677 113.28 498.538 112.094 504.77 109.69L503.33 105.958ZM484.338 99.84C489.752 99.84 494.733 98.9964 499.256 97.2776L497.836 93.5384C493.825 95.0623 489.334 95.84 484.338 95.84V99.84ZM499.276 97.2699C503.837 95.4813 507.808 93.0516 511.163 89.9687L508.457 87.0233C505.497 89.7431 501.959 91.9214 497.816 93.5461L499.276 97.2699ZM511.184 89.9489C514.534 86.7799 517.124 83.1019 518.94 78.9255L515.272 77.3305C513.674 81.0048 511.4 84.2387 508.436 87.0431L511.184 89.9489ZM518.932 78.9439C520.844 74.664 521.794 70.0751 521.794 65.2H517.794C517.794 69.5409 516.952 73.5707 515.28 77.3121L518.932 78.9439ZM521.794 65.2C521.794 60.3252 520.844 55.7729 518.925 51.5694L515.287 53.2306C516.952 56.8778 517.794 60.8588 517.794 65.2H521.794ZM518.946 51.6169C517.13 47.3488 514.534 43.6565 511.163 40.5593L508.457 43.5047C511.401 46.2102 513.669 49.4299 515.266 53.1831L518.946 51.6169ZM511.184 40.5791C507.819 37.3957 503.83 34.9543 499.244 33.2458L497.848 36.9942C501.966 38.5284 505.486 40.695 508.436 43.4849L511.184 40.5791ZM499.276 33.258C494.67 31.4518 489.684 30.56 484.338 30.56V34.56C489.232 34.56 493.718 35.3748 497.816 36.9819L499.276 33.258ZM484.338 30.56C478.911 30.56 473.881 31.4504 469.272 33.258L470.732 36.9819C474.827 35.3763 479.354 34.56 484.338 34.56V30.56ZM469.304 33.2458C464.734 34.9484 460.717 37.3348 457.276 40.4135L459.944 43.3945C462.988 40.6705 466.566 38.5343 470.7 36.9942L469.304 33.2458ZM457.257 40.4313C453.886 43.5285 451.29 47.2208 449.474 51.4889L453.154 53.0551C454.751 49.3019 457.019 46.0822 459.963 43.3767L457.257 40.4313ZM449.48 51.4745C447.654 55.6749 446.754 60.259 446.754 65.2H450.754C450.754 60.7544 451.561 56.7198 453.148 53.0694L449.48 51.4745ZM446.754 65.2C446.754 70.0615 447.656 74.6388 449.474 78.9111L453.154 77.3449C451.559 73.5959 450.754 69.5545 450.754 65.2H446.754ZM449.474 78.9111C451.29 83.1792 453.886 86.8715 457.257 89.9687L459.963 87.0233C457.019 84.3178 454.751 81.0981 453.154 77.3449L449.474 78.9111ZM457.276 89.9865C460.709 93.058 464.715 95.4829 469.272 97.2699L470.732 93.5461C466.585 91.9198 462.996 89.7367 459.944 87.0055L457.276 89.9865ZM469.304 97.2822C473.904 98.9962 478.923 99.84 484.338 99.84V95.84C479.342 95.84 474.804 95.0625 470.7 93.5338L469.304 97.2822Z" fill="#111111"/>
</svg>
