<svg width="28" height="29" viewBox="0 0 28 29" fill="none" xmlns="http://www.w3.org/2000/svg">
<g id="Group 1000002654">
<rect id="Rectangle 6988" x="6.20691" y="6.5" width="15.5172" height="15" fill="white"/>
<path id="Vector" fill-rule="evenodd" clip-rule="evenodd" d="M28 14.5C28 22.2322 21.7322 28.5 14 28.5C6.2678 28.5 0 22.2322 0 14.5C0 6.7678 6.2678 0.5 14 0.5C21.7322 0.5 28 6.7678 28 14.5ZM9.758 10.258C9.95487 10.0614 10.2217 9.95092 10.5 9.95092C10.7783 9.95092 11.0451 10.0614 11.242 10.258L14 13.016L16.758 10.258C16.957 10.0725 17.2203 9.97155 17.4923 9.97635C17.7644 9.98115 18.0239 10.0914 18.2163 10.2837C18.4086 10.4761 18.5188 10.7356 18.5236 11.0077C18.5284 11.2797 18.4275 11.543 18.242 11.742L15.484 14.5L18.242 17.258C18.4275 17.457 18.5284 17.7203 18.5236 17.9923C18.5188 18.2644 18.4086 18.5239 18.2163 18.7163C18.0239 18.9086 17.7644 19.0188 17.4923 19.0236C17.2203 19.0284 16.957 18.9275 16.758 18.742L14 15.984L11.242 18.742C11.043 18.9275 10.7797 19.0284 10.5077 19.0236C10.2356 19.0188 9.97611 18.9086 9.78373 18.7163C9.59135 18.5239 9.48115 18.2644 9.47635 17.9923C9.47155 17.7203 9.57253 17.457 9.758 17.258L12.516 14.5L9.758 11.742C9.56137 11.5451 9.45092 11.2783 9.45092 11C9.45092 10.7217 9.56137 10.4549 9.758 10.258Z" fill="#EF4444"/>
</g>
</svg>
