<svg width="10" height="8" viewBox="0 0 10 8" fill="none" xmlns="http://www.w3.org/2000/svg">
<path d="M4.09492 0.501999C4.21626 0.380666 4.36092 0.32 4.52892 0.32C4.70626 0.32 4.86026 0.385333 4.99092 0.516C5.13092 0.637333 5.20092 0.786666 5.20092 0.964C5.20092 1.132 5.14026 1.27667 5.01892 1.398L2.75092 3.666C2.61092 3.806 2.54092 3.95533 2.54092 4.114C2.54092 4.27267 2.61559 4.42667 2.76492 4.576L4.99092 6.802C5.11226 6.92333 5.17292 7.07267 5.17292 7.25C5.17292 7.43667 5.11226 7.59067 4.99092 7.712C4.87892 7.83333 4.72959 7.894 4.54292 7.894C4.35626 7.894 4.20226 7.83333 4.08092 7.712L0.944922 4.576C0.823588 4.45467 0.762922 4.30067 0.762922 4.114C0.762922 3.92733 0.823588 3.77333 0.944922 3.652L4.09492 0.501999ZM8.15 0.501999C8.27133 0.380666 8.416 0.32 8.584 0.32C8.76133 0.32 8.91533 0.385333 9.046 0.516C9.186 0.637333 9.256 0.786666 9.256 0.964C9.256 1.132 9.19533 1.27667 9.074 1.398L6.806 3.666C6.666 3.806 6.596 3.95533 6.596 4.114C6.596 4.27267 6.67067 4.42667 6.82 4.576L9.046 6.802C9.16733 6.92333 9.228 7.07267 9.228 7.25C9.228 7.43667 9.16733 7.59067 9.046 7.712C8.934 7.83333 8.78467 7.894 8.598 7.894C8.41133 7.894 8.25733 7.83333 8.136 7.712L5 4.576C4.87867 4.45467 4.818 4.30067 4.818 4.114C4.818 3.92733 4.87867 3.77333 5 3.652L8.15 0.501999Z" fill="black" fill-opacity="0.7"/>
</svg>
