<svg width="10" height="8" viewBox="0 0 10 8" fill="none" xmlns="http://www.w3.org/2000/svg">
<path d="M5.01892 3.652C5.14026 3.77333 5.20092 3.92733 5.20092 4.114C5.20092 4.30067 5.14026 4.45467 5.01892 4.576L1.88292 7.712C1.76159 7.83333 1.60759 7.894 1.42092 7.894C1.23426 7.894 1.08026 7.83333 0.958922 7.712C0.846922 7.59067 0.790922 7.43667 0.790922 7.25C0.790922 7.07267 0.851588 6.92333 0.972922 6.802L3.19892 4.576C3.34826 4.42667 3.42292 4.27267 3.42292 4.114C3.42292 3.95533 3.35292 3.806 3.21292 3.666L0.944922 1.398C0.823588 1.27667 0.762922 1.132 0.762922 0.964C0.762922 0.786666 0.828255 0.637333 0.958922 0.516C1.09892 0.385333 1.25759 0.32 1.43492 0.32C1.60292 0.32 1.74759 0.380666 1.86892 0.501999L5.01892 3.652ZM9.074 3.652C9.19533 3.77333 9.256 3.92733 9.256 4.114C9.256 4.30067 9.19533 4.45467 9.074 4.576L5.938 7.712C5.81667 7.83333 5.66267 7.894 5.476 7.894C5.28933 7.894 5.13533 7.83333 5.014 7.712C4.902 7.59067 4.846 7.43667 4.846 7.25C4.846 7.07267 4.90667 6.92333 5.028 6.802L7.254 4.576C7.40333 4.42667 7.478 4.27267 7.478 4.114C7.478 3.95533 7.408 3.806 7.268 3.666L5 1.398C4.87867 1.27667 4.818 1.132 4.818 0.964C4.818 0.786666 4.88333 0.637333 5.014 0.516C5.154 0.385333 5.31267 0.32 5.49 0.32C5.658 0.32 5.80267 0.380666 5.924 0.501999L9.074 3.652Z" fill="black" fill-opacity="0.7"/>
</svg>
