<svg width="24" height="24" viewBox="0 0 24 24" fill="none" xmlns="http://www.w3.org/2000/svg">
<path fill-rule="evenodd" clip-rule="evenodd" d="M4.75 10.6706C4.75 7.40074 7.40074 4.75 10.6706 4.75C13.9404 4.75 16.5912 7.40074 16.5912 10.6706C16.5912 12.2779 15.9507 13.7355 14.9111 14.8024C14.8914 14.8184 14.8723 14.8356 14.8539 14.854C14.8356 14.8724 14.8184 14.8915 14.8023 14.9112C13.7355 15.9508 12.2778 16.5912 10.6706 16.5912C7.40074 16.5912 4.75 13.9404 4.75 10.6706ZM15.3607 16.4214C14.0824 17.4652 12.4496 18.0912 10.6706 18.0912C6.57231 18.0912 3.25 14.7689 3.25 10.6706C3.25 6.57231 6.57231 3.25 10.6706 3.25C14.7689 3.25 18.0912 6.57231 18.0912 10.6706C18.0912 12.4496 17.4651 14.0824 16.4213 15.3607L20.5299 19.4693L21.0602 19.9996L19.9995 21.0603L19.4692 20.5299L15.3607 16.4214Z" fill="#858585"/>
</svg>
