<svg width="24" height="24" viewBox="0 0 24 24" fill="none" xmlns="http://www.w3.org/2000/svg">
<path d="M7.4955 12C7.4955 14.4849 9.5169 16.5063 12.0018 16.5063C14.4867 16.5063 16.5081 14.4849 16.5081 12C16.5081 9.5151 14.4867 7.4937 12.0018 7.4937C9.5169 7.4937 7.4955 9.5151 7.4955 12ZM11.1 18.3H12.9V21H11.1V18.3ZM11.1 3H12.9V5.7H11.1V3ZM3 11.1H5.7V12.9H3V11.1ZM18.3 11.1H21V12.9H18.3V11.1ZM6.2733 19.0002L5.0007 17.7276L6.9096 15.8187L8.1822 17.0913L6.2733 19.0002ZM15.8178 6.9096L17.7276 4.9998L19.0002 6.2724L17.0904 8.1822L15.8178 6.9096ZM6.9096 8.1831L5.0007 6.2733L6.2742 5.0007L8.1822 6.9105L6.9096 8.1831ZM19.0002 17.7276L17.7276 19.0002L15.8178 17.0904L17.0904 15.8178L19.0002 17.7276Z" fill="black"/>
</svg>
