<svg width="18" height="18" viewBox="0 0 18 18" fill="none" xmlns="http://www.w3.org/2000/svg">
<path d="M2.05084 15.75C1.47309 15.75 1.11229 15.1242 1.40177 14.6242L8.35093 2.62112C8.6398 2.12216 9.3602 2.12216 9.64907 2.62112L16.5982 14.6242C16.8877 15.1242 16.5269 15.75 15.9492 15.75H2.05084ZM3.99183 13.1233C3.70145 13.6233 4.06218 14.25 4.64039 14.25H13.3596C13.9378 14.25 14.2986 13.6233 14.0082 13.1233L9.64856 5.61672C9.35946 5.11894 8.64054 5.11894 8.35144 5.61672L3.99183 13.1233ZM9 13.5C9.2125 13.5 9.39075 13.428 9.53475 13.284C9.67875 13.14 9.7505 12.962 9.75 12.75C9.75 12.5375 9.678 12.3595 9.534 12.216C9.39 12.0725 9.212 12.0005 9 12C8.7875 12 8.6095 12.072 8.466 12.216C8.3225 12.36 8.2505 12.538 8.25 12.75C8.25 12.9625 8.322 13.1407 8.466 13.2847C8.61 13.4287 8.788 13.5005 9 13.5ZM8.25 10.5C8.25 10.9142 8.58579 11.25 9 11.25V11.25C9.41421 11.25 9.75 10.9142 9.75 10.5V8.25C9.75 7.83579 9.41421 7.5 9 7.5V7.5C8.58579 7.5 8.25 7.83579 8.25 8.25V10.5Z" fill="black"/>
</svg>
